<svg width="48" height="48" viewBox="0 0 48 48" fill="none" xmlns="http://www.w3.org/2000/svg">
<rect x="0.5" y="0.5" width="47" height="47" rx="23.5" stroke="#DBE1E7"/>
<path d="M33.0006 23.9999C33.0006 24.1988 32.9216 24.3896 32.7809 24.5303C32.6403 24.6709 32.4495 24.7499 32.2506 24.7499H17.5609L23.0312 30.2193C23.1009 30.289 23.1562 30.3717 23.1939 30.4628C23.2316 30.5538 23.251 30.6514 23.251 30.7499C23.251 30.8485 23.2316 30.9461 23.1939 31.0371C23.1562 31.1281 23.1009 31.2109 23.0312 31.2806C22.9615 31.3502 22.8788 31.4055 22.7878 31.4432C22.6967 31.4809 22.5991 31.5003 22.5006 31.5003C22.402 31.5003 22.3045 31.4809 22.2134 31.4432C22.1224 31.4055 22.0396 31.3502 21.97 31.2806L15.22 24.5306C15.1502 24.4609 15.0949 24.3782 15.0572 24.2871C15.0194 24.1961 15 24.0985 15 23.9999C15 23.9014 15.0194 23.8038 15.0572 23.7127C15.0949 23.6217 15.1502 23.539 15.22 23.4693L21.97 16.7193C22.1107 16.5786 22.3016 16.4995 22.5006 16.4995C22.6996 16.4995 22.8905 16.5786 23.0312 16.7193C23.1719 16.86 23.251 17.0509 23.251 17.2499C23.251 17.449 23.1719 17.6398 23.0312 17.7806L17.5609 23.2499H32.2506C32.4495 23.2499 32.6403 23.3289 32.7809 23.4696C32.9216 23.6103 33.0006 23.801 33.0006 23.9999Z" fill="black"/>
</svg>
