<svg width="181" height="126" viewBox="0 0 181 126" fill="none" xmlns="http://www.w3.org/2000/svg">
<path d="M22.5807 102.674L22.6782 103.83L23.8352 103.928L22.6782 104.026L22.5807 105.183L22.4831 104.026L21.3262 103.928L22.4831 103.83L22.5807 102.674Z" fill="#E8EAFB"/>
<g filter="url(#filter0_f_477_1582)">
<circle cx="22.5804" cy="103.928" r="0.627249" fill="#F8F9FF"/>
</g>
<path d="M73.7018 51.8663L73.7993 53.0233L74.9563 53.1208L73.7993 53.2184L73.7018 54.3753L73.6042 53.2184L72.4473 53.1208L73.6042 53.0233L73.7018 51.8663Z" fill="#E8EAFB"/>
<g filter="url(#filter1_f_477_1582)">
<circle cx="73.7015" cy="53.1208" r="0.627249" fill="#F8F9FF"/>
</g>
<path d="M104.438 2L104.536 3.15692L105.693 3.2545L104.536 3.35208L104.438 4.509L104.341 3.35208L103.184 3.2545L104.341 3.15692L104.438 2Z" fill="#E8EAFB"/>
<g filter="url(#filter2_f_477_1582)">
<circle cx="104.438" cy="3.25451" r="0.627249" fill="#F8F9FF"/>
</g>
<path d="M137.369 98.2828L137.442 99.1505L138.309 99.2236L137.442 99.2968L137.369 100.165L137.295 99.2968L136.428 99.2236L137.295 99.1505L137.369 98.2828Z" fill="#E8EAFB"/>
<g filter="url(#filter3_f_477_1582)">
<circle cx="137.369" cy="99.2237" r="0.470437" fill="#F8F9FF"/>
</g>
<path d="M119.177 38.0668L119.25 38.9345L120.118 39.0077L119.25 39.0809L119.177 39.9486L119.104 39.0809L118.236 39.0077L119.104 38.9345L119.177 38.0668Z" fill="#E8EAFB"/>
<g filter="url(#filter4_f_477_1582)">
<circle cx="119.177" cy="39.0077" r="0.470437" fill="#F8F9FF"/>
</g>
<path d="M117.294 14.2313L117.368 15.099L118.235 15.1722L117.368 15.2454L117.294 16.1131L117.221 15.2454L116.354 15.1722L117.221 15.099L117.294 14.2313Z" fill="#E8EAFB"/>
<g filter="url(#filter5_f_477_1582)">
<circle cx="117.295" cy="15.1722" r="0.470437" fill="#F8F9FF"/>
</g>
<path d="M167.79 62.5295L167.864 63.3972L168.731 63.4704L167.864 63.5436L167.79 64.4113L167.717 63.5436L166.85 63.4704L167.717 63.3972L167.79 62.5295Z" fill="#E8EAFB"/>
<g filter="url(#filter6_f_477_1582)">
<circle cx="167.791" cy="63.4704" r="0.470437" fill="#F8F9FF"/>
</g>
<path d="M178.14 23.0128L178.213 23.8805L179.081 23.9537L178.213 24.0269L178.14 24.8946L178.067 24.0269L177.199 23.9537L178.067 23.8805L178.14 23.0128Z" fill="#E8EAFB"/>
<g filter="url(#filter7_f_477_1582)">
<circle cx="178.14" cy="23.9537" r="0.470437" fill="#F8F9FF"/>
</g>
<path d="M55.1967 26.7763L55.2699 27.644L56.1376 27.7172L55.2699 27.7904L55.1967 28.6581L55.1236 27.7904L54.2559 27.7172L55.1236 27.644L55.1967 26.7763Z" fill="#E8EAFB"/>
<g filter="url(#filter8_f_477_1582)">
<circle cx="55.197" cy="27.7172" r="0.470437" fill="#F8F9FF"/>
</g>
<path d="M84.3647 122.118L84.4379 122.986L85.3056 123.059L84.4379 123.132L84.3647 124L84.2915 123.132L83.4238 123.059L84.2915 122.986L84.3647 122.118Z" fill="#E8EAFB"/>
<g filter="url(#filter9_f_477_1582)">
<circle cx="84.365" cy="123.059" r="0.470437" fill="#F8F9FF"/>
</g>
<path d="M64.6069 100.792L64.6801 101.659L65.5478 101.733L64.6801 101.806L64.6069 102.673L64.5337 101.806L63.666 101.733L64.5337 101.659L64.6069 100.792Z" fill="#E8EAFB"/>
<g filter="url(#filter10_f_477_1582)">
<circle cx="64.6072" cy="101.733" r="0.470437" fill="#F8F9FF"/>
</g>
<path d="M0.940874 110.828L1.01406 111.695L1.88175 111.769L1.01406 111.842L0.940874 112.71L0.867691 111.842L0 111.769L0.867691 111.695L0.940874 110.828Z" fill="#E8EAFB"/>
<g filter="url(#filter11_f_477_1582)">
<circle cx="0.94114" cy="111.769" r="0.470437" fill="#F8F9FF"/>
</g>
<path d="M18.1889 57.5116L18.2621 58.3793L19.1298 58.4525L18.2621 58.5257L18.1889 59.3933L18.1157 58.5257L17.248 58.4525L18.1157 58.3793L18.1889 57.5116Z" fill="#E8EAFB"/>
<g filter="url(#filter12_f_477_1582)">
<circle cx="18.1892" cy="58.4525" r="0.470437" fill="#F8F9FF"/>
</g>
<path d="M101.928 76.9563L102.026 78.1132L103.183 78.2108L102.026 78.3084L101.928 79.4653L101.831 78.3084L100.674 78.2108L101.831 78.1132L101.928 76.9563Z" fill="#E8EAFB"/>
<g filter="url(#filter13_f_477_1582)">
<circle cx="101.928" cy="78.2108" r="0.627249" fill="#F8F9FF"/>
</g>
<path d="M159.636 19.2494L159.831 21.5632L162.145 21.7584L159.831 21.9535L159.636 24.2674L159.441 21.9535L157.127 21.7584L159.441 21.5632L159.636 19.2494Z" fill="#E8EAFB"/>
<g filter="url(#filter14_f_477_1582)">
<circle cx="159.635" cy="21.7584" r="1.2545" fill="#F8F9FF"/>
</g>
<line x1="22.4699" y1="103.816" x2="73.9043" y2="53.0092" stroke="white" stroke-opacity="0.2" stroke-width="0.313625"/>
<line x1="101.818" y1="78.4126" x2="159.525" y2="21.6466" stroke="white" stroke-opacity="0.2" stroke-width="0.313625"/>
<line x1="73.4929" y1="53.0037" x2="102.033" y2="78.4073" stroke="white" stroke-opacity="0.2" stroke-width="0.313625"/>
<defs>
<filter id="filter0_f_477_1582" x="19.4441" y="100.792" width="6.2719" height="6.27251" filterUnits="userSpaceOnUse" color-interpolation-filters="sRGB">
<feFlood flood-opacity="0" result="BackgroundImageFix"/>
<feBlend mode="normal" in="SourceGraphic" in2="BackgroundImageFix" result="shape"/>
<feGaussianBlur stdDeviation="1.2545" result="effect1_foregroundBlur_477_1582"/>
</filter>
<filter id="filter1_f_477_1582" x="70.5652" y="49.9846" width="6.2719" height="6.27251" filterUnits="userSpaceOnUse" color-interpolation-filters="sRGB">
<feFlood flood-opacity="0" result="BackgroundImageFix"/>
<feBlend mode="normal" in="SourceGraphic" in2="BackgroundImageFix" result="shape"/>
<feGaussianBlur stdDeviation="1.2545" result="effect1_foregroundBlur_477_1582"/>
</filter>
<filter id="filter2_f_477_1582" x="101.302" y="0.118261" width="6.2719" height="6.27251" filterUnits="userSpaceOnUse" color-interpolation-filters="sRGB">
<feFlood flood-opacity="0" result="BackgroundImageFix"/>
<feBlend mode="normal" in="SourceGraphic" in2="BackgroundImageFix" result="shape"/>
<feGaussianBlur stdDeviation="1.2545" result="effect1_foregroundBlur_477_1582"/>
</filter>
<filter id="filter3_f_477_1582" x="135.017" y="96.8715" width="4.7049" height="4.70435" filterUnits="userSpaceOnUse" color-interpolation-filters="sRGB">
<feFlood flood-opacity="0" result="BackgroundImageFix"/>
<feBlend mode="normal" in="SourceGraphic" in2="BackgroundImageFix" result="shape"/>
<feGaussianBlur stdDeviation="0.940874" result="effect1_foregroundBlur_477_1582"/>
</filter>
<filter id="filter4_f_477_1582" x="116.825" y="36.6555" width="4.7049" height="4.70435" filterUnits="userSpaceOnUse" color-interpolation-filters="sRGB">
<feFlood flood-opacity="0" result="BackgroundImageFix"/>
<feBlend mode="normal" in="SourceGraphic" in2="BackgroundImageFix" result="shape"/>
<feGaussianBlur stdDeviation="0.940874" result="effect1_foregroundBlur_477_1582"/>
</filter>
<filter id="filter5_f_477_1582" x="114.942" y="12.82" width="4.7049" height="4.70435" filterUnits="userSpaceOnUse" color-interpolation-filters="sRGB">
<feFlood flood-opacity="0" result="BackgroundImageFix"/>
<feBlend mode="normal" in="SourceGraphic" in2="BackgroundImageFix" result="shape"/>
<feGaussianBlur stdDeviation="0.940874" result="effect1_foregroundBlur_477_1582"/>
</filter>
<filter id="filter6_f_477_1582" x="165.439" y="61.1183" width="4.7049" height="4.70435" filterUnits="userSpaceOnUse" color-interpolation-filters="sRGB">
<feFlood flood-opacity="0" result="BackgroundImageFix"/>
<feBlend mode="normal" in="SourceGraphic" in2="BackgroundImageFix" result="shape"/>
<feGaussianBlur stdDeviation="0.940874" result="effect1_foregroundBlur_477_1582"/>
</filter>
<filter id="filter7_f_477_1582" x="175.788" y="21.6015" width="4.7049" height="4.70435" filterUnits="userSpaceOnUse" color-interpolation-filters="sRGB">
<feFlood flood-opacity="0" result="BackgroundImageFix"/>
<feBlend mode="normal" in="SourceGraphic" in2="BackgroundImageFix" result="shape"/>
<feGaussianBlur stdDeviation="0.940874" result="effect1_foregroundBlur_477_1582"/>
</filter>
<filter id="filter8_f_477_1582" x="52.8448" y="25.365" width="4.7049" height="4.70435" filterUnits="userSpaceOnUse" color-interpolation-filters="sRGB">
<feFlood flood-opacity="0" result="BackgroundImageFix"/>
<feBlend mode="normal" in="SourceGraphic" in2="BackgroundImageFix" result="shape"/>
<feGaussianBlur stdDeviation="0.940874" result="effect1_foregroundBlur_477_1582"/>
</filter>
<filter id="filter9_f_477_1582" x="82.0128" y="120.707" width="4.7049" height="4.70435" filterUnits="userSpaceOnUse" color-interpolation-filters="sRGB">
<feFlood flood-opacity="0" result="BackgroundImageFix"/>
<feBlend mode="normal" in="SourceGraphic" in2="BackgroundImageFix" result="shape"/>
<feGaussianBlur stdDeviation="0.940874" result="effect1_foregroundBlur_477_1582"/>
</filter>
<filter id="filter10_f_477_1582" x="62.255" y="99.3805" width="4.7049" height="4.70435" filterUnits="userSpaceOnUse" color-interpolation-filters="sRGB">
<feFlood flood-opacity="0" result="BackgroundImageFix"/>
<feBlend mode="normal" in="SourceGraphic" in2="BackgroundImageFix" result="shape"/>
<feGaussianBlur stdDeviation="0.940874" result="effect1_foregroundBlur_477_1582"/>
</filter>
<filter id="filter11_f_477_1582" x="-1.41104" y="109.416" width="4.7049" height="4.70435" filterUnits="userSpaceOnUse" color-interpolation-filters="sRGB">
<feFlood flood-opacity="0" result="BackgroundImageFix"/>
<feBlend mode="normal" in="SourceGraphic" in2="BackgroundImageFix" result="shape"/>
<feGaussianBlur stdDeviation="0.940874" result="effect1_foregroundBlur_477_1582"/>
</filter>
<filter id="filter12_f_477_1582" x="15.837" y="56.1003" width="4.7049" height="4.70435" filterUnits="userSpaceOnUse" color-interpolation-filters="sRGB">
<feFlood flood-opacity="0" result="BackgroundImageFix"/>
<feBlend mode="normal" in="SourceGraphic" in2="BackgroundImageFix" result="shape"/>
<feGaussianBlur stdDeviation="0.940874" result="effect1_foregroundBlur_477_1582"/>
</filter>
<filter id="filter13_f_477_1582" x="98.7918" y="75.0746" width="6.2719" height="6.27251" filterUnits="userSpaceOnUse" color-interpolation-filters="sRGB">
<feFlood flood-opacity="0" result="BackgroundImageFix"/>
<feBlend mode="normal" in="SourceGraphic" in2="BackgroundImageFix" result="shape"/>
<feGaussianBlur stdDeviation="1.2545" result="effect1_foregroundBlur_477_1582"/>
</filter>
<filter id="filter14_f_477_1582" x="153.363" y="15.4859" width="12.5458" height="12.545" filterUnits="userSpaceOnUse" color-interpolation-filters="sRGB">
<feFlood flood-opacity="0" result="BackgroundImageFix"/>
<feBlend mode="normal" in="SourceGraphic" in2="BackgroundImageFix" result="shape"/>
<feGaussianBlur stdDeviation="2.509" result="effect1_foregroundBlur_477_1582"/>
</filter>
</defs>
</svg>
