<svg width="64" height="64" viewBox="0 0 64 64" fill="none" xmlns="http://www.w3.org/2000/svg">
<rect width="64" height="64" rx="32" fill="#F5F5F5"/>
<rect x="8.42578" y="8.29883" width="48" height="48" rx="24" fill="#E6E6E6"/>
<path d="M25.602 30.3979L22.602 27.3979C22.4967 27.2924 22.4375 27.1494 22.4375 27.0004C22.4375 26.8513 22.4967 26.7083 22.602 26.6029L25.602 23.6029C25.6535 23.5476 25.7156 23.5033 25.7846 23.4725C25.8536 23.4418 25.9281 23.4252 26.0036 23.4239C26.0791 23.4226 26.1542 23.4365 26.2242 23.4648C26.2942 23.4931 26.3579 23.5352 26.4113 23.5886C26.4647 23.642 26.5068 23.7056 26.5351 23.7757C26.5634 23.8457 26.5773 23.9207 26.5759 23.9963C26.5746 24.0718 26.5581 24.1463 26.5273 24.2153C26.4966 24.2843 26.4523 24.3464 26.397 24.3979L23.7954 27.0004L26.397 29.6029C26.4523 29.6544 26.4966 29.7165 26.5273 29.7855C26.5581 29.8545 26.5746 29.9289 26.5759 30.0045C26.5773 30.08 26.5634 30.155 26.5351 30.2251C26.5068 30.2951 26.4647 30.3587 26.4113 30.4121C26.3579 30.4656 26.2942 30.5077 26.2242 30.536C26.1542 30.5642 26.0791 30.5781 26.0036 30.5768C25.9281 30.5755 25.8536 30.5589 25.7846 30.5282C25.7156 30.4975 25.6535 30.4531 25.602 30.3979ZM29.352 30.3979C29.4575 30.5032 29.6004 30.5624 29.7495 30.5624C29.8986 30.5624 30.0415 30.5032 30.147 30.3979L33.147 27.3979C33.2523 27.2924 33.3115 27.1494 33.3115 27.0004C33.3115 26.8513 33.2523 26.7083 33.147 26.6029L30.147 23.6029C30.0955 23.5476 30.0334 23.5033 29.9644 23.4725C29.8954 23.4418 29.8209 23.4252 29.7454 23.4239C29.6699 23.4226 29.5948 23.4365 29.5248 23.4648C29.4548 23.4931 29.3911 23.5352 29.3377 23.5886C29.2843 23.642 29.2422 23.7056 29.2139 23.7757C29.1856 23.8457 29.1717 23.9207 29.1731 23.9963C29.1744 24.0718 29.1909 24.1463 29.2217 24.2153C29.2524 24.2843 29.2967 24.3464 29.352 24.3979L31.9536 27.0004L29.352 29.6029C29.2467 29.7083 29.1875 29.8513 29.1875 30.0004C29.1875 30.1494 29.2467 30.2924 29.352 30.3979ZM38.7495 24.9379H36.4995C36.3503 24.9379 36.2072 24.9971 36.1018 25.1026C35.9963 25.2081 35.937 25.3512 35.937 25.5004C35.937 25.6495 35.9963 25.7926 36.1018 25.8981C36.2072 26.0036 36.3503 26.0629 36.4995 26.0629H38.7495C38.7992 26.0629 38.8469 26.0826 38.8821 26.1178C38.9172 26.1529 38.937 26.2006 38.937 26.2504V39.7504C38.937 39.8001 38.9172 39.8478 38.8821 39.8829C38.8469 39.9181 38.7992 39.9379 38.7495 39.9379H25.2495C25.1998 39.9379 25.1521 39.9181 25.1169 39.8829C25.0818 39.8478 25.062 39.8001 25.062 39.7504V33.7504C25.062 33.6012 25.0027 33.4581 24.8973 33.3526C24.7918 33.2471 24.6487 33.1879 24.4995 33.1879C24.3503 33.1879 24.2072 33.2471 24.1018 33.3526C23.9963 33.4581 23.937 33.6012 23.937 33.7504V39.7504C23.937 40.0985 24.0753 40.4323 24.3214 40.6784C24.5676 40.9246 24.9014 41.0629 25.2495 41.0629H38.7495C39.0976 41.0629 39.4314 40.9246 39.6776 40.6784C39.9237 40.4323 40.062 40.0985 40.062 39.7504V26.2504C40.062 25.9023 39.9237 25.5684 39.6776 25.3223C39.4314 25.0761 39.0976 24.9379 38.7495 24.9379Z" fill="#090909"/>
</svg>
