<svg width="348" height="212" viewBox="0 0 348 212" fill="none" xmlns="http://www.w3.org/2000/svg">
<g clip-path="url(#clip0_483_2759)">
<rect width="348" height="212" rx="8" fill="#FAFAFA"/>
<rect x="-2.29289" y="62.761" width="92" height="26" rx="13" transform="rotate(-45 -2.29289 62.761)" fill="white"/>
<rect x="-2.29289" y="62.761" width="92" height="26" rx="13" transform="rotate(-45 -2.29289 62.761)" stroke="#DBE1E7"/>
<circle cx="20.6881" cy="58.1648" r="4" transform="rotate(-45 20.6881 58.1648)" fill="#090909"/>
<path d="M32.4706 51.3311L27.4714 46.3318L29.2462 44.557C29.7648 44.0385 30.3045 43.7108 30.8655 43.5741C31.4218 43.4327 31.9757 43.4633 32.5272 43.666C33.0787 43.8593 33.6044 44.2058 34.104 44.7055C34.599 45.2005 34.9479 45.7237 35.1506 46.2753C35.3486 46.8221 35.3792 47.376 35.2425 47.937C35.1011 48.4932 34.7687 49.033 34.2455 49.5562L32.4706 51.3311ZM32.5272 50.1573L33.6444 49.0401C34.0498 48.6347 34.2997 48.2198 34.394 47.7956C34.4882 47.3713 34.4552 46.9517 34.295 46.5369C34.13 46.1174 33.8566 45.7167 33.4747 45.3348C33.1023 44.9624 32.7063 44.6937 32.2868 44.5287C31.8719 44.359 31.4524 44.3166 31.0281 44.4014C30.6039 44.4863 30.1937 44.7267 29.7978 45.1227L28.6452 46.2753L32.5272 50.1573ZM39.3559 44.5307C38.9599 44.9266 38.5522 45.1741 38.1326 45.2731C37.7084 45.3674 37.2888 45.3344 36.874 45.1741C36.4591 45.0138 36.0679 44.7499 35.7002 44.3822C35.3278 44.0097 35.0661 43.6161 34.9153 43.2013C34.7644 42.777 34.7361 42.3528 34.8304 41.9285C34.9247 41.5042 35.1604 41.1035 35.5375 40.7264C35.8298 40.4341 36.1362 40.2409 36.4568 40.1466C36.7773 40.0429 37.0979 40.0146 37.4184 40.0617C37.739 40.1089 38.0407 40.2126 38.3235 40.3729C38.6017 40.5284 38.8468 40.7217 39.0589 40.9527C39.0966 40.9998 39.1344 41.047 39.1721 41.0941C39.2145 41.1365 39.2546 41.1813 39.2923 41.2285L36.5275 43.9933C36.7632 44.1912 37.013 44.3327 37.277 44.4175C37.541 44.5024 37.8073 44.5142 38.076 44.4529C38.34 44.3869 38.5946 44.2313 38.8397 43.9862C38.9623 43.8636 39.0707 43.7269 39.165 43.5761C39.2593 43.4158 39.3182 43.2484 39.3418 43.074C39.3701 42.8949 39.3418 42.7205 39.2569 42.5508L39.8721 41.9356C40.0559 42.2326 40.1479 42.5366 40.1479 42.8477C40.1432 43.1541 40.0701 43.4535 39.9287 43.7458C39.7825 44.0333 39.5916 44.2949 39.3559 44.5307ZM36.0184 43.4558L38.175 41.2992C37.9582 41.0918 37.7249 40.9527 37.475 40.882C37.2252 40.8113 36.9777 40.8089 36.7325 40.8749C36.4921 40.9362 36.2659 41.0729 36.0537 41.285C35.8227 41.516 35.6766 41.7611 35.6153 42.0204C35.5587 42.275 35.5682 42.5248 35.6436 42.77C35.719 43.0151 35.8439 43.2437 36.0184 43.4558ZM43.4376 40.4489C43.2679 40.6186 43.0794 40.7742 42.8719 40.9156C42.6692 41.0523 42.4524 41.156 42.2214 41.2267C41.9951 41.2927 41.7641 41.3069 41.5284 41.2692C41.2927 41.2315 41.0594 41.1254 40.8284 40.951L41.4365 40.3429C41.6109 40.423 41.7901 40.4513 41.9739 40.4277C42.1578 40.3947 42.3322 40.3287 42.4972 40.2297C42.6669 40.126 42.813 40.0129 42.9356 39.8903C43.011 39.8149 43.0935 39.723 43.1831 39.6145C43.2726 39.5061 43.3457 39.3906 43.4023 39.2681C43.4588 39.1361 43.4801 39.0064 43.4659 38.8792C43.4565 38.7472 43.3881 38.6175 43.2609 38.4902C43.1666 38.396 43.0676 38.3394 42.9639 38.3205C42.8602 38.3017 42.7517 38.3111 42.6386 38.3488C42.5208 38.3818 42.3982 38.4431 42.2709 38.5327C42.0022 38.7071 41.7194 38.9004 41.4224 39.1125C41.1301 39.3199 40.8284 39.4613 40.5173 39.5368C40.4089 39.5603 40.3004 39.5745 40.192 39.5792C40.0836 39.5745 39.9775 39.558 39.8738 39.5297C39.7654 39.4967 39.6593 39.4519 39.5556 39.3953C39.4519 39.3293 39.3506 39.2469 39.2516 39.1479C39.0677 38.964 38.9451 38.7707 38.8839 38.568C38.8226 38.3559 38.8155 38.1414 38.8627 37.9246C38.9051 37.703 38.9899 37.4862 39.1172 37.274C39.2492 37.0572 39.4142 36.8498 39.6122 36.6518C39.8573 36.4066 40.1166 36.2275 40.39 36.1144C40.6634 35.9918 40.9392 35.9423 41.2173 35.9659C41.4907 35.9847 41.7476 36.0908 41.9881 36.2841L41.4294 36.8427C41.2597 36.739 41.0594 36.7178 40.8284 36.779C40.5927 36.8356 40.3617 36.977 40.1354 37.2033C40.06 37.2787 39.9822 37.3707 39.9021 37.4791C39.8172 37.5828 39.7512 37.6959 39.7041 37.8185C39.6523 37.9363 39.6334 38.0589 39.6475 38.1862C39.657 38.3088 39.7183 38.4266 39.8314 38.5397C39.9351 38.6435 40.0482 38.7047 40.1708 38.7236C40.2981 38.7377 40.4324 38.7165 40.5738 38.66C40.7153 38.6034 40.8638 38.5256 41.0193 38.4266C41.2173 38.2946 41.4342 38.1485 41.6699 37.9882C41.9009 37.8232 42.0918 37.703 42.2426 37.6276C42.4406 37.5239 42.6315 37.4649 42.8154 37.4508C43.0039 37.4319 43.1807 37.4579 43.3457 37.5286C43.5154 37.5946 43.678 37.7054 43.8336 37.8609C44.0552 38.0825 44.1919 38.3088 44.2437 38.5397C44.3003 38.766 44.2956 38.9923 44.2296 39.2186C44.1636 39.4448 44.0575 39.664 43.9114 39.8762C43.77 40.0836 43.6121 40.2745 43.4376 40.4489ZM45.9181 37.8836L42.1916 34.1572L42.7927 33.5561L46.5191 37.2826L45.9181 37.8836ZM41.9371 33.3086C41.8145 33.4312 41.6778 33.4925 41.527 33.4925C41.3808 33.4878 41.2488 33.4265 41.131 33.3086C41.0131 33.1908 40.9566 33.0588 40.9613 32.9127C40.9613 32.7618 41.0202 32.6275 41.138 32.5096C41.2465 32.4012 41.3785 32.3446 41.534 32.3399C41.6943 32.3305 41.831 32.3823 41.9441 32.4955C42.062 32.6133 42.1186 32.75 42.1139 32.9056C42.1091 33.0612 42.0502 33.1955 41.9371 33.3086ZM51.0358 36.1035C50.7812 36.358 50.5054 36.5537 50.2085 36.6904C49.9162 36.8318 49.6121 36.8954 49.2963 36.8813C48.9804 36.8672 48.6693 36.7587 48.3629 36.556L48.9852 35.9338C49.1643 36.0375 49.3481 36.0799 49.5367 36.0611C49.7253 36.0422 49.9044 35.9809 50.0741 35.8772C50.2485 35.7782 50.4017 35.6627 50.5337 35.5307C50.7883 35.2762 50.9415 35.0193 50.9933 34.76C51.0546 34.5007 51.0311 34.2462 50.9226 33.9963C50.8189 33.7512 50.6539 33.5155 50.4277 33.2892L49.9115 32.773C49.9728 32.9946 49.9822 33.2161 49.9398 33.4377C49.8973 33.6593 49.8195 33.869 49.7064 34.067C49.5886 34.2603 49.4471 34.4394 49.2821 34.6044C48.905 34.9815 48.5138 35.2078 48.1083 35.2832C47.6982 35.354 47.2928 35.3068 46.8921 35.1418C46.4914 34.9674 46.112 34.7011 45.7537 34.3428C45.3954 33.9845 45.1314 33.6027 44.9617 33.1973C44.7873 32.7872 44.7378 32.3747 44.8132 31.9598C44.8887 31.545 45.1173 31.1467 45.4991 30.7648C45.716 30.548 45.9752 30.3688 46.2769 30.2274C46.5786 30.086 46.8898 30.0342 47.2103 30.0719L46.7719 29.5769L47.3447 29.0041L51.0428 32.7023C51.3917 33.0511 51.6297 33.4165 51.757 33.7983C51.889 34.1754 51.8961 34.5596 51.7782 34.9509C51.6651 35.3375 51.4176 35.7216 51.0358 36.1035ZM48.8367 33.9892C49.0865 33.7394 49.2326 33.466 49.2751 33.169C49.3175 32.872 49.2774 32.5727 49.1549 32.271C49.0323 31.9693 48.8461 31.6935 48.5963 31.4437C48.337 31.1844 48.0612 30.9982 47.7689 30.885C47.4814 30.7672 47.1938 30.7342 46.9063 30.786C46.6187 30.8379 46.3453 30.9935 46.086 31.2527C45.8173 31.5214 45.6618 31.7996 45.6193 32.0871C45.5816 32.37 45.6288 32.6528 45.7608 32.9356C45.8975 33.2138 46.0931 33.4801 46.3477 33.7347C46.6116 33.9987 46.8851 34.1967 47.1679 34.3286C47.4507 34.4606 47.7336 34.5031 48.0164 34.4559C48.2993 34.4088 48.5727 34.2532 48.8367 33.9892ZM52.2981 31.5036L48.5716 27.7772L49.1514 27.1974L49.7454 27.7348C49.6936 27.5132 49.6888 27.2916 49.7313 27.0701C49.7737 26.8485 49.8515 26.6387 49.9646 26.4408C50.0778 26.2333 50.2097 26.0542 50.3606 25.9034C50.7236 25.5404 51.0818 25.333 51.4354 25.2811C51.7937 25.2245 52.1449 25.2835 52.489 25.4579C52.8331 25.6229 53.1678 25.868 53.4931 26.1933L55.5508 28.251L54.9497 28.852L53.0547 26.9569C52.8803 26.7825 52.7011 26.627 52.5173 26.4903C52.3381 26.3488 52.1519 26.2475 51.9587 26.1862C51.7701 26.1202 51.5815 26.1108 51.393 26.1579C51.1997 26.2003 51.0041 26.3206 50.8061 26.5185C50.5609 26.7637 50.4195 27.0418 50.3818 27.3529C50.3488 27.6593 50.403 27.9728 50.5444 28.2934C50.6906 28.6092 50.9074 28.9109 51.195 29.1985L52.8991 30.9026L52.2981 31.5036ZM58.4133 25.4733C58.0173 25.8693 57.6095 26.1168 57.19 26.2158C56.7657 26.31 56.3462 26.277 55.9313 26.1168C55.5165 25.9565 55.1252 25.6925 54.7575 25.3248C54.3851 24.9524 54.1235 24.5588 53.9726 24.1439C53.8218 23.7197 53.7935 23.2954 53.8878 22.8711C53.9821 22.4469 54.2178 22.0462 54.5949 21.6691C54.8872 21.3768 55.1936 21.1835 55.5141 21.0892C55.8347 20.9855 56.1552 20.9572 56.4758 21.0044C56.7964 21.0515 57.0981 21.1552 57.3809 21.3155C57.659 21.4711 57.9042 21.6643 58.1163 21.8953C58.154 21.9425 58.1917 21.9896 58.2294 22.0368C58.2718 22.0792 58.3119 22.124 58.3496 22.1711L55.5848 24.9359C55.8205 25.1339 56.0704 25.2753 56.3344 25.3602C56.5984 25.445 56.8647 25.4568 57.1334 25.3955C57.3974 25.3295 57.652 25.174 57.8971 24.9288C58.0196 24.8063 58.1281 24.6695 58.2224 24.5187C58.3166 24.3584 58.3756 24.1911 58.3991 24.0167C58.4274 23.8375 58.3991 23.6631 58.3143 23.4934L58.9295 22.8782C59.1133 23.1752 59.2052 23.4793 59.2052 23.7904C59.2005 24.0968 59.1274 24.3961 58.986 24.6884C58.8399 24.976 58.649 25.2376 58.4133 25.4733ZM55.0757 24.3985L57.2324 22.2418C57.0156 22.0344 56.7822 21.8953 56.5324 21.8246C56.2825 21.7539 56.035 21.7516 55.7899 21.8176C55.5495 21.8788 55.3232 22.0155 55.1111 22.2277C54.8801 22.4587 54.734 22.7038 54.6727 22.9631C54.6161 23.2176 54.6255 23.4675 54.701 23.7126C54.7764 23.9577 54.9013 24.1864 55.0757 24.3985ZM61.0949 22.7068L57.3685 18.9803L57.9483 18.4005L58.5564 18.9521C58.5046 18.7116 58.4951 18.4854 58.5281 18.2732C58.5658 18.0564 58.6389 17.8513 58.7473 17.658C58.8557 17.4553 58.9995 17.2644 59.1787 17.0853C59.2117 17.0523 59.2423 17.0217 59.2706 16.9934C59.3036 16.9604 59.3366 16.9274 59.3696 16.8944L59.9353 17.4601L59.7161 17.6793C59.4238 17.9715 59.2494 18.2732 59.1928 18.5844C59.1362 18.8861 59.1739 19.183 59.3059 19.4753C59.4332 19.7629 59.6241 20.0339 59.8787 20.2885L61.696 22.1058L61.0949 22.7068Z" fill="#090909"/>
<g filter="url(#filter0_ddi_483_2759)">
<mask id="path-5-inside-1_483_2759" fill="white">
<path d="M77 71C77 58.2975 87.2975 48 100 48H184C196.703 48 207 58.2975 207 71C207 83.7025 196.703 94 184 94H100C87.2975 94 77 83.7025 77 71Z"/>
</mask>
<path d="M77 71C77 58.2975 87.2975 48 100 48H184C196.703 48 207 58.2975 207 71C207 83.7025 196.703 94 184 94H100C87.2975 94 77 83.7025 77 71Z" fill="white"/>
<path d="M77 71C77 57.7452 87.7452 47 101 47H183C196.255 47 207 57.7452 207 71C207 58.8497 196.703 49 184 49H100C87.2975 49 77 58.8497 77 71ZM207 71C207 84.2548 196.255 95 183 95H101C87.7452 95 77 84.2548 77 71C77 83.1503 87.2975 93 100 93H184C196.703 93 207 83.1503 207 71ZM77 94V48V94ZM207 48V94V48Z" fill="white" fill-opacity="0.7" mask="url(#path-5-inside-1_483_2759)"/>
<path d="M116.48 78.16C115.027 78.16 113.807 77.8533 112.82 77.24C111.847 76.6267 111.113 75.78 110.62 74.7C110.127 73.62 109.88 72.3733 109.88 70.96C109.88 69.5467 110.127 68.2933 110.62 67.2C111.127 66.1067 111.867 65.2533 112.84 64.64C113.827 64.0133 115.047 63.7 116.5 63.7C117.553 63.7 118.473 63.8733 119.26 64.22C120.047 64.5533 120.68 65.0333 121.16 65.66C121.653 66.2733 121.98 67.0067 122.14 67.86H120.06C119.86 67.18 119.453 66.64 118.84 66.24C118.227 65.84 117.44 65.64 116.48 65.64C115.413 65.64 114.553 65.8867 113.9 66.38C113.26 66.8733 112.793 67.52 112.5 68.32C112.207 69.1067 112.06 69.96 112.06 70.88C112.06 71.8267 112.213 72.7067 112.52 73.52C112.827 74.3333 113.313 74.9867 113.98 75.48C114.647 75.9733 115.5 76.22 116.54 76.22C117.18 76.22 117.747 76.1333 118.24 75.96C118.733 75.7733 119.147 75.5133 119.48 75.18C119.813 74.8333 120.04 74.4333 120.16 73.98H122.38C122.207 74.8467 121.853 75.5933 121.32 76.22C120.787 76.8467 120.113 77.3267 119.3 77.66C118.487 77.9933 117.547 78.16 116.48 78.16ZM124.401 78V63.86H126.461V78H124.401ZM129.01 78V67.46H131.07V78H129.01ZM130.03 66.06C129.63 66.06 129.303 65.94 129.05 65.7C128.81 65.4467 128.69 65.1267 128.69 64.74C128.69 64.3533 128.817 64.04 129.07 63.8C129.323 63.5467 129.643 63.42 130.03 63.42C130.39 63.42 130.703 63.5467 130.97 63.8C131.25 64.04 131.39 64.3533 131.39 64.74C131.39 65.1267 131.257 65.4467 130.99 65.7C130.737 65.94 130.417 66.06 130.03 66.06ZM138.259 78.12C137.153 78.12 136.226 77.8933 135.479 77.44C134.733 76.9867 134.166 76.36 133.779 75.56C133.406 74.7467 133.219 73.8133 133.219 72.76C133.219 71.6933 133.413 70.7533 133.799 69.94C134.199 69.1267 134.773 68.4867 135.519 68.02C136.279 67.5533 137.193 67.32 138.259 67.32C139.073 67.32 139.779 67.4733 140.379 67.78C140.979 68.0733 141.473 68.4733 141.859 68.98C142.259 69.4867 142.553 70.0533 142.739 70.68C142.926 71.2933 143.006 71.9333 142.979 72.6C142.979 72.7467 142.973 72.8867 142.959 73.02C142.946 73.1533 142.933 73.2933 142.919 73.44H135.299C135.339 73.9733 135.473 74.46 135.699 74.9C135.939 75.34 136.273 75.6933 136.699 75.96C137.126 76.2133 137.653 76.34 138.279 76.34C138.626 76.34 138.959 76.3 139.279 76.22C139.613 76.1267 139.906 75.9867 140.159 75.8C140.426 75.6 140.613 75.3467 140.719 75.04H142.799C142.626 75.7467 142.313 76.3333 141.859 76.8C141.419 77.2533 140.879 77.5867 140.239 77.8C139.613 78.0133 138.953 78.12 138.259 78.12ZM135.339 71.8H140.939C140.926 71.28 140.806 70.82 140.579 70.42C140.353 70.0067 140.039 69.6867 139.639 69.46C139.239 69.22 138.759 69.1 138.199 69.1C137.586 69.1 137.073 69.2267 136.659 69.48C136.259 69.7333 135.946 70.0667 135.719 70.48C135.506 70.88 135.379 71.32 135.339 71.8ZM145.104 78V67.46H147.064L147.164 68.94C147.43 68.5533 147.75 68.2467 148.124 68.02C148.497 67.78 148.897 67.6067 149.324 67.5C149.75 67.38 150.164 67.32 150.564 67.32C151.577 67.32 152.37 67.54 152.944 67.98C153.53 68.4067 153.944 68.9867 154.184 69.72C154.437 70.44 154.564 71.26 154.564 72.18V78H152.484V72.6C152.484 72.1733 152.457 71.7533 152.404 71.34C152.35 70.9267 152.237 70.56 152.064 70.24C151.904 69.9067 151.67 69.6467 151.364 69.46C151.057 69.26 150.644 69.16 150.124 69.16C149.484 69.16 148.944 69.3333 148.504 69.68C148.064 70.0267 147.73 70.4933 147.504 71.08C147.277 71.6667 147.164 72.3267 147.164 73.06V78H145.104ZM161.098 78.12C159.964 78.12 159.151 77.8133 158.658 77.2C158.178 76.5733 157.938 75.7 157.938 74.58V69.3H156.258V67.46H157.938V64.4H159.998V67.46H163.218V69.3H159.998V74.24C159.998 74.6133 160.031 74.9533 160.098 75.26C160.178 75.5667 160.324 75.8067 160.538 75.98C160.751 76.1533 161.058 76.2467 161.458 76.26C161.764 76.26 162.031 76.2067 162.258 76.1C162.498 75.9933 162.691 75.8733 162.838 75.74L163.638 77.28C163.384 77.48 163.118 77.6467 162.838 77.78C162.571 77.9 162.291 77.9867 161.998 78.04C161.704 78.0933 161.404 78.12 161.098 78.12ZM169.063 78.12C168.57 78.12 168.077 78.0733 167.583 77.98C167.09 77.8867 166.63 77.72 166.203 77.48C165.777 77.24 165.417 76.92 165.123 76.52C164.83 76.1067 164.643 75.6 164.563 75H166.663C166.77 75.32 166.957 75.58 167.223 75.78C167.503 75.98 167.81 76.1267 168.143 76.22C168.49 76.3133 168.83 76.36 169.163 76.36C169.363 76.36 169.583 76.3467 169.823 76.32C170.077 76.2933 170.317 76.2333 170.543 76.14C170.77 76.0467 170.957 75.9133 171.103 75.74C171.25 75.5533 171.323 75.3067 171.323 75C171.323 74.76 171.257 74.56 171.123 74.4C171.003 74.24 170.83 74.1133 170.603 74.02C170.39 73.9133 170.13 73.8333 169.823 73.78C169.223 73.6467 168.577 73.52 167.883 73.4C167.203 73.2667 166.603 73.04 166.083 72.72C165.897 72.6 165.73 72.4667 165.583 72.32C165.437 72.16 165.31 71.98 165.203 71.78C165.097 71.58 165.017 71.3667 164.963 71.14C164.91 70.9133 164.883 70.6667 164.883 70.4C164.883 69.8533 164.99 69.3867 165.203 69C165.43 68.6133 165.737 68.3 166.123 68.06C166.51 67.8067 166.95 67.62 167.443 67.5C167.937 67.38 168.457 67.32 169.003 67.32C169.71 67.32 170.35 67.4333 170.923 67.66C171.497 67.8867 171.97 68.22 172.343 68.66C172.717 69.1 172.937 69.6533 173.003 70.32H171.063C170.983 69.96 170.75 69.6733 170.363 69.46C169.99 69.2333 169.517 69.12 168.943 69.12C168.743 69.12 168.523 69.1333 168.283 69.16C168.057 69.1867 167.837 69.2467 167.623 69.34C167.41 69.4333 167.237 69.5667 167.103 69.74C166.97 69.9 166.903 70.1133 166.903 70.38C166.903 70.6333 166.963 70.8467 167.083 71.02C167.217 71.1933 167.403 71.3333 167.643 71.44C167.897 71.5467 168.183 71.6333 168.503 71.7C168.957 71.8067 169.443 71.9067 169.963 72C170.497 72.0933 170.93 72.1933 171.263 72.3C171.703 72.42 172.077 72.5933 172.383 72.82C172.703 73.0467 172.943 73.3333 173.103 73.68C173.277 74.0267 173.363 74.4467 173.363 74.94C173.363 75.58 173.237 76.1067 172.983 76.52C172.73 76.92 172.39 77.24 171.963 77.48C171.55 77.72 171.083 77.8867 170.563 77.98C170.057 78.0733 169.557 78.12 169.063 78.12Z" fill="#090909"/>
</g>
<g filter="url(#filter1_ddi_483_2759)">
<mask id="path-8-inside-2_483_2759" fill="white">
<path d="M140 141C140 128.297 150.297 118 163 118H249C261.703 118 272 128.297 272 141C272 153.703 261.703 164 249 164H163C150.297 164 140 153.703 140 141Z"/>
</mask>
<path d="M140 141C140 128.297 150.297 118 163 118H249C261.703 118 272 128.297 272 141C272 153.703 261.703 164 249 164H163C150.297 164 140 153.703 140 141Z" fill="white"/>
<path d="M140 141C140 127.745 150.745 117 164 117H248C261.255 117 272 127.745 272 141C272 128.85 261.703 119 249 119H163C150.297 119 140 128.85 140 141ZM272 141C272 154.255 261.255 165 248 165H164C150.745 165 140 154.255 140 141C140 153.15 150.297 163 163 163H249C261.703 163 272 153.15 272 141ZM140 164V118V164ZM272 118V164V118Z" fill="white" fill-opacity="0.7" mask="url(#path-8-inside-2_483_2759)"/>
<path d="M176.72 148V135.8H172.24V133.86H183.3V135.8H178.84V148H176.72ZM186.991 148.12C186.511 148.12 186.044 148.06 185.591 147.94C185.151 147.807 184.758 147.613 184.411 147.36C184.064 147.093 183.784 146.767 183.571 146.38C183.371 145.98 183.271 145.513 183.271 144.98C183.271 144.34 183.391 143.813 183.631 143.4C183.884 142.973 184.218 142.647 184.631 142.42C185.044 142.18 185.518 142.013 186.051 141.92C186.598 141.813 187.164 141.76 187.751 141.76H190.331C190.331 141.24 190.251 140.787 190.091 140.4C189.931 140 189.678 139.693 189.331 139.48C188.998 139.253 188.551 139.14 187.991 139.14C187.658 139.14 187.338 139.18 187.031 139.26C186.738 139.327 186.484 139.44 186.271 139.6C186.058 139.76 185.911 139.973 185.831 140.24H183.671C183.751 139.733 183.931 139.3 184.211 138.94C184.491 138.567 184.838 138.26 185.251 138.02C185.664 137.78 186.104 137.607 186.571 137.5C187.051 137.38 187.538 137.32 188.031 137.32C189.551 137.32 190.644 137.767 191.311 138.66C191.991 139.54 192.331 140.753 192.331 142.3V148H190.551L190.471 146.66C190.164 147.073 189.798 147.387 189.371 147.6C188.958 147.813 188.544 147.953 188.131 148.02C187.718 148.087 187.338 148.12 186.991 148.12ZM187.311 146.38C187.911 146.38 188.438 146.28 188.891 146.08C189.344 145.867 189.698 145.567 189.951 145.18C190.204 144.78 190.331 144.313 190.331 143.78V143.34H188.451C188.064 143.34 187.684 143.353 187.311 143.38C186.951 143.393 186.618 143.447 186.311 143.54C186.018 143.62 185.778 143.76 185.591 143.96C185.418 144.16 185.331 144.447 185.331 144.82C185.331 145.18 185.424 145.473 185.611 145.7C185.798 145.927 186.044 146.1 186.351 146.22C186.658 146.327 186.978 146.38 187.311 146.38ZM194.803 148V133.86H196.863V148H194.803ZM204.052 148.12C202.946 148.12 202.019 147.893 201.272 147.44C200.526 146.987 199.959 146.36 199.572 145.56C199.199 144.747 199.012 143.813 199.012 142.76C199.012 141.693 199.206 140.753 199.592 139.94C199.992 139.127 200.566 138.487 201.312 138.02C202.072 137.553 202.986 137.32 204.052 137.32C204.866 137.32 205.572 137.473 206.172 137.78C206.772 138.073 207.266 138.473 207.652 138.98C208.052 139.487 208.346 140.053 208.532 140.68C208.719 141.293 208.799 141.933 208.772 142.6C208.772 142.747 208.766 142.887 208.752 143.02C208.739 143.153 208.726 143.293 208.712 143.44H201.092C201.132 143.973 201.266 144.46 201.492 144.9C201.732 145.34 202.066 145.693 202.492 145.96C202.919 146.213 203.446 146.34 204.072 146.34C204.419 146.34 204.752 146.3 205.072 146.22C205.406 146.127 205.699 145.987 205.952 145.8C206.219 145.6 206.406 145.347 206.512 145.04H208.592C208.419 145.747 208.106 146.333 207.652 146.8C207.212 147.253 206.672 147.587 206.032 147.8C205.406 148.013 204.746 148.12 204.052 148.12ZM201.132 141.8H206.732C206.719 141.28 206.599 140.82 206.372 140.42C206.146 140.007 205.832 139.687 205.432 139.46C205.032 139.22 204.552 139.1 203.992 139.1C203.379 139.1 202.866 139.227 202.452 139.48C202.052 139.733 201.739 140.067 201.512 140.48C201.299 140.88 201.172 141.32 201.132 141.8ZM210.897 148V137.46H212.857L212.957 138.94C213.223 138.553 213.543 138.247 213.917 138.02C214.29 137.78 214.69 137.607 215.117 137.5C215.543 137.38 215.957 137.32 216.357 137.32C217.37 137.32 218.163 137.54 218.737 137.98C219.323 138.407 219.737 138.987 219.977 139.72C220.23 140.44 220.357 141.26 220.357 142.18V148H218.277V142.6C218.277 142.173 218.25 141.753 218.197 141.34C218.143 140.927 218.03 140.56 217.857 140.24C217.697 139.907 217.463 139.647 217.157 139.46C216.85 139.26 216.437 139.16 215.917 139.16C215.277 139.16 214.737 139.333 214.297 139.68C213.857 140.027 213.523 140.493 213.297 141.08C213.07 141.667 212.957 142.327 212.957 143.06V148H210.897ZM226.891 148.12C225.757 148.12 224.944 147.813 224.451 147.2C223.971 146.573 223.731 145.7 223.731 144.58V139.3H222.051V137.46H223.731V134.4H225.791V137.46H229.011V139.3H225.791V144.24C225.791 144.613 225.824 144.953 225.891 145.26C225.971 145.567 226.117 145.807 226.331 145.98C226.544 146.153 226.851 146.247 227.251 146.26C227.557 146.26 227.824 146.207 228.051 146.1C228.291 145.993 228.484 145.873 228.631 145.74L229.431 147.28C229.177 147.48 228.911 147.647 228.631 147.78C228.364 147.9 228.084 147.987 227.791 148.04C227.497 148.093 227.197 148.12 226.891 148.12ZM234.856 148.12C234.363 148.12 233.87 148.073 233.376 147.98C232.883 147.887 232.423 147.72 231.996 147.48C231.57 147.24 231.21 146.92 230.916 146.52C230.623 146.107 230.436 145.6 230.356 145H232.456C232.563 145.32 232.75 145.58 233.016 145.78C233.296 145.98 233.603 146.127 233.936 146.22C234.283 146.313 234.623 146.36 234.956 146.36C235.156 146.36 235.376 146.347 235.616 146.32C235.87 146.293 236.11 146.233 236.336 146.14C236.563 146.047 236.75 145.913 236.896 145.74C237.043 145.553 237.116 145.307 237.116 145C237.116 144.76 237.05 144.56 236.916 144.4C236.796 144.24 236.623 144.113 236.396 144.02C236.183 143.913 235.923 143.833 235.616 143.78C235.016 143.647 234.37 143.52 233.676 143.4C232.996 143.267 232.396 143.04 231.876 142.72C231.69 142.6 231.523 142.467 231.376 142.32C231.23 142.16 231.103 141.98 230.996 141.78C230.89 141.58 230.81 141.367 230.756 141.14C230.703 140.913 230.676 140.667 230.676 140.4C230.676 139.853 230.783 139.387 230.996 139C231.223 138.613 231.53 138.3 231.916 138.06C232.303 137.807 232.743 137.62 233.236 137.5C233.73 137.38 234.25 137.32 234.796 137.32C235.503 137.32 236.143 137.433 236.716 137.66C237.29 137.887 237.763 138.22 238.136 138.66C238.51 139.1 238.73 139.653 238.796 140.32H236.856C236.776 139.96 236.543 139.673 236.156 139.46C235.783 139.233 235.31 139.12 234.736 139.12C234.536 139.12 234.316 139.133 234.076 139.16C233.85 139.187 233.63 139.247 233.416 139.34C233.203 139.433 233.03 139.567 232.896 139.74C232.763 139.9 232.696 140.113 232.696 140.38C232.696 140.633 232.756 140.847 232.876 141.02C233.01 141.193 233.196 141.333 233.436 141.44C233.69 141.547 233.976 141.633 234.296 141.7C234.75 141.807 235.236 141.907 235.756 142C236.29 142.093 236.723 142.193 237.056 142.3C237.496 142.42 237.87 142.593 238.176 142.82C238.496 143.047 238.736 143.333 238.896 143.68C239.07 144.027 239.156 144.447 239.156 144.94C239.156 145.58 239.03 146.107 238.776 146.52C238.523 146.92 238.183 147.24 237.756 147.48C237.343 147.72 236.876 147.887 236.356 147.98C235.85 148.073 235.35 148.12 234.856 148.12Z" fill="#090909"/>
</g>
<path d="M215 71.5464L220.269 73.9056L219.678 68.1625L215 71.5464ZM256 117.546L259.659 113.08L253.962 112.145L256 117.546ZM219.507 71.5843C232.536 70.8104 242.394 75.4168 248.655 83.0594C254.926 90.7135 257.632 101.466 256.233 113.047L257.226 113.167C258.651 101.369 255.904 90.3291 249.429 82.4256C242.945 74.5106 232.764 69.7951 219.447 70.5861L219.507 71.5843Z" fill="#090909"/>
<path d="M90.5464 99L92.9056 104.269L87.1625 103.678L90.5464 99ZM136.546 140L132.08 143.659L131.145 137.962L136.546 140ZM90.5843 103.507C89.8104 116.536 94.4168 126.394 102.059 132.655C109.713 138.926 120.466 141.632 132.047 140.233L132.167 141.226C120.369 142.651 109.329 139.904 101.426 133.429C93.5106 126.945 88.7951 116.764 89.5861 103.447L90.5843 103.507Z" fill="#090909"/>
<rect x="266.092" y="4.70711" width="110" height="26" rx="13" transform="rotate(45 266.092 4.70711)" fill="white"/>
<rect x="266.092" y="4.70711" width="110" height="26" rx="13" transform="rotate(45 266.092 4.70711)" stroke="#DBE1E7"/>
<circle cx="270.688" cy="27.6881" r="4" transform="rotate(45 270.688 27.6881)" fill="#090909"/>
<path d="M277.599 39.5487L282.598 34.5494L285.957 37.9082L285.398 38.4668L282.655 35.7232L280.781 37.5971L283.178 39.9941L282.612 40.5598L280.215 38.1627L278.214 40.1638L277.599 39.5487ZM281.973 43.9231L285.7 40.1966L286.279 40.7764L285.728 41.3845C285.968 41.3327 286.195 41.3233 286.407 41.3563C286.624 41.394 286.829 41.467 287.022 41.5755C287.225 41.6839 287.416 41.8277 287.595 42.0068C287.628 42.0398 287.658 42.0704 287.687 42.0987C287.72 42.1317 287.753 42.1647 287.786 42.1977L287.22 42.7634L287.001 42.5442C286.708 42.2519 286.407 42.0775 286.096 42.0209C285.794 41.9644 285.497 42.0021 285.205 42.1341C284.917 42.2614 284.646 42.4523 284.391 42.7068L282.574 44.5241L281.973 43.9231ZM286.409 48.4435C286.017 48.0522 285.77 47.6444 285.666 47.2202C285.567 46.7912 285.596 46.3669 285.751 45.9474C285.911 45.5325 286.175 45.1413 286.543 44.7736C286.915 44.4012 287.309 44.1395 287.724 43.9887C288.143 43.8331 288.568 43.8048 288.997 43.9038C289.426 44.0028 289.838 44.2503 290.234 44.6463C290.625 45.0376 290.868 45.4453 290.962 45.8696C291.061 46.2986 291.031 46.7205 290.871 47.1353C290.72 47.5502 290.458 47.9438 290.086 48.3162C289.718 48.6839 289.324 48.9455 288.905 49.1011C288.485 49.2566 288.061 49.2849 287.632 49.1859C287.212 49.0869 286.805 48.8394 286.409 48.4435ZM286.939 47.9131C287.212 48.1865 287.495 48.3468 287.788 48.394C288.085 48.4458 288.377 48.4081 288.664 48.2808C288.957 48.1583 289.23 47.9697 289.485 47.7151C289.739 47.4606 289.928 47.1872 290.05 46.8949C290.178 46.6073 290.215 46.3151 290.163 46.0181C290.116 45.7258 289.956 45.443 289.683 45.1696C289.414 44.9009 289.131 44.7406 288.834 44.6887C288.542 44.6416 288.25 44.6793 287.957 44.8019C287.67 44.9291 287.399 45.1201 287.144 45.3746C286.89 45.6292 286.699 45.9002 286.571 46.1878C286.449 46.4801 286.411 46.7723 286.458 47.0646C286.51 47.3616 286.67 47.6444 286.939 47.9131ZM289.313 51.2629L293.039 47.5364L293.619 48.1163L293.082 48.7102C293.303 48.6584 293.525 48.6537 293.747 48.6961C293.968 48.7385 294.178 48.8163 294.376 48.9294C294.583 49.0426 294.762 49.1746 294.913 49.3254C295.276 49.6884 295.484 50.0467 295.536 50.4002C295.592 50.7585 295.533 51.1097 295.359 51.4538C295.194 51.7979 294.949 52.1326 294.623 52.4579L292.566 54.5156L291.965 53.9145L293.86 52.0195C294.034 51.8451 294.19 51.6659 294.326 51.4821C294.468 51.303 294.569 51.1167 294.63 50.9235C294.696 50.7349 294.706 50.5463 294.659 50.3578C294.616 50.1645 294.496 49.9689 294.298 49.7709C294.053 49.5258 293.775 49.3843 293.464 49.3466C293.157 49.3136 292.844 49.3678 292.523 49.5093C292.207 49.6554 291.906 49.8722 291.618 50.1598L289.914 51.8639L289.313 51.2629ZM295.131 57.166C294.74 56.7747 294.57 56.3929 294.622 56.0204C294.679 55.6527 294.903 55.2733 295.294 54.882L297.309 52.8667L296.701 52.2586L297.231 51.7283L297.839 52.3364L298.957 51.2192L299.558 51.8202L298.44 52.9375L299.586 54.083L299.056 54.6133L297.91 53.4678L295.973 55.4053C295.831 55.5467 295.713 55.6881 295.619 55.8295C295.53 55.9662 295.487 56.1077 295.492 56.2538C295.501 56.3952 295.579 56.5437 295.725 56.6993C295.834 56.8077 295.947 56.8831 296.065 56.9255C296.187 56.9727 296.303 56.9986 296.411 57.0033L296.234 57.7034C296.088 57.6892 295.949 57.6586 295.817 57.6114C295.69 57.569 295.57 57.5101 295.456 57.4347C295.348 57.3639 295.24 57.2744 295.131 57.166ZM298.43 60.4645C298.034 60.0685 297.786 59.6608 297.687 59.2412C297.593 58.8169 297.626 58.3974 297.786 57.9826C297.947 57.5677 298.211 57.1765 298.578 56.8088C298.951 56.4363 299.344 56.1747 299.759 56.0239C300.183 55.873 300.608 55.8447 301.032 55.939C301.456 56.0333 301.857 56.269 302.234 56.6461C302.526 56.9384 302.72 57.2448 302.814 57.5654C302.918 57.8859 302.946 58.2065 302.899 58.527C302.852 58.8476 302.748 59.1493 302.588 59.4321C302.432 59.7103 302.239 59.9554 302.008 60.1675C301.961 60.2052 301.913 60.2429 301.866 60.2807C301.824 60.3231 301.779 60.3631 301.732 60.4009L298.967 57.6361C298.769 57.8718 298.628 58.1216 298.543 58.3856C298.458 58.6496 298.446 58.9159 298.508 59.1846C298.574 59.4486 298.729 59.7032 298.974 59.9483C299.097 60.0709 299.233 60.1793 299.384 60.2736C299.545 60.3679 299.712 60.4268 299.886 60.4504C300.066 60.4786 300.24 60.4504 300.41 60.3655L301.025 60.9807C300.728 61.1645 300.424 61.2565 300.113 61.2565C299.806 61.2517 299.507 61.1787 299.215 61.0373C298.927 60.8911 298.665 60.7002 298.43 60.4645ZM299.505 57.127L301.661 59.2836C301.869 59.0668 302.008 58.8334 302.078 58.5836C302.149 58.3338 302.151 58.0863 302.085 57.8411C302.024 57.6007 301.887 57.3744 301.675 57.1623C301.444 56.9313 301.199 56.7852 300.94 56.7239C300.685 56.6673 300.436 56.6768 300.19 56.7522C299.945 56.8276 299.717 56.9525 299.505 57.127ZM302.646 64.6806C302.273 64.3082 302.049 63.9193 301.974 63.5138C301.903 63.1037 301.95 62.6983 302.115 62.2976C302.285 61.8922 302.549 61.5104 302.907 61.1521C303.266 60.7938 303.648 60.5299 304.053 60.3601C304.463 60.1857 304.876 60.1362 305.29 60.2117C305.705 60.2871 306.104 60.5157 306.485 60.8975C306.632 61.0437 306.759 61.2087 306.867 61.3925C306.985 61.5764 307.072 61.772 307.129 61.9794C307.19 62.1821 307.207 62.3919 307.178 62.6087L308.918 60.8693L309.519 61.4703L304.52 66.4695L303.947 65.8968L304.477 65.3099C304.251 65.3665 304.027 65.3735 303.805 65.3311C303.593 65.2887 303.388 65.2109 303.19 65.0978C302.992 64.9846 302.811 64.8456 302.646 64.6806ZM303.261 64.2351C303.511 64.4849 303.784 64.6311 304.081 64.6735C304.378 64.7159 304.678 64.6759 304.979 64.5533C305.281 64.4307 305.557 64.2445 305.807 63.9947C306.066 63.7354 306.252 63.4596 306.365 63.1674C306.483 62.8798 306.516 62.5922 306.464 62.3047C306.412 62.0171 306.257 61.7437 305.997 61.4844C305.729 61.2157 305.451 61.0602 305.163 61.0178C304.88 60.98 304.595 61.0295 304.308 61.1662C304.029 61.303 303.761 61.5009 303.501 61.7602C303.313 61.9488 303.155 62.1444 303.028 62.3471C302.91 62.5498 302.83 62.7572 302.787 62.9694C302.754 63.1815 302.773 63.3936 302.844 63.6058C302.915 63.8179 303.054 64.0277 303.261 64.2351ZM308.077 70.0266L313.076 65.0274L314.851 66.8022C315.369 67.3208 315.697 67.8605 315.834 68.4215C315.975 68.9778 315.944 69.5317 315.742 70.0832C315.548 70.6347 315.202 71.1604 314.702 71.66C314.207 72.155 313.684 72.5039 313.133 72.7066C312.586 72.9046 312.032 72.9352 311.471 72.7985C310.915 72.6571 310.375 72.3247 309.852 71.8015L308.077 70.0266ZM309.251 70.0832L310.368 71.2004C310.773 71.6058 311.188 71.8557 311.612 71.95C312.037 72.0442 312.456 72.0112 312.871 71.851C313.29 71.686 313.691 71.4126 314.073 71.0307C314.445 70.6583 314.714 70.2623 314.879 69.8428C315.049 69.4279 315.091 69.0084 315.006 68.5841C314.922 68.1599 314.681 67.7497 314.285 67.3538L313.133 66.2012L309.251 70.0832ZM314.877 76.9119C314.481 76.5159 314.234 76.1082 314.135 75.6886C314.04 75.2644 314.073 74.8448 314.234 74.43C314.394 74.0151 314.658 73.6239 315.026 73.2562C315.398 72.8838 315.792 72.6221 316.207 72.4713C316.631 72.3204 317.055 72.2921 317.479 72.3864C317.904 72.4807 318.304 72.7164 318.681 73.0935C318.974 73.3858 319.167 73.6922 319.261 74.0128C319.365 74.3333 319.393 74.6539 319.346 74.9744C319.299 75.295 319.195 75.5967 319.035 75.8795C318.879 76.1577 318.686 76.4028 318.455 76.6149C318.408 76.6526 318.361 76.6904 318.314 76.7281C318.271 76.7705 318.226 76.8106 318.179 76.8483L315.415 74.0835C315.217 74.3192 315.075 74.569 314.99 74.833C314.905 75.097 314.894 75.3633 314.955 75.632C315.021 75.896 315.176 76.1506 315.422 76.3957C315.544 76.5183 315.681 76.6267 315.832 76.721C315.992 76.8153 316.159 76.8742 316.334 76.8978C316.513 76.9261 316.687 76.8978 316.857 76.8129L317.472 77.4281C317.175 77.6119 316.871 77.7039 316.56 77.7039C316.254 77.6992 315.954 77.6261 315.662 77.4847C315.374 77.3385 315.113 77.1476 314.877 76.9119ZM315.952 73.5744L318.109 75.731C318.316 75.5142 318.455 75.2809 318.526 75.031C318.597 74.7812 318.599 74.5337 318.533 74.2885C318.472 74.0481 318.335 73.8219 318.123 73.6097C317.892 73.3787 317.647 73.2326 317.387 73.1713C317.133 73.1147 316.883 73.1242 316.638 73.1996C316.393 73.275 316.164 73.3999 315.952 73.5744ZM318.655 80.6047L320.946 75.4428L321.625 76.1217L319.652 80.4421L323.951 78.448L324.637 79.1339L319.475 81.425L318.655 80.6047Z" fill="#090909"/>
<rect x="26.0918" y="100.707" width="131" height="26" rx="13" transform="rotate(45 26.0918 100.707)" fill="white"/>
<rect x="26.0918" y="100.707" width="131" height="26" rx="13" transform="rotate(45 26.0918 100.707)" stroke="#DBE1E7"/>
<circle cx="30.6875" cy="123.688" r="4" transform="rotate(45 30.6875 123.688)" fill="#090909"/>
<path d="M37.6318 135.582L42.631 130.582L44.3634 132.315C44.7311 132.683 44.9857 133.06 45.1271 133.446C45.2732 133.828 45.2921 134.21 45.1837 134.592C45.08 134.978 44.8395 135.36 44.4624 135.737C44.0947 136.105 43.7011 136.334 43.2816 136.423C42.8714 136.513 42.4613 136.48 42.0512 136.324C41.6411 136.169 41.2522 135.907 40.8845 135.539L39.8945 134.549L38.247 136.197L37.6318 135.582ZM40.4531 133.991L41.4148 134.952C41.7966 135.334 42.195 135.553 42.6098 135.61C43.0341 135.667 43.4513 135.49 43.8614 135.08C44.2196 134.721 44.3917 134.356 44.3776 133.984C44.3634 133.611 44.1631 133.232 43.7765 132.845L42.6876 131.756L40.4531 133.991ZM42.2271 140.177L45.9536 136.451L46.5334 137.03L45.9819 137.639C46.2223 137.587 46.4486 137.577 46.6607 137.61C46.8775 137.648 47.0826 137.721 47.2759 137.829C47.4786 137.938 47.6695 138.082 47.8486 138.261C47.8816 138.294 47.9123 138.324 47.9406 138.353C47.9736 138.386 48.0066 138.419 48.0396 138.452L47.4739 139.017L47.2547 138.798C46.9624 138.506 46.6607 138.331 46.3496 138.275C46.0479 138.218 45.7509 138.256 45.4586 138.388C45.1711 138.515 44.9 138.706 44.6454 138.961L42.8282 140.778L42.2271 140.177ZM46.6627 144.697C46.2714 144.306 46.0239 143.898 45.9202 143.474C45.8212 143.045 45.8495 142.621 46.0051 142.201C46.1654 141.787 46.4293 141.395 46.797 141.028C47.1694 140.655 47.5631 140.394 47.9779 140.243C48.3975 140.087 48.8217 140.059 49.2507 140.158C49.6797 140.257 50.0922 140.504 50.4881 140.9C50.8794 141.292 51.1222 141.699 51.2165 142.124C51.3154 142.553 51.2848 142.974 51.1245 143.389C50.9737 143.804 50.712 144.198 50.3396 144.57C49.9719 144.938 49.5783 145.199 49.1588 145.355C48.7392 145.511 48.315 145.539 47.886 145.44C47.4664 145.341 47.0587 145.093 46.6627 144.697ZM47.193 144.167C47.4664 144.441 47.7493 144.601 48.0415 144.648C48.3385 144.7 48.6308 144.662 48.9184 144.535C49.2106 144.412 49.484 144.224 49.7386 143.969C49.9932 143.715 50.1817 143.441 50.3043 143.149C50.4316 142.861 50.4693 142.569 50.4174 142.272C50.3703 141.98 50.21 141.697 49.9366 141.424C49.6679 141.155 49.385 140.995 49.0881 140.943C48.7958 140.896 48.5035 140.933 48.2112 141.056C47.9237 141.183 47.6526 141.374 47.3981 141.629C47.1435 141.883 46.9526 142.154 46.8253 142.442C46.7028 142.734 46.665 143.026 46.7122 143.319C46.764 143.616 46.9243 143.898 47.193 144.167ZM47.6012 148.097L48.1245 147.573L48.379 147.828C48.5487 147.998 48.7066 148.099 48.8528 148.132C49.0036 148.17 49.1521 148.149 49.2983 148.068C49.4444 147.998 49.5976 147.882 49.7579 147.722L53.4914 143.988L54.0924 144.589L50.2953 148.387C50.0219 148.66 49.7555 148.846 49.4962 148.945C49.2417 149.049 48.9871 149.058 48.7326 148.974C48.478 148.889 48.2093 148.705 47.9265 148.422L47.6012 148.097ZM54.3399 143.734C54.2174 143.611 54.1561 143.475 54.1561 143.324C54.1608 143.178 54.2221 143.046 54.3399 142.928C54.4578 142.81 54.5898 142.753 54.7359 142.758C54.8868 142.758 55.0211 142.817 55.139 142.935C55.2474 143.043 55.304 143.175 55.3087 143.331C55.3181 143.491 55.2662 143.628 55.1531 143.741C55.0353 143.859 54.8985 143.915 54.743 143.911C54.5874 143.906 54.4531 143.847 54.3399 143.734ZM53.215 151.25C52.819 150.854 52.5715 150.446 52.4725 150.026C52.3782 149.602 52.4112 149.183 52.5715 148.768C52.7318 148.353 52.9958 147.962 53.3635 147.594C53.7359 147.222 54.1295 146.96 54.5443 146.809C54.9686 146.658 55.3929 146.63 55.8171 146.724C56.2414 146.819 56.6421 147.054 57.0192 147.431C57.3115 147.724 57.5047 148.03 57.599 148.351C57.7027 148.671 57.731 148.992 57.6839 149.312C57.6367 149.633 57.533 149.935 57.3728 150.217C57.2172 150.495 57.0239 150.741 56.7929 150.953C56.7458 150.99 56.6986 151.028 56.6515 151.066C56.6091 151.108 56.5643 151.148 56.5172 151.186L53.7524 148.421C53.5544 148.657 53.413 148.907 53.3281 149.171C53.2433 149.435 53.2315 149.701 53.2927 149.97C53.3587 150.234 53.5143 150.488 53.7594 150.734C53.882 150.856 54.0187 150.965 54.1696 151.059C54.3298 151.153 54.4972 151.212 54.6716 151.236C54.8507 151.264 55.0252 151.236 55.1949 151.151L55.81 151.766C55.5131 151.95 55.209 152.042 54.8979 152.042C54.5915 152.037 54.2921 151.964 53.9999 151.822C53.7123 151.676 53.4507 151.485 53.215 151.25ZM54.2898 147.912L56.4464 150.069C56.6539 149.852 56.7929 149.619 56.8636 149.369C56.9343 149.119 56.9367 148.871 56.8707 148.626C56.8094 148.386 56.6727 148.16 56.4606 147.948C56.2296 147.717 55.9845 147.57 55.7252 147.509C55.4706 147.453 55.2208 147.462 54.9757 147.537C54.7305 147.613 54.5019 147.738 54.2898 147.912ZM57.5991 155.634C57.2078 155.243 56.9627 154.837 56.8637 154.418C56.7741 153.998 56.8095 153.581 56.9698 153.166C57.1347 152.756 57.3987 152.369 57.7617 152.006C58.1153 151.653 58.4995 151.396 58.9143 151.236C59.3386 151.075 59.7675 151.042 60.2012 151.137C60.6444 151.231 61.071 151.483 61.4811 151.893C61.7357 152.148 61.9195 152.417 62.0326 152.699C62.1505 152.987 62.1929 153.279 62.1599 153.576C62.1316 153.868 62.0209 154.163 61.8276 154.46L61.2124 153.845C61.3491 153.567 61.3821 153.307 61.3114 153.067C61.2501 152.827 61.1158 152.603 60.9083 152.395C60.6255 152.112 60.3332 151.952 60.0315 151.914C59.7298 151.877 59.4328 151.924 59.1406 152.056C58.8577 152.188 58.5985 152.372 58.3628 152.607C58.1176 152.853 57.9314 153.119 57.8041 153.406C57.6769 153.694 57.6344 153.986 57.6769 154.283C57.724 154.576 57.8819 154.856 58.1506 155.125C58.3486 155.323 58.5772 155.466 58.8365 155.556C59.1005 155.65 59.3692 155.617 59.6426 155.457L60.2649 156.079C59.9632 156.287 59.652 156.395 59.3315 156.405C59.0157 156.419 58.7069 156.355 58.4052 156.214C58.1129 156.072 57.8442 155.879 57.5991 155.634ZM61.5994 159.634C61.2082 159.243 61.0385 158.861 61.0903 158.489C61.1469 158.121 61.3708 157.742 61.7621 157.35L63.7773 155.335L63.1692 154.727L63.6995 154.197L64.3076 154.805L65.4249 153.687L66.0259 154.288L64.9087 155.406L66.0542 156.551L65.5239 157.082L64.3784 155.936L62.4409 157.873C62.2995 158.015 62.1816 158.156 62.0873 158.298C61.9978 158.434 61.9553 158.576 61.9601 158.722C61.9695 158.863 62.0473 159.012 62.1934 159.167C62.3018 159.276 62.415 159.351 62.5328 159.394C62.6554 159.441 62.7709 159.467 62.8793 159.472L62.7025 160.172C62.5564 160.157 62.4173 160.127 62.2853 160.08C62.158 160.037 62.0378 159.978 61.9247 159.903C61.8163 159.832 61.7079 159.743 61.5994 159.634ZM65.6583 163.608L70.6576 158.609L71.591 159.542L70.3394 163.792L74.5679 162.519L75.48 163.431L70.4808 168.431L69.8656 167.816L74.2143 163.467L69.5262 164.86L69.2434 164.577L70.6222 159.875L66.2735 164.223L65.6583 163.608ZM73.0083 171.043C72.8386 170.873 72.6948 170.687 72.577 170.484C72.4686 170.282 72.3955 170.072 72.3578 169.855C72.3295 169.638 72.346 169.424 72.4073 169.212C72.478 169 72.6053 168.802 72.7891 168.618C73.0012 168.406 73.2181 168.264 73.4397 168.193C73.6659 168.127 73.8875 168.118 74.1043 168.165C74.3212 168.212 74.5357 168.304 74.7478 168.441C74.9599 168.578 75.1603 168.74 75.3488 168.929L76.4449 170.025C76.657 169.813 76.8102 169.598 76.9045 169.381C77.0035 169.169 77.0294 168.955 76.9823 168.738C76.9398 168.516 76.8102 168.297 76.5934 168.08C76.4614 167.948 76.3247 167.84 76.1832 167.755C76.0418 167.67 75.9004 167.618 75.759 167.599C75.6175 167.581 75.4761 167.604 75.3347 167.67L74.6912 167.027C74.8939 166.89 75.1014 166.81 75.3135 166.786C75.535 166.763 75.7519 166.782 75.964 166.843C76.1856 166.904 76.3954 166.996 76.5934 167.119C76.7913 167.241 76.9705 167.383 77.1308 167.543C77.6682 168.08 77.8921 168.62 77.8025 169.162C77.7129 169.704 77.3995 170.244 76.8621 170.781L74.8468 172.797L74.3448 172.295L74.7832 171.786C74.538 171.823 74.3047 171.807 74.0831 171.736C73.8616 171.665 73.6612 171.564 73.4821 171.432C73.3029 171.309 73.145 171.18 73.0083 171.043ZM73.5952 170.569C73.8309 170.805 74.0713 170.97 74.3165 171.064C74.571 171.159 74.8209 171.177 75.066 171.121C75.3111 171.064 75.5421 170.928 75.759 170.711L75.9428 170.527L75.2852 169.869C75.1296 169.714 74.9741 169.563 74.8185 169.417C74.6629 169.271 74.5074 169.153 74.3518 169.063C74.1963 168.974 74.0407 168.931 73.8851 168.936C73.7343 168.945 73.5834 169.025 73.4326 169.176C73.2912 169.318 73.211 169.469 73.1922 169.629C73.178 169.794 73.2063 169.959 73.277 170.124C73.3572 170.289 73.4632 170.437 73.5952 170.569ZM76.0608 174.011L79.7873 170.284L80.3671 170.864L79.8297 171.458C80.0513 171.406 80.2728 171.401 80.4944 171.444C80.7159 171.486 80.9257 171.564 81.1237 171.677C81.3311 171.79 81.5102 171.922 81.6611 172.073C82.0241 172.436 82.2315 172.794 82.2834 173.148C82.3399 173.506 82.281 173.858 82.1066 174.202C81.9416 174.546 81.6965 174.88 81.3712 175.206L79.3135 177.263L78.7125 176.662L80.6075 174.767C80.7819 174.593 80.9375 174.414 81.0742 174.23C81.2156 174.051 81.317 173.865 81.3783 173.671C81.4443 173.483 81.4537 173.294 81.4065 173.106C81.3641 172.912 81.2439 172.717 81.0459 172.519C80.8008 172.274 80.5227 172.132 80.2115 172.094C79.9051 172.061 79.5916 172.116 79.2711 172.257C78.9552 172.403 78.6535 172.62 78.366 172.908L76.6619 174.612L76.0608 174.011ZM81.674 179.709C81.5043 179.539 81.3605 179.353 81.2426 179.15C81.1342 178.947 81.0611 178.738 81.0234 178.521C80.9951 178.304 81.0116 178.089 81.0729 177.877C81.1436 177.665 81.2709 177.467 81.4548 177.283C81.6669 177.071 81.8837 176.93 82.1053 176.859C82.3316 176.793 82.5531 176.784 82.77 176.831C82.9868 176.878 83.2013 176.97 83.4135 177.107C83.6256 177.243 83.8259 177.406 84.0145 177.594L85.1105 178.69C85.3226 178.478 85.4758 178.264 85.5701 178.047C85.6691 177.835 85.6951 177.62 85.6479 177.404C85.6055 177.182 85.4758 176.963 85.259 176.746C85.127 176.614 84.9903 176.506 84.8489 176.421C84.7075 176.336 84.566 176.284 84.4246 176.265C84.2832 176.246 84.1418 176.27 84.0004 176.336L83.3569 175.692C83.5596 175.556 83.767 175.476 83.9791 175.452C84.2007 175.428 84.4175 175.447 84.6297 175.509C84.8512 175.57 85.061 175.662 85.259 175.784C85.457 175.907 85.6361 176.048 85.7964 176.209C86.3338 176.746 86.5577 177.286 86.4682 177.828C86.3786 178.37 86.0651 178.91 85.5277 179.447L83.5124 181.462L83.0104 180.96L83.4488 180.451C83.2037 180.489 82.9703 180.472 82.7488 180.402C82.5272 180.331 82.3269 180.23 82.1477 180.098C81.9686 179.975 81.8107 179.845 81.674 179.709ZM82.2609 179.235C82.4966 179.471 82.737 179.636 82.9821 179.73C83.2367 179.824 83.4865 179.843 83.7317 179.787C83.9768 179.73 84.2078 179.593 84.4246 179.376L84.6085 179.193L83.9509 178.535C83.7953 178.379 83.6397 178.229 83.4842 178.082C83.3286 177.936 83.173 177.818 83.0175 177.729C82.8619 177.639 82.7063 177.597 82.5508 177.602C82.3999 177.611 82.2491 177.691 82.0982 177.842C81.9568 177.983 81.8767 178.134 81.8578 178.295C81.8437 178.46 81.872 178.625 81.9427 178.789C82.0228 178.954 82.1289 179.103 82.2609 179.235ZM84.677 185.964C84.4224 185.71 84.2268 185.434 84.0901 185.137C83.9486 184.845 83.885 184.541 83.8991 184.225C83.9133 183.909 84.0217 183.598 84.2244 183.292L84.8467 183.914C84.743 184.093 84.7005 184.277 84.7194 184.465C84.7382 184.654 84.7995 184.833 84.9032 185.003C85.0022 185.177 85.1177 185.33 85.2497 185.462C85.5043 185.717 85.7612 185.87 86.0205 185.922C86.2797 185.983 86.5343 185.96 86.7841 185.851C87.0293 185.748 87.265 185.583 87.4912 185.356L88.0074 184.84C87.7859 184.901 87.5643 184.911 87.3428 184.868C87.1212 184.826 86.9114 184.748 86.7134 184.635C86.5202 184.517 86.341 184.376 86.176 184.211C85.7989 183.834 85.5726 183.442 85.4972 183.037C85.4265 182.627 85.4736 182.221 85.6386 181.821C85.813 181.42 86.0794 181.041 86.4377 180.682C86.7959 180.324 87.1778 180.06 87.5832 179.89C87.9933 179.716 88.4058 179.666 88.8206 179.742C89.2354 179.817 89.6338 180.046 90.0156 180.428C90.2325 180.645 90.4116 180.904 90.553 181.206C90.6944 181.507 90.7463 181.818 90.7086 182.139L91.2036 181.701L91.7763 182.273L88.0781 185.971C87.7293 186.32 87.364 186.558 86.9821 186.686C86.605 186.818 86.2208 186.825 85.8295 186.707C85.443 186.594 85.0588 186.346 84.677 185.964ZM86.7912 183.765C87.0411 184.015 87.3145 184.161 87.6115 184.204C87.9084 184.246 88.2078 184.206 88.5095 184.084C88.8112 183.961 89.087 183.775 89.3368 183.525C89.5961 183.266 89.7823 182.99 89.8954 182.698C90.0133 182.41 90.0463 182.122 89.9944 181.835C89.9426 181.547 89.787 181.274 89.5277 181.015C89.259 180.746 88.9809 180.59 88.6933 180.548C88.4105 180.51 88.1276 180.557 87.8448 180.689C87.5667 180.826 87.3003 181.022 87.0458 181.276C86.7818 181.54 86.5838 181.814 86.4518 182.097C86.3198 182.379 86.2774 182.662 86.3245 182.945C86.3717 183.228 86.5272 183.501 86.7912 183.765ZM90.8466 188.881C90.4506 188.485 90.2031 188.078 90.1041 187.658C90.0098 187.234 90.0428 186.814 90.2031 186.399C90.3634 185.985 90.6274 185.593 90.9951 185.226C91.3675 184.853 91.7611 184.592 92.1759 184.441C92.6002 184.29 93.0245 184.262 93.4487 184.356C93.873 184.45 94.2737 184.686 94.6508 185.063C94.9431 185.355 95.1364 185.662 95.2306 185.982C95.3343 186.303 95.3626 186.623 95.3155 186.944C95.2684 187.264 95.1646 187.566 95.0044 187.849C94.8488 188.127 94.6555 188.372 94.4245 188.584C94.3774 188.622 94.3303 188.66 94.2831 188.697C94.2407 188.74 94.1959 188.78 94.1488 188.818L91.384 186.053C91.186 186.289 91.0446 186.538 90.9597 186.802C90.8749 187.066 90.8631 187.333 90.9244 187.601C90.9904 187.865 91.1459 188.12 91.391 188.365C91.5136 188.488 91.6503 188.596 91.8012 188.69C91.9614 188.785 92.1288 188.844 92.3032 188.867C92.4823 188.895 92.6568 188.867 92.8265 188.782L93.4417 189.398C93.1447 189.581 92.8406 189.673 92.5295 189.673C92.2231 189.669 91.9237 189.596 91.6315 189.454C91.3439 189.308 91.0823 189.117 90.8466 188.881ZM91.9214 185.544L94.0781 187.7C94.2855 187.484 94.4245 187.25 94.4952 187C94.566 186.751 94.5683 186.503 94.5023 186.258C94.441 186.018 94.3043 185.791 94.0922 185.579C93.8612 185.348 93.6161 185.202 93.3568 185.141C93.1022 185.084 92.8524 185.094 92.6073 185.169C92.3621 185.244 92.1335 185.369 91.9214 185.544ZM93.6131 191.563L97.3395 187.837L97.9194 188.416L97.3678 189.024C97.6082 188.973 97.8345 188.963 98.0466 188.996C98.2635 189.034 98.4685 189.107 98.6618 189.215C98.8645 189.324 99.0554 189.468 99.2346 189.647C99.2676 189.68 99.2982 189.71 99.3265 189.739C99.3595 189.772 99.3925 189.805 99.4255 189.838L98.8598 190.403L98.6406 190.184C98.3483 189.892 98.0466 189.717 97.7355 189.661C97.4338 189.604 97.1368 189.642 96.8446 189.774C96.557 189.901 96.2859 190.092 96.0314 190.347L94.2141 192.164L93.6131 191.563Z" fill="#090909"/>
<rect x="267.707" y="194.69" width="82" height="26" rx="13" transform="rotate(-45 267.707 194.69)" fill="white"/>
<rect x="267.707" y="194.69" width="82" height="26" rx="13" transform="rotate(-45 267.707 194.69)" stroke="#DBE1E7"/>
<circle cx="290.688" cy="190.094" r="4" transform="rotate(-45 290.688 190.094)" fill="#090909"/>
<path d="M304.515 181.329C304.001 181.843 303.464 182.163 302.903 182.29C302.342 182.408 301.785 182.361 301.234 182.149C300.682 181.928 300.159 181.569 299.664 181.074C299.174 180.584 298.823 180.063 298.611 179.512C298.394 178.955 298.344 178.397 298.462 177.836C298.58 177.265 298.898 176.721 299.417 176.202C299.784 175.835 300.159 175.578 300.541 175.432C300.923 175.276 301.298 175.217 301.665 175.255C302.033 175.292 302.384 175.417 302.719 175.63L302.097 176.252C301.781 176.077 301.432 176.035 301.05 176.125C300.673 176.209 300.308 176.429 299.954 176.782C299.558 177.178 299.332 177.593 299.275 178.027C299.219 178.451 299.285 178.87 299.473 179.285C299.657 179.695 299.923 180.075 300.272 180.424C300.64 180.791 301.036 181.07 301.46 181.258C301.884 181.447 302.313 181.508 302.747 181.442C303.176 181.371 303.584 181.143 303.97 180.756C304.206 180.52 304.383 180.278 304.501 180.028C304.623 179.773 304.685 179.523 304.685 179.278C304.689 179.028 304.635 178.8 304.522 178.592L305.194 177.921C305.396 178.265 305.51 178.632 305.533 179.024C305.557 179.405 305.486 179.792 305.321 180.183C305.156 180.575 304.887 180.956 304.515 181.329ZM307.556 178.174L302.557 173.175L303.158 172.574L308.157 177.573L307.556 178.174ZM309.386 176.345L305.659 172.618L306.26 172.017L309.987 175.744L309.386 176.345ZM305.405 171.77C305.282 171.892 305.145 171.954 304.995 171.954C304.849 171.949 304.717 171.888 304.599 171.77C304.481 171.652 304.424 171.52 304.429 171.374C304.429 171.223 304.488 171.089 304.606 170.971C304.714 170.862 304.846 170.806 305.002 170.801C305.162 170.792 305.299 170.843 305.412 170.957C305.53 171.074 305.586 171.211 305.582 171.367C305.577 171.522 305.518 171.657 305.405 171.77ZM312.87 172.945C312.474 173.341 312.066 173.589 311.647 173.688C311.222 173.782 310.803 173.749 310.388 173.589C309.973 173.429 309.582 173.165 309.214 172.797C308.842 172.424 308.58 172.031 308.429 171.616C308.279 171.192 308.25 170.767 308.345 170.343C308.439 169.919 308.675 169.518 309.052 169.141C309.344 168.849 309.65 168.656 309.971 168.561C310.291 168.458 310.612 168.429 310.933 168.476C311.253 168.524 311.555 168.627 311.838 168.788C312.116 168.943 312.361 169.136 312.573 169.367C312.611 169.415 312.648 169.462 312.686 169.509C312.729 169.551 312.769 169.596 312.806 169.643L310.042 172.408C310.277 172.606 310.527 172.747 310.791 172.832C311.055 172.917 311.321 172.929 311.59 172.868C311.854 172.802 312.109 172.646 312.354 172.401C312.476 172.278 312.585 172.142 312.679 171.991C312.773 171.83 312.832 171.663 312.856 171.489C312.884 171.31 312.856 171.135 312.771 170.965L313.386 170.35C313.57 170.647 313.662 170.951 313.662 171.262C313.657 171.569 313.584 171.868 313.443 172.16C313.297 172.448 313.106 172.71 312.87 172.945ZM309.532 171.871L311.689 169.714C311.472 169.506 311.239 169.367 310.989 169.297C310.739 169.226 310.492 169.224 310.247 169.29C310.006 169.351 309.78 169.488 309.568 169.7C309.337 169.931 309.191 170.176 309.129 170.435C309.073 170.69 309.082 170.94 309.158 171.185C309.233 171.43 309.358 171.658 309.532 171.871ZM315.552 170.179L311.825 166.452L312.405 165.873L312.999 166.41C312.947 166.188 312.942 165.967 312.985 165.745C313.027 165.524 313.105 165.314 313.218 165.116C313.331 164.909 313.463 164.729 313.614 164.579C313.977 164.216 314.335 164.008 314.689 163.956C315.047 163.9 315.398 163.959 315.743 164.133C316.087 164.298 316.421 164.543 316.747 164.868L318.804 166.926L318.203 167.527L316.308 165.632C316.134 165.458 315.955 165.302 315.771 165.165C315.592 165.024 315.406 164.923 315.212 164.861C315.024 164.795 314.835 164.786 314.647 164.833C314.453 164.876 314.258 164.996 314.06 165.194C313.815 165.439 313.673 165.717 313.635 166.028C313.602 166.335 313.657 166.648 313.798 166.969C313.944 167.284 314.161 167.586 314.449 167.874L316.153 169.578L315.552 170.179ZM321.455 164.361C321.063 164.752 320.682 164.922 320.309 164.87C319.942 164.813 319.562 164.589 319.171 164.198L317.156 162.183L316.547 162.791L316.017 162.261L316.625 161.652L315.508 160.535L316.109 159.934L317.226 161.051L318.372 159.906L318.902 160.436L317.757 161.582L319.694 163.519C319.835 163.661 319.977 163.778 320.118 163.873C320.255 163.962 320.396 164.005 320.543 164C320.684 163.991 320.833 163.913 320.988 163.767C321.096 163.658 321.172 163.545 321.214 163.427C321.261 163.305 321.287 163.189 321.292 163.081L321.992 163.258C321.978 163.404 321.947 163.543 321.9 163.675C321.858 163.802 321.799 163.922 321.723 164.035C321.653 164.144 321.563 164.252 321.455 164.361ZM324.499 161.317C324.329 161.486 324.14 161.642 323.933 161.783C323.73 161.92 323.514 162.024 323.283 162.094C323.056 162.16 322.825 162.175 322.59 162.137C322.354 162.099 322.121 161.993 321.89 161.819L322.498 161.211C322.672 161.291 322.851 161.319 323.035 161.295C323.219 161.262 323.393 161.196 323.558 161.097C323.728 160.994 323.874 160.881 323.997 160.758C324.072 160.683 324.155 160.591 324.244 160.482C324.334 160.374 324.407 160.258 324.463 160.136C324.52 160.004 324.541 159.874 324.527 159.747C324.518 159.615 324.449 159.485 324.322 159.358C324.228 159.264 324.129 159.207 324.025 159.188C323.921 159.169 323.813 159.179 323.7 159.217C323.582 159.25 323.459 159.311 323.332 159.4C323.063 159.575 322.78 159.768 322.483 159.98C322.191 160.188 321.89 160.329 321.578 160.404C321.47 160.428 321.362 160.442 321.253 160.447C321.145 160.442 321.039 160.426 320.935 160.397C320.827 160.364 320.72 160.32 320.617 160.263C320.513 160.197 320.412 160.115 320.313 160.016C320.129 159.832 320.006 159.638 319.945 159.436C319.884 159.224 319.877 159.009 319.924 158.792C319.966 158.571 320.051 158.354 320.178 158.142C320.31 157.925 320.475 157.717 320.673 157.519C320.918 157.274 321.178 157.095 321.451 156.982C321.725 156.86 322 156.81 322.278 156.834C322.552 156.852 322.809 156.959 323.049 157.152L322.491 157.71C322.321 157.607 322.121 157.585 321.89 157.647C321.654 157.703 321.423 157.845 321.197 158.071C321.121 158.146 321.043 158.238 320.963 158.347C320.878 158.451 320.812 158.564 320.765 158.686C320.713 158.804 320.695 158.927 320.709 159.054C320.718 159.176 320.779 159.294 320.892 159.407C320.996 159.511 321.109 159.572 321.232 159.591C321.359 159.605 321.494 159.584 321.635 159.528C321.776 159.471 321.925 159.393 322.08 159.294C322.278 159.162 322.495 159.016 322.731 158.856C322.962 158.691 323.153 158.571 323.304 158.495C323.502 158.392 323.693 158.333 323.876 158.319C324.065 158.3 324.242 158.326 324.407 158.396C324.577 158.462 324.739 158.573 324.895 158.729C325.116 158.95 325.253 159.176 325.305 159.407C325.361 159.634 325.357 159.86 325.291 160.086C325.225 160.313 325.119 160.532 324.973 160.744C324.831 160.951 324.673 161.142 324.499 161.317Z" fill="#090909"/>
</g>
<defs>
<filter id="filter0_ddi_483_2759" x="69" y="44" width="146" height="62" filterUnits="userSpaceOnUse" color-interpolation-filters="sRGB">
<feFlood flood-opacity="0" result="BackgroundImageFix"/>
<feColorMatrix in="SourceAlpha" type="matrix" values="0 0 0 0 0 0 0 0 0 0 0 0 0 0 0 0 0 0 127 0" result="hardAlpha"/>
<feMorphology radius="2" operator="erode" in="SourceAlpha" result="effect1_dropShadow_483_2759"/>
<feOffset dy="4"/>
<feGaussianBlur stdDeviation="5"/>
<feComposite in2="hardAlpha" operator="out"/>
<feColorMatrix type="matrix" values="0 0 0 0 0 0 0 0 0 0 0 0 0 0 0 0 0 0 0.05 0"/>
<feBlend mode="normal" in2="BackgroundImageFix" result="effect1_dropShadow_483_2759"/>
<feColorMatrix in="SourceAlpha" type="matrix" values="0 0 0 0 0 0 0 0 0 0 0 0 0 0 0 0 0 0 127 0" result="hardAlpha"/>
<feMorphology radius="1" operator="erode" in="SourceAlpha" result="effect2_dropShadow_483_2759"/>
<feOffset dy="2"/>
<feGaussianBlur stdDeviation="1"/>
<feComposite in2="hardAlpha" operator="out"/>
<feColorMatrix type="matrix" values="0 0 0 0 0 0 0 0 0 0 0 0 0 0 0 0 0 0 0.1 0"/>
<feBlend mode="normal" in2="effect1_dropShadow_483_2759" result="effect2_dropShadow_483_2759"/>
<feBlend mode="normal" in="SourceGraphic" in2="effect2_dropShadow_483_2759" result="shape"/>
<feColorMatrix in="SourceAlpha" type="matrix" values="0 0 0 0 0 0 0 0 0 0 0 0 0 0 0 0 0 0 127 0" result="hardAlpha"/>
<feOffset dy="-1"/>
<feGaussianBlur stdDeviation="2"/>
<feComposite in2="hardAlpha" operator="arithmetic" k2="-1" k3="1"/>
<feColorMatrix type="matrix" values="0 0 0 0 0 0 0 0 0 0 0 0 0 0 0 0 0 0 0.05 0"/>
<feBlend mode="normal" in2="shape" result="effect3_innerShadow_483_2759"/>
</filter>
<filter id="filter1_ddi_483_2759" x="132" y="114" width="148" height="62" filterUnits="userSpaceOnUse" color-interpolation-filters="sRGB">
<feFlood flood-opacity="0" result="BackgroundImageFix"/>
<feColorMatrix in="SourceAlpha" type="matrix" values="0 0 0 0 0 0 0 0 0 0 0 0 0 0 0 0 0 0 127 0" result="hardAlpha"/>
<feMorphology radius="2" operator="erode" in="SourceAlpha" result="effect1_dropShadow_483_2759"/>
<feOffset dy="4"/>
<feGaussianBlur stdDeviation="5"/>
<feComposite in2="hardAlpha" operator="out"/>
<feColorMatrix type="matrix" values="0 0 0 0 0 0 0 0 0 0 0 0 0 0 0 0 0 0 0.05 0"/>
<feBlend mode="normal" in2="BackgroundImageFix" result="effect1_dropShadow_483_2759"/>
<feColorMatrix in="SourceAlpha" type="matrix" values="0 0 0 0 0 0 0 0 0 0 0 0 0 0 0 0 0 0 127 0" result="hardAlpha"/>
<feMorphology radius="1" operator="erode" in="SourceAlpha" result="effect2_dropShadow_483_2759"/>
<feOffset dy="2"/>
<feGaussianBlur stdDeviation="1"/>
<feComposite in2="hardAlpha" operator="out"/>
<feColorMatrix type="matrix" values="0 0 0 0 0 0 0 0 0 0 0 0 0 0 0 0 0 0 0.1 0"/>
<feBlend mode="normal" in2="effect1_dropShadow_483_2759" result="effect2_dropShadow_483_2759"/>
<feBlend mode="normal" in="SourceGraphic" in2="effect2_dropShadow_483_2759" result="shape"/>
<feColorMatrix in="SourceAlpha" type="matrix" values="0 0 0 0 0 0 0 0 0 0 0 0 0 0 0 0 0 0 127 0" result="hardAlpha"/>
<feOffset dy="-1"/>
<feGaussianBlur stdDeviation="2"/>
<feComposite in2="hardAlpha" operator="arithmetic" k2="-1" k3="1"/>
<feColorMatrix type="matrix" values="0 0 0 0 0 0 0 0 0 0 0 0 0 0 0 0 0 0 0.05 0"/>
<feBlend mode="normal" in2="shape" result="effect3_innerShadow_483_2759"/>
</filter>
<clipPath id="clip0_483_2759">
<rect width="348" height="212" rx="8" fill="white"/>
</clipPath>
</defs>
</svg>
