<svg width="64" height="64" viewBox="0 0 64 64" fill="none" xmlns="http://www.w3.org/2000/svg">
<rect width="64" height="64" rx="32" fill="#F5F5F5"/>
<rect x="8.42578" y="8.29883" width="48" height="48" rx="24" fill="#E6E6E6"/>
<path d="M29.5631 31.2656V24.5156C29.5632 24.4256 29.5416 24.3369 29.5003 24.2569C29.4589 24.177 29.399 24.1081 29.3255 24.0561C29.252 24.0041 29.1672 23.9706 29.078 23.9582C28.9888 23.9458 28.898 23.955 28.8131 23.985C26.6657 24.7441 24.8597 26.2448 23.7202 28.2169C22.5807 30.1891 22.1826 32.5032 22.5975 34.7428C22.6138 34.8314 22.6512 34.9147 22.7064 34.9859C22.7616 35.057 22.8331 35.1139 22.9149 35.1516C22.9967 35.1894 23.0863 35.207 23.1763 35.2029C23.2662 35.1988 23.3539 35.1731 23.4319 35.1281L29.2819 31.7531C29.3675 31.7037 29.4385 31.6327 29.4879 31.5471C29.5373 31.4615 29.5632 31.3644 29.5631 31.2656ZM28.4381 30.9375L23.595 33.7312C23.5738 33.4881 23.5631 33.2444 23.5631 33C23.5644 31.3936 24.0236 29.8208 24.8871 28.4661C25.7506 27.1115 26.9824 26.0312 28.4381 25.3519V30.9375ZM40.3041 28.2609C40.2966 28.2459 40.2891 28.2309 40.2807 28.2169C40.2733 28.2031 40.2649 28.1899 40.2553 28.1775C39.4131 26.7354 38.2079 25.539 36.7597 24.7074C35.3114 23.8758 33.6707 23.438 32.0006 23.4375C31.8515 23.4375 31.7084 23.4968 31.6029 23.6023C31.4974 23.7077 31.4381 23.8508 31.4381 24V32.7187L23.9569 37.0744C23.893 37.1117 23.8371 37.1612 23.7923 37.2201C23.7476 37.2791 23.7149 37.3463 23.6962 37.4179C23.6775 37.4894 23.6731 37.564 23.6832 37.6373C23.6934 37.7106 23.7179 37.7812 23.7553 37.845C24.8185 39.6549 26.4476 41.0648 28.3914 41.857C30.3352 42.6493 32.4856 42.78 34.5111 42.2289C36.5365 41.6779 38.3244 40.4757 39.5988 38.8078C40.8733 37.1399 41.5636 35.0991 41.5631 33C41.5651 31.3374 41.1309 29.7034 40.3041 28.2609ZM32.5631 24.5812C33.851 24.6678 35.1019 25.0487 36.2194 25.6946C37.337 26.3405 38.2915 27.2342 39.0094 28.3069L32.5631 32.0625V24.5812ZM32.0006 41.4375C30.6268 41.4338 29.2744 41.0965 28.0597 40.4546C26.8451 39.8126 25.8045 38.8852 25.0275 37.7522L32.2753 33.5334L32.2913 33.5241L39.5728 29.2828C40.204 30.569 40.4973 31.9947 40.425 33.4256C40.3528 34.8565 39.9173 36.2454 39.1597 37.4615C38.4022 38.6775 37.3474 39.6806 36.0949 40.3763C34.8424 41.0719 33.4334 41.4371 32.0006 41.4375Z" fill="#090909"/>
</svg>
