<svg width="48" height="48" viewBox="0 0 48 48" fill="none" xmlns="http://www.w3.org/2000/svg">
<rect x="0.5" y="0.5" width="47" height="47" rx="23.5" stroke="#494949"/>
<path d="M24 14.4375C22.1087 14.4375 20.2599 14.9983 18.6874 16.0491C17.1148 17.0998 15.8892 18.5933 15.1654 20.3406C14.4416 22.0879 14.2523 24.0106 14.6212 25.8656C14.9902 27.7205 15.901 29.4244 17.2383 30.7617C18.5756 32.099 20.2795 33.0098 22.1345 33.3788C23.9894 33.7477 25.9121 33.5584 27.6594 32.8346C29.4067 32.1108 30.9002 30.8852 31.9509 29.3126C33.0017 27.7401 33.5625 25.8913 33.5625 24C33.5595 21.4648 32.5511 19.0343 30.7584 17.2416C28.9658 15.4489 26.5352 14.4405 24 14.4375ZM24.5625 32.4188V26.0625H27C27.1492 26.0625 27.2923 26.0032 27.3978 25.8977C27.5032 25.7923 27.5625 25.6492 27.5625 25.5C27.5625 25.3508 27.5032 25.2077 27.3978 25.1023C27.2923 24.9968 27.1492 24.9375 27 24.9375H24.5625V22.5C24.5625 22.0524 24.7403 21.6232 25.0568 21.3068C25.3732 20.9903 25.8025 20.8125 26.25 20.8125H27.75C27.8992 20.8125 28.0423 20.7532 28.1478 20.6477C28.2532 20.5423 28.3125 20.3992 28.3125 20.25C28.3125 20.1008 28.2532 19.9577 28.1478 19.8523C28.0423 19.7468 27.8992 19.6875 27.75 19.6875H26.25C25.5041 19.6875 24.7887 19.9838 24.2613 20.5113C23.7338 21.0387 23.4375 21.7541 23.4375 22.5V24.9375H21C20.8508 24.9375 20.7077 24.9968 20.6023 25.1023C20.4968 25.2077 20.4375 25.3508 20.4375 25.5C20.4375 25.6492 20.4968 25.7923 20.6023 25.8977C20.7077 26.0032 20.8508 26.0625 21 26.0625H23.4375V32.4188C21.2533 32.2728 19.2114 31.2837 17.7429 29.6604C16.2743 28.037 15.4942 25.9064 15.5672 23.7186C15.6402 21.5308 16.5606 19.457 18.1341 17.9351C19.7076 16.4133 21.811 15.5625 24 15.5625C26.189 15.5625 28.2924 16.4133 29.8659 17.9351C31.4394 19.457 32.3598 21.5308 32.4328 23.7186C32.5058 25.9064 31.7257 28.037 30.2572 29.6604C28.7886 31.2837 26.7467 32.2728 24.5625 32.4188Z" fill="white"/>
</svg>
