<svg width="64" height="64" viewBox="0 0 64 64" fill="none" xmlns="http://www.w3.org/2000/svg">
<rect width="64" height="64" rx="32" fill="#F5F5F5"/>
<rect x="8.42578" y="8.29883" width="48" height="48" rx="24" fill="#E6E6E6"/>
<path d="M40.0477 32.1212C40.0267 32.0311 39.9837 31.9477 39.9227 31.8782C39.8618 31.8087 39.7846 31.7553 39.698 31.7227L34.1452 29.6405L35.5515 22.6093C35.5755 22.4893 35.5596 22.3647 35.5065 22.2545C35.4533 22.1443 35.3656 22.0544 35.2567 21.9986C35.1478 21.9427 35.0237 21.9239 34.9031 21.9449C34.7826 21.966 34.6721 22.0258 34.5886 22.1152L24.0886 33.3652C24.0256 33.4328 23.9802 33.5149 23.9564 33.6043C23.9326 33.6936 23.9313 33.7875 23.9524 33.8775C23.9735 33.9675 24.0165 34.0509 24.0776 34.1203C24.1386 34.1897 24.2158 34.2431 24.3024 34.2755L29.8552 36.3577L28.449 43.389C28.4248 43.509 28.4405 43.6337 28.4936 43.744C28.5468 43.8543 28.6344 43.9443 28.7433 44.0002C28.8229 44.0407 28.9109 44.0619 29.0002 44.0621C29.0774 44.0621 29.1538 44.0462 29.2246 44.0154C29.2954 43.9846 29.3591 43.9395 29.4118 43.883L39.9118 32.633C39.9747 32.5654 40.02 32.4834 40.0438 32.3941C40.0675 32.3048 40.0688 32.2111 40.0477 32.1212ZM29.9377 41.6677L31.0486 36.1102C31.075 35.9793 31.0539 35.8433 30.9892 35.7265C30.9244 35.6097 30.8202 35.5197 30.6952 35.4727L25.4827 33.518L34.0571 24.3305L32.949 29.889C32.9226 30.0199 32.9437 30.1559 33.0084 30.2727C33.0732 30.3895 33.1774 30.4795 33.3024 30.5265L38.5149 32.4812L29.9377 41.6677Z" fill="#090909"/>
</svg>
