<svg width="48" height="48" viewBox="0 0 48 48" fill="none" xmlns="http://www.w3.org/2000/svg">
<rect x="0.5" y="0.5" width="47" height="47" rx="23.5" stroke="#303030"/>
<path d="M32.25 14.4375H15.75C15.4019 14.4375 15.0681 14.5758 14.8219 14.8219C14.5758 15.0681 14.4375 15.4019 14.4375 15.75V32.25C14.4375 32.5981 14.5758 32.9319 14.8219 33.1781C15.0681 33.4242 15.4019 33.5625 15.75 33.5625H32.25C32.5981 33.5625 32.9319 33.4242 33.1781 33.1781C33.4242 32.9319 33.5625 32.5981 33.5625 32.25V15.75C33.5625 15.4019 33.4242 15.0681 33.1781 14.8219C32.9319 14.5758 32.5981 14.4375 32.25 14.4375ZM32.4375 32.25C32.4375 32.2997 32.4177 32.3474 32.3826 32.3826C32.3474 32.4177 32.2997 32.4375 32.25 32.4375H15.75C15.7003 32.4375 15.6526 32.4177 15.6174 32.3826C15.5823 32.3474 15.5625 32.2997 15.5625 32.25V15.75C15.5625 15.7003 15.5823 15.6526 15.6174 15.6174C15.6526 15.5823 15.7003 15.5625 15.75 15.5625H32.25C32.2997 15.5625 32.3474 15.5823 32.3826 15.6174C32.4177 15.6526 32.4375 15.7003 32.4375 15.75V32.25ZM20.8125 22.5V28.5C20.8125 28.6492 20.7532 28.7923 20.6477 28.8977C20.5423 29.0032 20.3992 29.0625 20.25 29.0625C20.1008 29.0625 19.9577 29.0032 19.8523 28.8977C19.7468 28.7923 19.6875 28.6492 19.6875 28.5V22.5C19.6875 22.3508 19.7468 22.2077 19.8523 22.1023C19.9577 21.9968 20.1008 21.9375 20.25 21.9375C20.3992 21.9375 20.5423 21.9968 20.6477 22.1023C20.7532 22.2077 20.8125 22.3508 20.8125 22.5ZM29.0625 25.125V28.5C29.0625 28.6492 29.0032 28.7923 28.8977 28.8977C28.7923 29.0032 28.6492 29.0625 28.5 29.0625C28.3508 29.0625 28.2077 29.0032 28.1023 28.8977C27.9968 28.7923 27.9375 28.6492 27.9375 28.5V25.125C27.9375 24.578 27.7202 24.0534 27.3334 23.6666C26.9466 23.2798 26.422 23.0625 25.875 23.0625C25.328 23.0625 24.8034 23.2798 24.4166 23.6666C24.0298 24.0534 23.8125 24.578 23.8125 25.125V28.5C23.8125 28.6492 23.7532 28.7923 23.6477 28.8977C23.5423 29.0032 23.3992 29.0625 23.25 29.0625C23.1008 29.0625 22.9577 29.0032 22.8523 28.8977C22.7468 28.7923 22.6875 28.6492 22.6875 28.5V22.5C22.6875 22.3508 22.7468 22.2077 22.8523 22.1023C22.9577 21.9968 23.1008 21.9375 23.25 21.9375C23.3992 21.9375 23.5423 21.9968 23.6477 22.1023C23.7532 22.2077 23.8125 22.3508 23.8125 22.5V22.6978C24.2761 22.3044 24.8425 22.0518 25.4449 21.9697C26.0474 21.8877 26.6607 21.9797 27.2126 22.2348C27.7645 22.49 28.2319 22.8976 28.5597 23.4097C28.8874 23.9218 29.0619 24.517 29.0625 25.125ZM21.1875 19.875C21.1875 20.0604 21.1325 20.2417 21.0295 20.3958C20.9265 20.55 20.7801 20.6702 20.6088 20.7411C20.4375 20.8121 20.249 20.8307 20.0671 20.7945C19.8852 20.7583 19.7182 20.669 19.5871 20.5379C19.456 20.4068 19.3667 20.2398 19.3305 20.0579C19.2943 19.876 19.3129 19.6875 19.3839 19.5162C19.4548 19.3449 19.575 19.1985 19.7292 19.0955C19.8833 18.9925 20.0646 18.9375 20.25 18.9375C20.4986 18.9375 20.7371 19.0363 20.9129 19.2121C21.0887 19.3879 21.1875 19.6264 21.1875 19.875Z" fill="white"/>
</svg>
