<svg width="125" height="32" viewBox="0 0 125 32" fill="none" xmlns="http://www.w3.org/2000/svg">
<rect width="32" height="32" rx="16" fill="white"/>
<path d="M8.1684 18.6378C10.4081 28.5469 24.593 28.0039 23.9143 18.6378C22.0818 18.027 22.1311 21.6931 18.3982 21.6931C16.3638 21.6931 11.0868 18.5021 12.9193 11.5115C14.4803 7.50712 17.2291 8.52518 19.1634 12.3938C20.3172 14.7014 24.6608 15.0407 23.9143 10.9685C19.9778 4.11362 6.33591 5.81037 8.1684 18.6378Z" fill="#090909"/>
<path d="M47.48 23.16C46.0267 23.16 44.8067 22.8533 43.82 22.24C42.8467 21.6267 42.1133 20.78 41.62 19.7C41.1267 18.62 40.88 17.3733 40.88 15.96C40.88 14.5467 41.1267 13.2933 41.62 12.2C42.1267 11.1067 42.8667 10.2533 43.84 9.64C44.8267 9.01333 46.0467 8.7 47.5 8.7C48.5533 8.7 49.4733 8.87333 50.26 9.22C51.0467 9.55333 51.68 10.0333 52.16 10.66C52.6533 11.2733 52.98 12.0067 53.14 12.86H51.06C50.86 12.18 50.4533 11.64 49.84 11.24C49.2267 10.84 48.44 10.64 47.48 10.64C46.4133 10.64 45.5533 10.8867 44.9 11.38C44.26 11.8733 43.7933 12.52 43.5 13.32C43.2067 14.1067 43.06 14.96 43.06 15.88C43.06 16.8267 43.2133 17.7067 43.52 18.52C43.8267 19.3333 44.3133 19.9867 44.98 20.48C45.6467 20.9733 46.5 21.22 47.54 21.22C48.18 21.22 48.7467 21.1333 49.24 20.96C49.7333 20.7733 50.1467 20.5133 50.48 20.18C50.8133 19.8333 51.04 19.4333 51.16 18.98H53.38C53.2067 19.8467 52.8533 20.5933 52.32 21.22C51.7867 21.8467 51.1133 22.3267 50.3 22.66C49.4867 22.9933 48.5467 23.16 47.48 23.16ZM60.1006 23.12C59.0073 23.12 58.0806 22.9 57.3206 22.46C56.5606 22.0067 55.9806 21.3733 55.5806 20.56C55.194 19.7467 55.0006 18.8067 55.0006 17.74C55.0006 16.66 55.2006 15.72 55.6006 14.92C56.0006 14.1067 56.5806 13.4733 57.3406 13.02C58.1006 12.5533 59.0273 12.32 60.1206 12.32C61.214 12.32 62.1406 12.5533 62.9006 13.02C63.6606 13.4733 64.234 14.1067 64.6206 14.92C65.0073 15.7333 65.2006 16.68 65.2006 17.76C65.2006 18.8133 65.0006 19.7467 64.6006 20.56C64.214 21.3733 63.6406 22.0067 62.8806 22.46C62.134 22.9 61.2073 23.12 60.1006 23.12ZM60.1006 21.28C60.8206 21.28 61.4006 21.12 61.8406 20.8C62.294 20.48 62.6273 20.0533 62.8406 19.52C63.054 18.9733 63.1606 18.38 63.1606 17.74C63.1606 17.1 63.054 16.5133 62.8406 15.98C62.6273 15.4467 62.294 15.02 61.8406 14.7C61.4006 14.3667 60.8206 14.2 60.1006 14.2C59.394 14.2 58.814 14.3667 58.3606 14.7C57.9073 15.02 57.574 15.4467 57.3606 15.98C57.1606 16.5133 57.0606 17.1 57.0606 17.74C57.0606 18.3933 57.1606 18.9867 57.3606 19.52C57.574 20.0533 57.9073 20.48 58.3606 20.8C58.814 21.12 59.394 21.28 60.1006 21.28ZM71.5747 23.12C70.5214 23.12 69.648 22.8867 68.9547 22.42C68.2747 21.94 67.7614 21.2933 67.4147 20.48C67.0814 19.6667 66.9147 18.7533 66.9147 17.74C66.9147 16.7133 67.088 15.7933 67.4347 14.98C67.7814 14.1533 68.308 13.5067 69.0147 13.04C69.7214 12.56 70.6147 12.32 71.6947 12.32C72.0947 12.32 72.4947 12.3667 72.8947 12.46C73.308 12.5533 73.688 12.7 74.0347 12.9C74.3947 13.0867 74.7014 13.34 74.9547 13.66V8.86H77.0147V23H75.0347L74.9547 21.56C74.7147 21.92 74.4147 22.22 74.0547 22.46C73.708 22.6867 73.3214 22.8533 72.8947 22.96C72.468 23.0667 72.028 23.12 71.5747 23.12ZM71.9147 21.28C72.5947 21.28 73.1547 21.1133 73.5947 20.78C74.048 20.4467 74.388 20.0067 74.6147 19.46C74.8414 18.9133 74.9547 18.32 74.9547 17.68C74.9547 17.0267 74.8414 16.44 74.6147 15.92C74.4014 15.3867 74.068 14.9667 73.6147 14.66C73.1747 14.34 72.608 14.18 71.9147 14.18C71.1947 14.18 70.6214 14.3467 70.1947 14.68C69.768 15 69.4547 15.4333 69.2547 15.98C69.068 16.5267 68.9747 17.1267 68.9747 17.78C68.9747 18.26 69.028 18.7133 69.1347 19.14C69.2414 19.5533 69.408 19.9267 69.6347 20.26C69.8747 20.58 70.1814 20.8333 70.5547 21.02C70.928 21.1933 71.3814 21.28 71.9147 21.28ZM84.1813 23.12C83.0746 23.12 82.1479 22.8933 81.4013 22.44C80.6546 21.9867 80.0879 21.36 79.7013 20.56C79.3279 19.7467 79.1413 18.8133 79.1413 17.76C79.1413 16.6933 79.3346 15.7533 79.7213 14.94C80.1213 14.1267 80.6946 13.4867 81.4413 13.02C82.2013 12.5533 83.1146 12.32 84.1813 12.32C84.9946 12.32 85.7013 12.4733 86.3013 12.78C86.9013 13.0733 87.3946 13.4733 87.7813 13.98C88.1813 14.4867 88.4746 15.0533 88.6613 15.68C88.8479 16.2933 88.9279 16.9333 88.9013 17.6C88.9013 17.7467 88.8946 17.8867 88.8813 18.02C88.8679 18.1533 88.8546 18.2933 88.8412 18.44H81.2212C81.2613 18.9733 81.3946 19.46 81.6213 19.9C81.8613 20.34 82.1946 20.6933 82.6213 20.96C83.0479 21.2133 83.5746 21.34 84.2013 21.34C84.5479 21.34 84.8813 21.3 85.2013 21.22C85.5346 21.1267 85.8279 20.9867 86.0813 20.8C86.3479 20.6 86.5346 20.3467 86.6413 20.04H88.7213C88.5479 20.7467 88.2346 21.3333 87.7813 21.8C87.3413 22.2533 86.8013 22.5867 86.1613 22.8C85.5346 23.0133 84.8746 23.12 84.1813 23.12ZM81.2613 16.8H86.8613C86.8479 16.28 86.7279 15.82 86.5013 15.42C86.2746 15.0067 85.9613 14.6867 85.5613 14.46C85.1613 14.22 84.6813 14.1 84.1213 14.1C83.5079 14.1 82.9946 14.2267 82.5813 14.48C82.1813 14.7333 81.8679 15.0667 81.6413 15.48C81.4279 15.88 81.3013 16.32 81.2613 16.8ZM89.0656 26.76V24.94H89.8056C90.259 24.94 90.6056 24.86 90.8456 24.7C91.0856 24.5533 91.2456 24.3333 91.3256 24.04C91.4056 23.76 91.4456 23.4267 91.4456 23.04V12.46H93.5256V23.3C93.5256 24.0867 93.4123 24.7333 93.1856 25.24C92.959 25.76 92.599 26.14 92.1056 26.38C91.6256 26.6333 90.979 26.76 90.1656 26.76H89.0656ZM92.4656 11.06C92.0656 11.06 91.739 10.94 91.4856 10.7C91.2456 10.4467 91.1256 10.1267 91.1256 9.74C91.1256 9.35333 91.2523 9.04 91.5056 8.8C91.759 8.54667 92.079 8.42 92.4656 8.42C92.8256 8.42 93.139 8.54667 93.4056 8.8C93.6856 9.04 93.8256 9.35333 93.8256 9.74C93.8256 10.1267 93.6923 10.4467 93.4256 10.7C93.1723 10.94 92.8523 11.06 92.4656 11.06ZM99.5614 23.12C99.0814 23.12 98.6147 23.06 98.1614 22.94C97.7214 22.8067 97.3281 22.6133 96.9814 22.36C96.6347 22.0933 96.3547 21.7667 96.1414 21.38C95.9414 20.98 95.8414 20.5133 95.8414 19.98C95.8414 19.34 95.9614 18.8133 96.2014 18.4C96.4547 17.9733 96.7881 17.6467 97.2014 17.42C97.6147 17.18 98.0881 17.0133 98.6214 16.92C99.1681 16.8133 99.7347 16.76 100.321 16.76H102.901C102.901 16.24 102.821 15.7867 102.661 15.4C102.501 15 102.248 14.6933 101.901 14.48C101.568 14.2533 101.121 14.14 100.561 14.14C100.228 14.14 99.9081 14.18 99.6014 14.26C99.3081 14.3267 99.0547 14.44 98.8414 14.6C98.6281 14.76 98.4814 14.9733 98.4014 15.24H96.2414C96.3214 14.7333 96.5014 14.3 96.7814 13.94C97.0614 13.5667 97.4081 13.26 97.8214 13.02C98.2347 12.78 98.6747 12.6067 99.1414 12.5C99.6214 12.38 100.108 12.32 100.601 12.32C102.121 12.32 103.215 12.7667 103.881 13.66C104.561 14.54 104.901 15.7533 104.901 17.3V23H103.121L103.041 21.66C102.735 22.0733 102.368 22.3867 101.941 22.6C101.528 22.8133 101.115 22.9533 100.701 23.02C100.288 23.0867 99.9081 23.12 99.5614 23.12ZM99.8814 21.38C100.481 21.38 101.008 21.28 101.461 21.08C101.915 20.8667 102.268 20.5667 102.521 20.18C102.775 19.78 102.901 19.3133 102.901 18.78V18.34H101.021C100.635 18.34 100.255 18.3533 99.8814 18.38C99.5214 18.3933 99.1881 18.4467 98.8814 18.54C98.5881 18.62 98.3481 18.76 98.1614 18.96C97.9881 19.16 97.9014 19.4467 97.9014 19.82C97.9014 20.18 97.9947 20.4733 98.1814 20.7C98.3681 20.9267 98.6147 21.1 98.9214 21.22C99.2281 21.3267 99.5481 21.38 99.8814 21.38ZM107.373 23V12.46H109.313L109.413 13.98C109.68 13.5667 109.987 13.24 110.333 13C110.68 12.76 111.06 12.5867 111.473 12.48C111.887 12.3733 112.32 12.32 112.773 12.32C112.893 12.32 113.007 12.32 113.113 12.32C113.22 12.32 113.32 12.32 113.413 12.32V14.3H112.773C112.013 14.3 111.38 14.4533 110.873 14.76C110.38 15.0667 110.013 15.4933 109.773 16.04C109.547 16.5867 109.433 17.2133 109.433 17.92V23H107.373ZM118.331 23.12C117.851 23.12 117.384 23.06 116.931 22.94C116.491 22.8067 116.098 22.6133 115.751 22.36C115.404 22.0933 115.124 21.7667 114.911 21.38C114.711 20.98 114.611 20.5133 114.611 19.98C114.611 19.34 114.731 18.8133 114.971 18.4C115.224 17.9733 115.558 17.6467 115.971 17.42C116.384 17.18 116.858 17.0133 117.391 16.92C117.938 16.8133 118.504 16.76 119.091 16.76H121.671C121.671 16.24 121.591 15.7867 121.431 15.4C121.271 15 121.018 14.6933 120.671 14.48C120.338 14.2533 119.891 14.14 119.331 14.14C118.998 14.14 118.678 14.18 118.371 14.26C118.078 14.3267 117.824 14.44 117.611 14.6C117.398 14.76 117.251 14.9733 117.171 15.24H115.011C115.091 14.7333 115.271 14.3 115.551 13.94C115.831 13.5667 116.178 13.26 116.591 13.02C117.004 12.78 117.444 12.6067 117.911 12.5C118.391 12.38 118.878 12.32 119.371 12.32C120.891 12.32 121.984 12.7667 122.651 13.66C123.331 14.54 123.671 15.7533 123.671 17.3V23H121.891L121.811 21.66C121.504 22.0733 121.138 22.3867 120.711 22.6C120.298 22.8133 119.884 22.9533 119.471 23.02C119.058 23.0867 118.678 23.12 118.331 23.12ZM118.651 21.38C119.251 21.38 119.778 21.28 120.231 21.08C120.684 20.8667 121.038 20.5667 121.291 20.18C121.544 19.78 121.671 19.3133 121.671 18.78V18.34H119.791C119.404 18.34 119.024 18.3533 118.651 18.38C118.291 18.3933 117.958 18.4467 117.651 18.54C117.358 18.62 117.118 18.76 116.931 18.96C116.758 19.16 116.671 19.4467 116.671 19.82C116.671 20.18 116.764 20.4733 116.951 20.7C117.138 20.9267 117.384 21.1 117.691 21.22C117.998 21.3267 118.318 21.38 118.651 21.38Z" fill="white"/>
</svg>
