<svg width="64" height="64" viewBox="0 0 64 64" fill="none" xmlns="http://www.w3.org/2000/svg">
<rect width="64" height="64" rx="32" fill="#F5F5F5"/>
<rect x="8.42578" y="8.29883" width="48" height="48" rx="24" fill="#E6E6E6"/>
<path d="M42.3129 30.4388C42.3132 30.2664 42.2794 30.0957 42.2134 29.9364C42.1475 29.7771 42.0506 29.6324 41.9285 29.5107L35.4888 23.072C35.3669 22.9501 35.2222 22.8534 35.063 22.7874C34.9037 22.7215 34.7331 22.6875 34.5607 22.6875C34.3883 22.6875 34.2176 22.7215 34.0584 22.7874C33.8991 22.8534 33.7544 22.9501 33.6326 23.072L30.9391 25.7654L25.4585 27.8213C25.2428 27.9021 25.0522 28.0381 24.9057 28.2159C24.7593 28.3936 24.6621 28.6067 24.6241 28.8338L22.4454 41.9063C22.4317 41.987 22.4359 42.0697 22.4575 42.1487C22.4791 42.2276 22.5177 42.3008 22.5705 42.3633C22.6233 42.4258 22.6892 42.476 22.7634 42.5104C22.8377 42.5448 22.9185 42.5626 23.0004 42.5626C23.0318 42.5625 23.0631 42.56 23.0941 42.5551L36.1666 40.3763C36.3939 40.3385 36.6072 40.2414 36.7851 40.095C36.963 39.9485 37.0992 39.7578 37.1801 39.542L39.2351 34.0613L41.9294 31.367C42.0515 31.2453 42.1482 31.1006 42.214 30.9413C42.2798 30.782 42.3134 30.6112 42.3129 30.4388ZM36.1254 39.1473C36.1138 39.178 36.0944 39.2052 36.0691 39.2261C36.0438 39.247 36.0134 39.2609 35.981 39.2663L24.6401 41.1563L29.5966 36.1988C30.1051 36.5125 30.7111 36.6285 31.2995 36.5247C31.8879 36.4209 32.4177 36.1047 32.7882 35.6361C33.1588 35.1674 33.3443 34.579 33.3096 33.9825C33.2749 33.3861 33.0223 32.8231 32.5998 32.4007C32.1773 31.9782 31.6144 31.7256 31.018 31.6909C30.4215 31.6561 29.8331 31.8417 29.3644 32.2122C28.8958 32.5828 28.5795 33.1126 28.4758 33.7009C28.372 34.2893 28.488 34.8953 28.8016 35.4038L23.8441 40.3623L25.7351 29.0185C25.7406 28.9864 25.7544 28.9563 25.7751 28.9312C25.7958 28.906 25.8227 28.8867 25.8532 28.8751L31.1088 26.9063L38.0941 33.8917L36.1254 39.1473ZM29.5629 34.1251C29.5629 33.8655 29.6398 33.6117 29.7841 33.3959C29.9283 33.1801 30.1333 33.0118 30.3731 32.9125C30.6129 32.8132 30.8768 32.7872 31.1314 32.8378C31.386 32.8885 31.6199 33.0135 31.8034 33.197C31.987 33.3806 32.112 33.6144 32.1626 33.869C32.2133 34.1236 32.1873 34.3875 32.088 34.6274C31.9886 34.8672 31.8204 35.0722 31.6046 35.2164C31.3887 35.3606 31.135 35.4376 30.8754 35.4376C30.5273 35.4376 30.1934 35.2993 29.9473 35.0532C29.7011 34.807 29.5629 34.4732 29.5629 34.1251ZM41.1326 30.572L38.7504 32.9542L32.0454 26.2501L34.4285 23.867C34.4459 23.8495 34.4666 23.8357 34.4893 23.8263C34.5121 23.8168 34.5365 23.812 34.5611 23.812C34.5858 23.812 34.6102 23.8168 34.6329 23.8263C34.6557 23.8357 34.6764 23.8495 34.6938 23.867L41.1326 30.3067C41.15 30.3241 41.1638 30.3448 41.1733 30.3675C41.1827 30.3903 41.1875 30.4147 41.1875 30.4393C41.1875 30.464 41.1827 30.4884 41.1733 30.5111C41.1638 30.5339 41.15 30.5546 41.1326 30.572Z" fill="#090909"/>
</svg>
