<svg width="64" height="64" viewBox="0 0 64 64" fill="none" xmlns="http://www.w3.org/2000/svg">
<rect width="64" height="64" rx="32" fill="#F5F5F5"/>
<rect x="8.42578" y="8.29883" width="48" height="48" rx="24" fill="#E6E6E6"/>
<path d="M28.4375 34.5V33C28.4375 32.8508 28.4968 32.7077 28.6023 32.6023C28.7077 32.4968 28.8508 32.4375 29 32.4375C29.1492 32.4375 29.2923 32.4968 29.3977 32.6023C29.5032 32.7077 29.5625 32.8508 29.5625 33V34.5C29.5625 34.6492 29.5032 34.7923 29.3977 34.8977C29.2923 35.0032 29.1492 35.0625 29 35.0625C28.8508 35.0625 28.7077 35.0032 28.6023 34.8977C28.4968 34.7923 28.4375 34.6492 28.4375 34.5ZM32 35.0625C32.1492 35.0625 32.2923 35.0032 32.3977 34.8977C32.5032 34.7923 32.5625 34.6492 32.5625 34.5V32.25C32.5625 32.1008 32.5032 31.9577 32.3977 31.8523C32.2923 31.7468 32.1492 31.6875 32 31.6875C31.8508 31.6875 31.7077 31.7468 31.6023 31.8523C31.4968 31.9577 31.4375 32.1008 31.4375 32.25V34.5C31.4375 34.6492 31.4968 34.7923 31.6023 34.8977C31.7077 35.0032 31.8508 35.0625 32 35.0625ZM35 35.0625C35.1492 35.0625 35.2923 35.0032 35.3977 34.8977C35.5032 34.7923 35.5625 34.6492 35.5625 34.5V31.5C35.5625 31.3508 35.5032 31.2077 35.3977 31.1023C35.2923 30.9968 35.1492 30.9375 35 30.9375C34.8508 30.9375 34.7077 30.9968 34.6023 31.1023C34.4968 31.2077 34.4375 31.3508 34.4375 31.5V34.5C34.4375 34.6492 34.4968 34.7923 34.6023 34.8977C34.7077 35.0032 34.8508 35.0625 35 35.0625ZM40.0625 28.3125V37.6875H41C41.1492 37.6875 41.2923 37.7468 41.3977 37.8523C41.5032 37.9577 41.5625 38.1008 41.5625 38.25C41.5625 38.3992 41.5032 38.5423 41.3977 38.6477C41.2923 38.7532 41.1492 38.8125 41 38.8125H32.5625V40.7663C33.0414 40.902 33.4551 41.2064 33.7272 41.6233C33.9993 42.0402 34.1114 42.5414 34.0429 43.0345C33.9743 43.5276 33.7298 43.9792 33.3543 44.3061C32.9788 44.633 32.4978 44.8131 32 44.8131C31.5022 44.8131 31.0212 44.633 30.6457 44.3061C30.2702 43.9792 30.0257 43.5276 29.9571 43.0345C29.8886 42.5414 30.0007 42.0402 30.2728 41.6233C30.5449 41.2064 30.9586 40.902 31.4375 40.7663V38.8125H23C22.8508 38.8125 22.7077 38.7532 22.6023 38.6477C22.4968 38.5423 22.4375 38.3992 22.4375 38.25C22.4375 38.1008 22.4968 37.9577 22.6023 37.8523C22.7077 37.7468 22.8508 37.6875 23 37.6875H23.9375V28.3125H23.75C23.4019 28.3125 23.0681 28.1742 22.8219 27.9281C22.5758 27.6819 22.4375 27.3481 22.4375 27V25.5C22.4375 25.1519 22.5758 24.8181 22.8219 24.5719C23.0681 24.3258 23.4019 24.1875 23.75 24.1875H40.25C40.5981 24.1875 40.9319 24.3258 41.1781 24.5719C41.4242 24.8181 41.5625 25.1519 41.5625 25.5V27C41.5625 27.3481 41.4242 27.6819 41.1781 27.9281C40.9319 28.1742 40.5981 28.3125 40.25 28.3125H40.0625ZM32 41.8125C31.8146 41.8125 31.6333 41.8675 31.4792 41.9705C31.325 42.0735 31.2048 42.2199 31.1339 42.3912C31.0629 42.5625 31.0443 42.751 31.0805 42.9329C31.1167 43.1148 31.206 43.2818 31.3371 43.4129C31.4682 43.544 31.6352 43.6333 31.8171 43.6695C31.999 43.7057 32.1875 43.6871 32.3588 43.6161C32.5301 43.5452 32.6765 43.425 32.7795 43.2708C32.8825 43.1167 32.9375 42.9354 32.9375 42.75C32.9375 42.5014 32.8387 42.2629 32.6629 42.0871C32.4871 41.9113 32.2486 41.8125 32 41.8125ZM23.75 27.1875H40.25C40.2997 27.1875 40.3474 27.1677 40.3826 27.1326C40.4177 27.0974 40.4375 27.0497 40.4375 27V25.5C40.4375 25.4503 40.4177 25.4026 40.3826 25.3674C40.3474 25.3323 40.2997 25.3125 40.25 25.3125H23.75C23.7003 25.3125 23.6526 25.3323 23.6174 25.3674C23.5823 25.4026 23.5625 25.4503 23.5625 25.5V27C23.5625 27.0497 23.5823 27.0974 23.6174 27.1326C23.6526 27.1677 23.7003 27.1875 23.75 27.1875ZM38.9375 28.3125H25.0625V37.6875H38.9375V28.3125Z" fill="#090909"/>
</svg>
