<svg width="44" height="44" viewBox="0 0 44 44" fill="none" xmlns="http://www.w3.org/2000/svg">
<rect width="44" height="44" rx="4" fill="#090909"/>
<mask id="path-2-outside-1_579_452" maskUnits="userSpaceOnUse" x="8" y="13" width="22" height="18" fill="black">
<rect fill="white" x="8" y="13" width="22" height="18"/>
<path d="M15.58 29.16C14.54 29.16 13.66 28.9733 12.94 28.6C12.22 28.2267 11.6333 27.7133 11.18 27.06C10.7267 26.3933 10.4 25.6267 10.2 24.76C10 23.88 9.9 22.9467 9.9 21.96C9.9 20.9467 10 20 10.2 19.12C10.4133 18.24 10.7467 17.4667 11.2 16.8C11.6667 16.1333 12.26 15.6133 12.98 15.24C13.7133 14.8667 14.5933 14.68 15.62 14.68C16.6867 14.68 17.58 14.8733 18.3 15.26C19.0333 15.6467 19.62 16.1867 20.06 16.88C20.5133 17.56 20.8333 18.3333 21.02 19.2C21.22 20.0667 21.32 20.9733 21.32 21.92C21.32 22.8933 21.22 23.8133 21.02 24.68C20.82 25.5467 20.5 26.32 20.06 27C19.62 27.6667 19.0333 28.1933 18.3 28.58C17.5667 28.9667 16.66 29.16 15.58 29.16ZM15.58 26.52C16.2333 26.52 16.7467 26.3733 17.12 26.08C17.5067 25.7733 17.7933 25.38 17.98 24.9C18.18 24.42 18.3067 23.92 18.36 23.4C18.4267 22.8667 18.46 22.3733 18.46 21.92C18.46 21.4933 18.4267 21.02 18.36 20.5C18.3067 19.9667 18.1867 19.4667 18 19C17.8133 18.52 17.5333 18.1267 17.16 17.82C16.7867 17.5133 16.28 17.36 15.64 17.36C15 17.36 14.4867 17.5133 14.1 17.82C13.7133 18.1133 13.42 18.5 13.22 18.98C13.0333 19.46 12.9067 19.96 12.84 20.48C12.7733 21 12.74 21.48 12.74 21.92C12.74 22.36 12.7667 22.8467 12.82 23.38C12.8867 23.9133 13.0133 24.42 13.2 24.9C13.3867 25.38 13.6667 25.7733 14.04 26.08C14.4267 26.3733 14.94 26.52 15.58 26.52ZM26.0431 29V18.62H23.2631V16.46C23.8098 16.4467 24.3031 16.4 24.7431 16.32C25.1831 16.2267 25.5765 16.0667 25.9231 15.84C26.2698 15.6 26.5698 15.2667 26.8231 14.84H28.9031V29H26.0431Z"/>
</mask>
<path d="M12.94 28.6L13.4003 27.7122L12.94 28.6ZM11.18 27.06L10.353 27.6223L10.3584 27.6301L11.18 27.06ZM10.2 24.76L9.22486 24.9816L9.22561 24.9849L10.2 24.76ZM10.2 19.12L9.22815 18.8844L9.22646 18.8914L9.22487 18.8984L10.2 19.12ZM11.2 16.8L10.3807 16.2265L10.3731 16.2377L11.2 16.8ZM12.98 15.24L12.5263 14.3488L12.5197 14.3522L12.98 15.24ZM18.3 15.26L17.8269 16.141L17.8336 16.1446L18.3 15.26ZM20.06 16.88L19.2157 17.4158L19.2217 17.4253L19.228 17.4347L20.06 16.88ZM21.02 19.2L20.0424 19.4106L20.044 19.4177L20.0456 19.4249L21.02 19.2ZM21.02 24.68L20.0456 24.4551L20.0456 24.4551L21.02 24.68ZM20.06 27L20.8946 27.5509L20.8996 27.5433L20.06 27ZM18.3 28.58L17.8336 27.6954L18.3 28.58ZM17.12 26.08L17.7378 26.8663L17.7414 26.8635L17.12 26.08ZM17.98 24.9L17.0569 24.5154L17.0523 24.5264L17.048 24.5376L17.98 24.9ZM18.36 23.4L17.3677 23.276L17.3663 23.287L17.3652 23.298L18.36 23.4ZM18.36 20.5L17.365 20.5995L17.3663 20.6134L17.3681 20.6272L18.36 20.5ZM18 19L17.068 19.3625L17.0715 19.3714L18 19ZM14.1 17.82L14.7044 18.6167L14.713 18.6102L14.7214 18.6035L14.1 17.82ZM13.22 18.98L12.2969 18.5954L12.2923 18.6064L12.288 18.6176L13.22 18.98ZM12.84 20.48L11.8481 20.3528V20.3528L12.84 20.48ZM12.82 23.38L11.825 23.4795L11.8262 23.4918L11.8277 23.504L12.82 23.38ZM14.04 26.08L13.4053 26.8527L13.4202 26.865L13.4356 26.8767L14.04 26.08ZM15.58 28.16C14.6563 28.16 13.9436 27.994 13.4003 27.7122L12.4797 29.4878C13.3764 29.9527 14.4237 30.16 15.58 30.16V28.16ZM13.4003 27.7122C12.8218 27.4123 12.3602 27.0068 12.0016 26.4899L10.3584 27.6301C10.9064 28.4199 11.6182 29.0411 12.4797 29.4878L13.4003 27.7122ZM12.0069 26.4977C11.6301 25.9435 11.3494 25.2936 11.1744 24.5351L9.22561 24.9849C9.45058 25.9597 9.82328 26.8432 10.3531 27.6223L12.0069 26.4977ZM11.1751 24.5384C10.9931 23.7375 10.9 22.879 10.9 21.96H8.9C8.9 23.0144 9.00689 24.0225 9.22487 24.9816L11.1751 24.5384ZM10.9 21.96C10.9 21.0123 10.9935 20.1407 11.1751 19.3416L9.22487 18.8984C9.00647 19.8593 8.9 20.8811 8.9 21.96H10.9ZM11.1719 19.3556C11.3603 18.578 11.6489 17.9182 12.0269 17.3623L10.3731 16.2377C9.84441 17.0151 9.46632 17.902 9.22815 18.8844L11.1719 19.3556ZM12.0192 17.3735C12.3937 16.8385 12.8641 16.4266 13.4403 16.1278L12.5197 14.3522C11.6559 14.8001 10.9396 15.4282 10.3808 16.2265L12.0192 17.3735ZM13.4337 16.1312C13.996 15.8449 14.7128 15.68 15.62 15.68V13.68C14.4739 13.68 13.4307 13.8884 12.5263 14.3488L13.4337 16.1312ZM15.62 15.68C16.5703 15.68 17.29 15.8527 17.8269 16.141L18.7731 14.379C17.87 13.894 16.803 13.68 15.62 13.68V15.68ZM17.8336 16.1446C18.4143 16.4507 18.87 16.8712 19.2157 17.4158L20.9043 16.3442C20.37 15.5022 19.6524 14.8426 18.7664 14.3754L17.8336 16.1446ZM19.228 17.4347C19.6059 18.0016 19.88 18.6563 20.0424 19.4106L21.9976 18.9894C21.7867 18.0104 21.4208 17.1184 20.8921 16.3253L19.228 17.4347ZM20.0456 19.4249C20.2275 20.2132 20.32 21.0442 20.32 21.92H22.32C22.32 20.9025 22.2125 19.9201 21.9944 18.9751L20.0456 19.4249ZM20.32 21.92C20.32 22.8247 20.2271 23.6688 20.0456 24.4551L21.9944 24.9049C22.2129 23.9579 22.32 22.962 22.32 21.92H20.32ZM20.0456 24.4551C19.8692 25.2197 19.5914 25.8834 19.2204 26.4567L20.8996 27.5433C21.4086 26.7566 21.7708 25.8736 21.9944 24.9049L20.0456 24.4551ZM19.2254 26.4492C18.8817 26.9699 18.4239 27.3842 17.8336 27.6954L18.7664 29.4646C19.6427 29.0025 20.3583 28.3634 20.8946 27.5508L19.2254 26.4492ZM17.8336 27.6954C17.281 27.9868 16.5451 28.16 15.58 28.16V30.16C16.7749 30.16 17.8524 29.9465 18.7664 29.4646L17.8336 27.6954ZM15.58 27.52C16.3742 27.52 17.1325 27.342 17.7378 26.8663L16.5022 25.2937C16.3609 25.4047 16.0925 25.52 15.58 25.52V27.52ZM17.7414 26.8635C18.2733 26.4416 18.6639 25.9004 18.912 25.2624L17.048 24.5376C16.9227 24.8596 16.74 25.105 16.4986 25.2965L17.7414 26.8635ZM18.9031 25.2846C19.1409 24.7139 19.2915 24.1187 19.3548 23.502L17.3652 23.298C17.3218 23.7213 17.2191 24.1261 17.0569 24.5154L18.9031 25.2846ZM19.3523 23.524C19.4232 22.9569 19.46 22.4216 19.46 21.92H17.46C17.46 22.3251 17.4302 22.7765 17.3677 23.276L19.3523 23.524ZM19.46 21.92C19.46 21.4425 19.4228 20.9259 19.3519 20.3728L17.3681 20.6272C17.4305 21.1141 17.46 21.5442 17.46 21.92H19.46ZM19.355 20.4005C19.293 19.78 19.1522 19.1879 18.9285 18.6286L17.0715 19.3714C17.2211 19.7454 17.3203 20.1533 17.365 20.5995L19.355 20.4005ZM18.932 18.6376C18.6874 18.0085 18.3095 17.4701 17.7947 17.0473L16.5253 18.5927C16.7572 18.7832 16.9393 19.0315 17.068 19.3624L18.932 18.6376ZM17.7947 17.0473C17.1917 16.5519 16.4358 16.36 15.64 16.36V18.36C16.1242 18.36 16.3817 18.4748 16.5253 18.5927L17.7947 17.0473ZM15.64 16.36C14.842 16.36 14.0886 16.5527 13.4786 17.0365L14.7214 18.6035C14.8847 18.4739 15.158 18.36 15.64 18.36V16.36ZM13.4956 17.0233C12.9581 17.4311 12.5599 17.9643 12.2969 18.5954L14.1431 19.3646C14.2801 19.0357 14.4685 18.7956 14.7044 18.6167L13.4956 17.0233ZM12.288 18.6176C12.0714 19.1746 11.9249 19.7537 11.8481 20.3528L13.8319 20.6072C13.8884 20.1663 13.9953 19.7454 14.152 19.3424L12.288 18.6176ZM11.8481 20.3528C11.777 20.9073 11.74 21.4304 11.74 21.92H13.74C13.74 21.5296 13.7696 21.0927 13.8319 20.6072L11.8481 20.3528ZM11.74 21.92C11.74 22.3995 11.769 22.9199 11.825 23.4795L13.815 23.2805C13.7643 22.7734 13.74 22.3205 13.74 21.92H11.74ZM11.8277 23.504C11.9041 24.1155 12.0502 24.7025 12.268 25.2624L14.132 24.5376C13.9764 24.1375 13.8692 23.7112 13.8123 23.256L11.8277 23.504ZM12.268 25.2624C12.5126 25.8915 12.8905 26.4299 13.4053 26.8527L14.6747 25.3073C14.4428 25.1168 14.2607 24.8685 14.132 24.5376L12.268 25.2624ZM13.4356 26.8767C14.0444 27.3385 14.7912 27.52 15.58 27.52V25.52C15.0888 25.52 14.809 25.4082 14.6444 25.2833L13.4356 26.8767ZM26.0431 29H25.0431V30H26.0431V29ZM26.0431 18.62H27.0431V17.62H26.0431V18.62ZM23.2631 18.62H22.2631V19.62H23.2631V18.62ZM23.2631 16.46L23.2387 15.4603L22.2631 15.4841V16.46H23.2631ZM24.7431 16.32L24.922 17.3039L24.9364 17.3013L24.9506 17.2982L24.7431 16.32ZM25.9231 15.84L26.4704 16.677L26.4815 16.6697L26.4923 16.6622L25.9231 15.84ZM26.8231 14.84V13.84H26.2539L25.9633 14.3295L26.8231 14.84ZM28.9031 14.84H29.9031V13.84H28.9031V14.84ZM28.9031 29V30H29.9031V29H28.9031ZM27.0431 29V18.62H25.0431V29H27.0431ZM26.0431 17.62H23.2631V19.62H26.0431V17.62ZM24.2631 18.62V16.46H22.2631V18.62H24.2631ZM23.2875 17.4597C23.875 17.4454 24.4212 17.3949 24.922 17.3039L24.5642 15.3361C24.185 15.4051 23.7445 15.448 23.2387 15.4603L23.2875 17.4597ZM24.9506 17.2982C25.5012 17.1814 26.0116 16.9769 26.4704 16.677L25.3759 15.003C25.1413 15.1564 24.8651 15.2719 24.5356 15.3418L24.9506 17.2982ZM26.4923 16.6622C26.9762 16.3272 27.3691 15.8791 27.683 15.3505L25.9633 14.3295C25.7705 14.6542 25.5634 14.8728 25.3539 15.0178L26.4923 16.6622ZM26.8231 15.84H28.9031V13.84H26.8231V15.84ZM27.9031 14.84V29H29.9031V14.84H27.9031ZM28.9031 28H26.0431V30H28.9031V28Z" fill="white" mask="url(#path-2-outside-1_579_452)"/>
</svg>
