<svg width="44" height="44" viewBox="0 0 44 44" fill="none" xmlns="http://www.w3.org/2000/svg">
<rect width="44" height="44" rx="4" fill="#090909"/>
<mask id="path-2-outside-1_579_712" maskUnits="userSpaceOnUse" x="8" y="13" width="28" height="18" fill="black">
<rect fill="white" x="8" y="13" width="28" height="18"/>
<path d="M15.58 29.16C14.54 29.16 13.66 28.9733 12.94 28.6C12.22 28.2267 11.6333 27.7133 11.18 27.06C10.7267 26.3933 10.4 25.6267 10.2 24.76C10 23.88 9.9 22.9467 9.9 21.96C9.9 20.9467 10 20 10.2 19.12C10.4133 18.24 10.7467 17.4667 11.2 16.8C11.6667 16.1333 12.26 15.6133 12.98 15.24C13.7133 14.8667 14.5933 14.68 15.62 14.68C16.6867 14.68 17.58 14.8733 18.3 15.26C19.0333 15.6467 19.62 16.1867 20.06 16.88C20.5133 17.56 20.8333 18.3333 21.02 19.2C21.22 20.0667 21.32 20.9733 21.32 21.92C21.32 22.8933 21.22 23.8133 21.02 24.68C20.82 25.5467 20.5 26.32 20.06 27C19.62 27.6667 19.0333 28.1933 18.3 28.58C17.5667 28.9667 16.66 29.16 15.58 29.16ZM15.58 26.52C16.2333 26.52 16.7467 26.3733 17.12 26.08C17.5067 25.7733 17.7933 25.38 17.98 24.9C18.18 24.42 18.3067 23.92 18.36 23.4C18.4267 22.8667 18.46 22.3733 18.46 21.92C18.46 21.4933 18.4267 21.02 18.36 20.5C18.3067 19.9667 18.1867 19.4667 18 19C17.8133 18.52 17.5333 18.1267 17.16 17.82C16.7867 17.5133 16.28 17.36 15.64 17.36C15 17.36 14.4867 17.5133 14.1 17.82C13.7133 18.1133 13.42 18.5 13.22 18.98C13.0333 19.46 12.9067 19.96 12.84 20.48C12.7733 21 12.74 21.48 12.74 21.92C12.74 22.36 12.7667 22.8467 12.82 23.38C12.8867 23.9133 13.0133 24.42 13.2 24.9C13.3867 25.38 13.6667 25.7733 14.04 26.08C14.4267 26.3733 14.94 26.52 15.58 26.52ZM29.0431 29.14C28.3631 29.14 27.7098 29.06 27.0831 28.9C26.4565 28.74 25.8831 28.4867 25.3631 28.14C24.8431 27.7933 24.4098 27.3533 24.0631 26.82C23.7165 26.2733 23.5031 25.62 23.4231 24.86H26.2631C26.3565 25.2333 26.5365 25.5467 26.8031 25.8C27.0831 26.04 27.4165 26.2133 27.8031 26.32C28.2031 26.4267 28.6231 26.48 29.0631 26.48C29.3565 26.48 29.6431 26.4533 29.9231 26.4C30.2165 26.3467 30.4765 26.2533 30.7031 26.12C30.9431 25.9867 31.1298 25.8067 31.2631 25.58C31.3965 25.3533 31.4631 25.0667 31.4631 24.72C31.4631 24.4 31.4031 24.1333 31.2831 23.92C31.1631 23.7067 31.0031 23.5333 30.8031 23.4C30.6031 23.2667 30.3631 23.1733 30.0831 23.12C29.8165 23.0667 29.5298 23.04 29.2231 23.04H27.5831V20.6H28.6831C29.0298 20.6 29.3431 20.5667 29.6231 20.5C29.9031 20.42 30.1365 20.3133 30.3231 20.18C30.5231 20.0333 30.6765 19.86 30.7831 19.66C30.8898 19.4467 30.9431 19.2067 30.9431 18.94C30.9431 18.54 30.8565 18.2267 30.6831 18C30.5098 17.76 30.2698 17.5867 29.9631 17.48C29.6565 17.3733 29.3031 17.32 28.9031 17.32C28.5298 17.32 28.1765 17.38 27.8431 17.5C27.5231 17.6067 27.2565 17.7667 27.0431 17.98C26.8298 18.1933 26.6898 18.4533 26.6231 18.76H23.8431C23.9231 18.04 24.1165 17.4267 24.4231 16.92C24.7298 16.4 25.1231 15.9733 25.6031 15.64C26.0831 15.3067 26.6165 15.0667 27.2031 14.92C27.8031 14.76 28.4231 14.68 29.0631 14.68C29.6765 14.68 30.2631 14.7467 30.8231 14.88C31.3831 15.0133 31.8831 15.2333 32.3231 15.54C32.7765 15.8333 33.1365 16.2267 33.4031 16.72C33.6698 17.2133 33.8031 17.8067 33.8031 18.5C33.8031 18.9267 33.7298 19.3267 33.5831 19.7C33.4498 20.0733 33.2498 20.4067 32.9831 20.7C32.7298 20.98 32.4298 21.2133 32.0831 21.4C32.6031 21.5467 33.0298 21.7867 33.3631 22.12C33.6965 22.4533 33.9431 22.8467 34.1031 23.3C34.2765 23.7533 34.3631 24.24 34.3631 24.76C34.3631 25.6133 34.2031 26.3267 33.8831 26.9C33.5765 27.46 33.1631 27.9067 32.6431 28.24C32.1231 28.56 31.5498 28.7933 30.9231 28.94C30.2965 29.0733 29.6698 29.14 29.0431 29.14Z"/>
</mask>
<path d="M12.94 28.6L13.4003 27.7122L12.94 28.6ZM11.18 27.06L10.353 27.6223L10.3584 27.6301L11.18 27.06ZM10.2 24.76L9.22486 24.9816L9.22561 24.9849L10.2 24.76ZM10.2 19.12L9.22815 18.8844L9.22646 18.8914L9.22487 18.8984L10.2 19.12ZM11.2 16.8L10.3807 16.2265L10.3731 16.2377L11.2 16.8ZM12.98 15.24L12.5263 14.3488L12.5197 14.3522L12.98 15.24ZM18.3 15.26L17.8269 16.141L17.8336 16.1446L18.3 15.26ZM20.06 16.88L19.2157 17.4158L19.2217 17.4253L19.228 17.4347L20.06 16.88ZM21.02 19.2L20.0424 19.4106L20.044 19.4177L20.0456 19.4249L21.02 19.2ZM21.02 24.68L20.0456 24.4551L20.0456 24.4551L21.02 24.68ZM20.06 27L20.8946 27.5509L20.8996 27.5433L20.06 27ZM18.3 28.58L17.8336 27.6954L18.3 28.58ZM17.12 26.08L17.7378 26.8663L17.7414 26.8635L17.12 26.08ZM17.98 24.9L17.0569 24.5154L17.0523 24.5264L17.048 24.5376L17.98 24.9ZM18.36 23.4L17.3677 23.276L17.3663 23.287L17.3652 23.298L18.36 23.4ZM18.36 20.5L17.365 20.5995L17.3663 20.6134L17.3681 20.6272L18.36 20.5ZM18 19L17.068 19.3625L17.0715 19.3714L18 19ZM14.1 17.82L14.7044 18.6167L14.713 18.6102L14.7214 18.6035L14.1 17.82ZM13.22 18.98L12.2969 18.5954L12.2923 18.6064L12.288 18.6176L13.22 18.98ZM12.84 20.48L11.8481 20.3528V20.3528L12.84 20.48ZM12.82 23.38L11.825 23.4795L11.8262 23.4918L11.8277 23.504L12.82 23.38ZM14.04 26.08L13.4053 26.8527L13.4202 26.865L13.4356 26.8767L14.04 26.08ZM15.58 28.16C14.6563 28.16 13.9436 27.994 13.4003 27.7122L12.4797 29.4878C13.3764 29.9527 14.4237 30.16 15.58 30.16V28.16ZM13.4003 27.7122C12.8218 27.4123 12.3602 27.0068 12.0016 26.4899L10.3584 27.6301C10.9064 28.4199 11.6182 29.0411 12.4797 29.4878L13.4003 27.7122ZM12.0069 26.4977C11.6301 25.9435 11.3494 25.2936 11.1744 24.5351L9.22561 24.9849C9.45058 25.9597 9.82328 26.8432 10.3531 27.6223L12.0069 26.4977ZM11.1751 24.5384C10.9931 23.7375 10.9 22.879 10.9 21.96H8.9C8.9 23.0144 9.00689 24.0225 9.22487 24.9816L11.1751 24.5384ZM10.9 21.96C10.9 21.0123 10.9935 20.1407 11.1751 19.3416L9.22487 18.8984C9.00647 19.8593 8.9 20.8811 8.9 21.96H10.9ZM11.1719 19.3556C11.3603 18.578 11.6489 17.9182 12.0269 17.3623L10.3731 16.2377C9.84441 17.0151 9.46632 17.902 9.22815 18.8844L11.1719 19.3556ZM12.0192 17.3735C12.3937 16.8385 12.8641 16.4266 13.4403 16.1278L12.5197 14.3522C11.6559 14.8001 10.9396 15.4282 10.3808 16.2265L12.0192 17.3735ZM13.4337 16.1312C13.996 15.8449 14.7128 15.68 15.62 15.68V13.68C14.4739 13.68 13.4307 13.8884 12.5263 14.3488L13.4337 16.1312ZM15.62 15.68C16.5703 15.68 17.29 15.8527 17.8269 16.141L18.7731 14.379C17.87 13.894 16.803 13.68 15.62 13.68V15.68ZM17.8336 16.1446C18.4143 16.4507 18.87 16.8712 19.2157 17.4158L20.9043 16.3442C20.37 15.5022 19.6524 14.8426 18.7664 14.3754L17.8336 16.1446ZM19.228 17.4347C19.6059 18.0016 19.88 18.6563 20.0424 19.4106L21.9976 18.9894C21.7867 18.0104 21.4208 17.1184 20.8921 16.3253L19.228 17.4347ZM20.0456 19.4249C20.2275 20.2132 20.32 21.0442 20.32 21.92H22.32C22.32 20.9025 22.2125 19.9201 21.9944 18.9751L20.0456 19.4249ZM20.32 21.92C20.32 22.8247 20.2271 23.6688 20.0456 24.4551L21.9944 24.9049C22.2129 23.9579 22.32 22.962 22.32 21.92H20.32ZM20.0456 24.4551C19.8692 25.2197 19.5914 25.8834 19.2204 26.4567L20.8996 27.5433C21.4086 26.7566 21.7708 25.8736 21.9944 24.9049L20.0456 24.4551ZM19.2254 26.4492C18.8817 26.9699 18.4239 27.3842 17.8336 27.6954L18.7664 29.4646C19.6427 29.0025 20.3583 28.3634 20.8946 27.5508L19.2254 26.4492ZM17.8336 27.6954C17.281 27.9868 16.5451 28.16 15.58 28.16V30.16C16.7749 30.16 17.8524 29.9465 18.7664 29.4646L17.8336 27.6954ZM15.58 27.52C16.3742 27.52 17.1325 27.342 17.7378 26.8663L16.5022 25.2937C16.3609 25.4047 16.0925 25.52 15.58 25.52V27.52ZM17.7414 26.8635C18.2733 26.4416 18.6639 25.9004 18.912 25.2624L17.048 24.5376C16.9227 24.8596 16.74 25.105 16.4986 25.2965L17.7414 26.8635ZM18.9031 25.2846C19.1409 24.7139 19.2915 24.1187 19.3548 23.502L17.3652 23.298C17.3218 23.7213 17.2191 24.1261 17.0569 24.5154L18.9031 25.2846ZM19.3523 23.524C19.4232 22.9569 19.46 22.4216 19.46 21.92H17.46C17.46 22.3251 17.4302 22.7765 17.3677 23.276L19.3523 23.524ZM19.46 21.92C19.46 21.4425 19.4228 20.9259 19.3519 20.3728L17.3681 20.6272C17.4305 21.1141 17.46 21.5442 17.46 21.92H19.46ZM19.355 20.4005C19.293 19.78 19.1522 19.1879 18.9285 18.6286L17.0715 19.3714C17.2211 19.7454 17.3203 20.1533 17.365 20.5995L19.355 20.4005ZM18.932 18.6376C18.6874 18.0085 18.3095 17.4701 17.7947 17.0473L16.5253 18.5927C16.7572 18.7832 16.9393 19.0315 17.068 19.3624L18.932 18.6376ZM17.7947 17.0473C17.1917 16.5519 16.4358 16.36 15.64 16.36V18.36C16.1242 18.36 16.3817 18.4748 16.5253 18.5927L17.7947 17.0473ZM15.64 16.36C14.842 16.36 14.0886 16.5527 13.4786 17.0365L14.7214 18.6035C14.8847 18.4739 15.158 18.36 15.64 18.36V16.36ZM13.4956 17.0233C12.9581 17.4311 12.5599 17.9643 12.2969 18.5954L14.1431 19.3646C14.2801 19.0357 14.4685 18.7956 14.7044 18.6167L13.4956 17.0233ZM12.288 18.6176C12.0714 19.1746 11.9249 19.7537 11.8481 20.3528L13.8319 20.6072C13.8884 20.1663 13.9953 19.7454 14.152 19.3424L12.288 18.6176ZM11.8481 20.3528C11.777 20.9073 11.74 21.4304 11.74 21.92H13.74C13.74 21.5296 13.7696 21.0927 13.8319 20.6072L11.8481 20.3528ZM11.74 21.92C11.74 22.3995 11.769 22.9199 11.825 23.4795L13.815 23.2805C13.7643 22.7734 13.74 22.3205 13.74 21.92H11.74ZM11.8277 23.504C11.9041 24.1155 12.0502 24.7025 12.268 25.2624L14.132 24.5376C13.9764 24.1375 13.8692 23.7112 13.8123 23.256L11.8277 23.504ZM12.268 25.2624C12.5126 25.8915 12.8905 26.4299 13.4053 26.8527L14.6747 25.3073C14.4428 25.1168 14.2607 24.8685 14.132 24.5376L12.268 25.2624ZM13.4356 26.8767C14.0444 27.3385 14.7912 27.52 15.58 27.52V25.52C15.0888 25.52 14.809 25.4082 14.6444 25.2833L13.4356 26.8767ZM25.3631 28.14L25.9178 27.3079L25.3631 28.14ZM24.0631 26.82L23.2186 27.3556L23.2247 27.365L24.0631 26.82ZM23.4231 24.86V23.86H22.3123L22.4286 24.9647L23.4231 24.86ZM26.2631 24.86L27.2333 24.6175L27.0439 23.86H26.2631V24.86ZM26.8031 25.8L26.1144 26.525L26.1329 26.5426L26.1523 26.5593L26.8031 25.8ZM27.8031 26.32L27.5372 27.284L27.5455 27.2862L27.8031 26.32ZM29.9231 26.4L29.7442 25.4161L29.736 25.4177L29.9231 26.4ZM30.7031 26.12L30.2175 25.2458L30.2067 25.2518L30.1961 25.2581L30.7031 26.12ZM31.2631 25.58L32.1251 26.087L31.2631 25.58ZM31.2831 23.92L32.1547 23.4297L31.2831 23.92ZM30.8031 23.4L30.2484 24.232H30.2484L30.8031 23.4ZM30.0831 23.12L29.887 24.1006L29.896 24.1023L30.0831 23.12ZM27.5831 23.04H26.5831V24.04H27.5831V23.04ZM27.5831 20.6V19.6H26.5831V20.6H27.5831ZM29.6231 20.5L29.8547 21.4728L29.8764 21.4676L29.8978 21.4615L29.6231 20.5ZM30.3231 20.18L30.9044 20.9938L30.9145 20.9864L30.3231 20.18ZM30.7831 19.66L31.6655 20.1306L31.6717 20.119L31.6776 20.1072L30.7831 19.66ZM30.6831 18L29.8724 18.5855L29.8805 18.5966L29.8888 18.6075L30.6831 18ZM27.8431 17.5L28.1594 18.4487L28.1706 18.4449L28.1818 18.4409L27.8431 17.5ZM27.0431 17.98L27.7502 18.6871L27.7502 18.6871L27.0431 17.98ZM26.6231 18.76V19.76H27.4291L27.6003 18.9724L26.6231 18.76ZM23.8431 18.76L22.8492 18.6496L22.7259 19.76H23.8431V18.76ZM24.4231 16.92L25.2787 17.4378L25.2845 17.428L24.4231 16.92ZM25.6031 15.64L25.0327 14.8186L25.0327 14.8186L25.6031 15.64ZM27.2031 14.92L27.4457 15.8901L27.4532 15.8882L27.4608 15.8862L27.2031 14.92ZM30.8231 14.88L31.0547 13.9072L30.8231 14.88ZM32.3231 15.54L31.7513 16.3604L31.7654 16.3702L31.7799 16.3796L32.3231 15.54ZM33.4031 16.72L34.2828 16.2445L34.2828 16.2445L33.4031 16.72ZM33.5831 19.7L32.6524 19.3343L32.6467 19.3489L32.6414 19.3637L33.5831 19.7ZM32.9831 20.7L32.2432 20.0273L32.2416 20.0291L32.9831 20.7ZM32.0831 21.4L31.609 20.5195L29.4326 21.6914L31.8117 22.3624L32.0831 21.4ZM33.3631 22.12L32.656 22.8271L32.656 22.8271L33.3631 22.12ZM34.1031 23.3L33.1601 23.6328L33.1644 23.645L33.1691 23.6571L34.1031 23.3ZM33.8831 26.9L33.0099 26.4126L33.006 26.4197L33.8831 26.9ZM32.6431 28.24L33.1672 29.0917L33.1751 29.0868L33.1828 29.0819L32.6431 28.24ZM30.9231 28.94L31.1312 29.9181L31.1411 29.916L31.151 29.9137L30.9231 28.94ZM29.0431 28.14C28.4423 28.14 27.8723 28.0694 27.3305 27.9311L26.8357 29.8689C27.5473 30.0506 28.284 30.14 29.0431 30.14V28.14ZM27.3305 27.9311C26.8094 27.798 26.3406 27.5898 25.9178 27.3079L24.8084 28.972C25.4257 29.3835 26.1035 29.682 26.8357 29.8689L27.3305 27.9311ZM25.9178 27.3079C25.513 27.0381 25.1755 26.6965 24.9016 26.275L23.2247 27.365C23.6441 28.0102 24.1733 28.5486 24.8084 28.972L25.9178 27.3079ZM24.9076 26.2845C24.6571 25.8894 24.4844 25.3896 24.4176 24.7553L22.4286 24.9647C22.5219 25.8504 22.7758 26.6572 23.2186 27.3555L24.9076 26.2845ZM23.4231 25.86H26.2631V23.86H23.4231V25.86ZM25.293 25.1025C25.4301 25.6512 25.7035 26.1346 26.1144 26.525L27.4919 25.075C27.3695 24.9587 27.2828 24.8155 27.2333 24.6175L25.293 25.1025ZM26.1523 26.5593C26.5535 26.9031 27.0214 27.1417 27.5372 27.284L28.0691 25.356C27.8116 25.285 27.6127 25.1769 27.4539 25.0407L26.1523 26.5593ZM27.5455 27.2862C28.0346 27.4167 28.5416 27.48 29.0631 27.48V25.48C28.7047 25.48 28.3716 25.4367 28.0608 25.3538L27.5455 27.2862ZM29.0631 27.48C29.4174 27.48 29.7668 27.4478 30.1102 27.3823L29.736 25.4177C29.5195 25.4589 29.2955 25.48 29.0631 25.48V27.48ZM30.102 27.3839C30.4957 27.3123 30.8695 27.1823 31.2101 26.9819L30.1961 25.2581C30.0834 25.3244 29.9372 25.381 29.7442 25.4161L30.102 27.3839ZM31.1888 26.9942C31.5775 26.7782 31.8972 26.4743 32.1251 26.087L30.4012 25.073C30.3624 25.139 30.3087 25.1952 30.2175 25.2458L31.1888 26.9942ZM32.1251 26.087C32.3732 25.6652 32.4631 25.1898 32.4631 24.72H30.4631C30.4631 24.9435 30.4197 25.0414 30.4012 25.073L32.1251 26.087ZM32.4631 24.72C32.4631 24.2795 32.3809 23.8319 32.1547 23.4297L30.4116 24.4103C30.4254 24.4348 30.4631 24.5205 30.4631 24.72H32.4631ZM32.1547 23.4297C31.9589 23.0817 31.6914 22.7903 31.3578 22.5679L30.2484 24.232C30.3149 24.2764 30.3673 24.3316 30.4116 24.4103L32.1547 23.4297ZM31.3578 22.568C31.0279 22.348 30.6576 22.2114 30.2702 22.1377L29.896 24.1023C30.0687 24.1352 30.1783 24.1853 30.2484 24.232L31.3578 22.568ZM30.2792 22.1394C29.9404 22.0717 29.5874 22.04 29.2231 22.04V24.04C29.4721 24.04 29.6925 24.0617 29.887 24.1006L30.2792 22.1394ZM29.2231 22.04H27.5831V24.04H29.2231V22.04ZM28.5831 23.04V20.6H26.5831V23.04H28.5831ZM27.5831 21.6H28.6831V19.6H27.5831V21.6ZM28.6831 21.6C29.0925 21.6 29.4853 21.5608 29.8547 21.4728L29.3915 19.5272C29.2009 19.5726 28.9671 19.6 28.6831 19.6V21.6ZM29.8978 21.4615C30.2595 21.3582 30.6035 21.2086 30.9044 20.9937L29.7419 19.3663C29.6694 19.418 29.5468 19.4818 29.3484 19.5385L29.8978 21.4615ZM30.9145 20.9864C31.2239 20.7595 31.4818 20.475 31.6655 20.1306L29.9008 19.1894C29.8711 19.245 29.8224 19.3072 29.7318 19.3736L30.9145 20.9864ZM31.6776 20.1072C31.8615 19.7394 31.9431 19.3434 31.9431 18.94H29.9431C29.9431 19.0699 29.9181 19.154 29.8887 19.2128L31.6776 20.1072ZM31.9431 18.94C31.9431 18.4067 31.8285 17.8516 31.4775 17.3925L29.8888 18.6075C29.8888 18.6075 29.8895 18.6084 29.8906 18.6103C29.8918 18.6122 29.8936 18.6153 29.8959 18.6201C29.9004 18.6295 29.9072 18.646 29.9143 18.6716C29.9289 18.7242 29.9431 18.8102 29.9431 18.94H31.9431ZM31.4938 17.4145C31.1888 16.9921 30.7724 16.7027 30.2916 16.5355L29.6346 18.4245C29.7672 18.4706 29.8308 18.5279 29.8724 18.5855L31.4938 17.4145ZM30.2916 16.5355C29.8581 16.3847 29.39 16.32 28.9031 16.32V18.32C29.2163 18.32 29.4548 18.362 29.6346 18.4245L30.2916 16.5355ZM28.9031 16.32C28.4206 16.32 27.9521 16.3979 27.5044 16.5591L28.1818 18.4409C28.4008 18.3621 28.639 18.32 28.9031 18.32V16.32ZM27.5269 16.5513C27.0772 16.7012 26.6715 16.9374 26.336 17.2729L27.7502 18.6871C27.8414 18.5959 27.9691 18.5121 28.1594 18.4487L27.5269 16.5513ZM26.336 17.2729C25.9815 17.6274 25.7516 18.0615 25.6459 18.5476L27.6003 18.9724C27.628 18.8452 27.6781 18.7592 27.7502 18.6871L26.336 17.2729ZM26.6231 17.76H23.8431V19.76H26.6231V17.76ZM24.837 18.8704C24.9045 18.2631 25.0619 17.7958 25.2786 17.4378L23.5676 16.4022C23.171 17.0575 22.9418 17.8169 22.8492 18.6496L24.837 18.8704ZM25.2845 17.428C25.5204 17.028 25.8159 16.7097 26.1735 16.4614L25.0327 14.8186C24.4303 15.237 23.9392 15.772 23.5618 16.412L25.2845 17.428ZM26.1735 16.4614C26.5507 16.1995 26.9722 16.0085 27.4457 15.8901L26.9606 13.9499C26.2607 14.1248 25.6156 14.4139 25.0327 14.8186L26.1735 16.4614ZM27.4608 15.8862C27.9742 15.7493 28.5074 15.68 29.0631 15.68V13.68C28.3388 13.68 27.6321 13.7707 26.9455 13.9538L27.4608 15.8862ZM29.0631 15.68C29.6035 15.68 30.1122 15.7387 30.5915 15.8528L31.0547 13.9072C30.4141 13.7547 29.7494 13.68 29.0631 13.68V15.68ZM30.5915 15.8528C31.0386 15.9593 31.4215 16.1305 31.7513 16.3604L32.8949 14.7196C32.3447 14.3361 31.7277 14.0674 31.0547 13.9072L30.5915 15.8528ZM31.7799 16.3796C32.0867 16.5781 32.3334 16.8439 32.5234 17.1955L34.2828 16.2445C33.9395 15.6094 33.4662 15.0885 32.8664 14.7004L31.7799 16.3796ZM32.5234 17.1955C32.6946 17.5122 32.8031 17.934 32.8031 18.5H34.8031C34.8031 17.6793 34.645 16.9145 34.2828 16.2445L32.5234 17.1955ZM32.8031 18.5C32.8031 18.8096 32.7504 19.0848 32.6524 19.3343L34.5139 20.0657C34.7092 19.5686 34.8031 19.0438 34.8031 18.5H32.8031ZM32.6414 19.3637C32.5525 19.6127 32.421 19.8317 32.2432 20.0273L33.7231 21.3727C34.0785 20.9816 34.3471 20.534 34.5249 20.0363L32.6414 19.3637ZM32.2416 20.0291C32.068 20.2209 31.8596 20.3846 31.609 20.5195L32.5572 22.2805C33 22.0421 33.3916 21.7391 33.7247 21.3709L32.2416 20.0291ZM31.8117 22.3624C32.1914 22.4695 32.4604 22.6315 32.656 22.8271L34.0702 21.4129C33.5992 20.9419 33.0149 20.6238 32.3546 20.4375L31.8117 22.3624ZM32.656 22.8271C32.8816 23.0527 33.0488 23.3174 33.1601 23.6328L35.0461 22.9672C34.8374 22.3759 34.5113 21.854 34.0702 21.4129L32.656 22.8271ZM33.1691 23.6571C33.2958 23.9885 33.3631 24.3533 33.3631 24.76H35.3631C35.3631 24.1267 35.2571 23.5181 35.0372 22.9429L33.1691 23.6571ZM33.3631 24.76C33.3631 25.4924 33.2255 26.0264 33.0099 26.4126L34.7563 27.3874C35.1807 26.6269 35.3631 25.7342 35.3631 24.76H33.3631ZM33.006 26.4197C32.777 26.838 32.4776 27.1583 32.1035 27.3981L33.1828 29.0819C33.8486 28.6551 34.3759 28.082 34.7602 27.3803L33.006 26.4197ZM32.119 27.3883C31.6954 27.649 31.2229 27.8428 30.6952 27.9663L31.151 29.9137C31.8766 29.7439 32.5508 29.471 33.1672 29.0917L32.119 27.3883ZM30.715 27.9619C30.1552 28.081 29.5983 28.14 29.0431 28.14V30.14C29.7413 30.14 30.4377 30.0657 31.1312 29.9181L30.715 27.9619Z" fill="white" mask="url(#path-2-outside-1_579_712)"/>
</svg>
