<svg width="44" height="44" viewBox="0 0 44 44" fill="none" xmlns="http://www.w3.org/2000/svg">
<rect width="44" height="44" rx="4" fill="#090909"/>
<mask id="path-2-outside-1_579_392" maskUnits="userSpaceOnUse" x="8" y="13" width="27" height="18" fill="black">
<rect fill="white" x="8" y="13" width="27" height="18"/>
<path d="M15.58 29.16C14.54 29.16 13.66 28.9733 12.94 28.6C12.22 28.2267 11.6333 27.7133 11.18 27.06C10.7267 26.3933 10.4 25.6267 10.2 24.76C10 23.88 9.9 22.9467 9.9 21.96C9.9 20.9467 10 20 10.2 19.12C10.4133 18.24 10.7467 17.4667 11.2 16.8C11.6667 16.1333 12.26 15.6133 12.98 15.24C13.7133 14.8667 14.5933 14.68 15.62 14.68C16.6867 14.68 17.58 14.8733 18.3 15.26C19.0333 15.6467 19.62 16.1867 20.06 16.88C20.5133 17.56 20.8333 18.3333 21.02 19.2C21.22 20.0667 21.32 20.9733 21.32 21.92C21.32 22.8933 21.22 23.8133 21.02 24.68C20.82 25.5467 20.5 26.32 20.06 27C19.62 27.6667 19.0333 28.1933 18.3 28.58C17.5667 28.9667 16.66 29.16 15.58 29.16ZM15.58 26.52C16.2333 26.52 16.7467 26.3733 17.12 26.08C17.5067 25.7733 17.7933 25.38 17.98 24.9C18.18 24.42 18.3067 23.92 18.36 23.4C18.4267 22.8667 18.46 22.3733 18.46 21.92C18.46 21.4933 18.4267 21.02 18.36 20.5C18.3067 19.9667 18.1867 19.4667 18 19C17.8133 18.52 17.5333 18.1267 17.16 17.82C16.7867 17.5133 16.28 17.36 15.64 17.36C15 17.36 14.4867 17.5133 14.1 17.82C13.7133 18.1133 13.42 18.5 13.22 18.98C13.0333 19.46 12.9067 19.96 12.84 20.48C12.7733 21 12.74 21.48 12.74 21.92C12.74 22.36 12.7667 22.8467 12.82 23.38C12.8867 23.9133 13.0133 24.42 13.2 24.9C13.3867 25.38 13.6667 25.7733 14.04 26.08C14.4267 26.3733 14.94 26.52 15.58 26.52ZM23.1302 29V26.64L27.0502 23.38C27.3302 23.14 27.6502 22.8733 28.0102 22.58C28.3835 22.2733 28.7368 21.9467 29.0702 21.6C29.4168 21.2533 29.6968 20.8867 29.9102 20.5C30.1368 20.1133 30.2502 19.7133 30.2502 19.3C30.2502 18.7267 30.0702 18.26 29.7102 17.9C29.3635 17.54 28.8502 17.36 28.1702 17.36C27.5302 17.36 27.0235 17.5067 26.6502 17.8C26.2902 18.08 26.0635 18.44 25.9702 18.88H23.2102C23.2902 17.9333 23.5702 17.1533 24.0502 16.54C24.5435 15.9133 25.1635 15.4467 25.9102 15.14C26.6568 14.8333 27.4435 14.68 28.2702 14.68C29.1635 14.68 29.9768 14.8467 30.7102 15.18C31.4435 15.5133 32.0235 16 32.4502 16.64C32.8768 17.2667 33.0902 18.0467 33.0902 18.98C33.0902 19.78 32.9368 20.5067 32.6302 21.16C32.3368 21.8 31.9302 22.4 31.4102 22.96C30.8902 23.5067 30.3035 24.0333 29.6502 24.54L27.4102 26.36H33.0702V29H23.1302Z"/>
</mask>
<path d="M12.94 28.6L13.4003 27.7122L12.94 28.6ZM11.18 27.06L10.353 27.6223L10.3584 27.6301L11.18 27.06ZM10.2 24.76L9.22486 24.9816L9.22561 24.9849L10.2 24.76ZM10.2 19.12L9.22815 18.8844L9.22646 18.8914L9.22487 18.8984L10.2 19.12ZM11.2 16.8L10.3807 16.2265L10.3731 16.2377L11.2 16.8ZM12.98 15.24L12.5263 14.3488L12.5197 14.3522L12.98 15.24ZM18.3 15.26L17.8269 16.141L17.8336 16.1446L18.3 15.26ZM20.06 16.88L19.2157 17.4158L19.2217 17.4253L19.228 17.4347L20.06 16.88ZM21.02 19.2L20.0424 19.4106L20.044 19.4177L20.0456 19.4249L21.02 19.2ZM21.02 24.68L20.0456 24.4551L20.0456 24.4551L21.02 24.68ZM20.06 27L20.8946 27.5509L20.8996 27.5433L20.06 27ZM18.3 28.58L17.8336 27.6954L18.3 28.58ZM17.12 26.08L17.7378 26.8663L17.7414 26.8635L17.12 26.08ZM17.98 24.9L17.0569 24.5154L17.0523 24.5264L17.048 24.5376L17.98 24.9ZM18.36 23.4L17.3677 23.276L17.3663 23.287L17.3652 23.298L18.36 23.4ZM18.36 20.5L17.365 20.5995L17.3663 20.6134L17.3681 20.6272L18.36 20.5ZM18 19L17.068 19.3625L17.0715 19.3714L18 19ZM14.1 17.82L14.7044 18.6167L14.713 18.6102L14.7214 18.6035L14.1 17.82ZM13.22 18.98L12.2969 18.5954L12.2923 18.6064L12.288 18.6176L13.22 18.98ZM12.84 20.48L11.8481 20.3528V20.3528L12.84 20.48ZM12.82 23.38L11.825 23.4795L11.8262 23.4918L11.8277 23.504L12.82 23.38ZM14.04 26.08L13.4053 26.8527L13.4202 26.865L13.4356 26.8767L14.04 26.08ZM15.58 28.16C14.6563 28.16 13.9436 27.994 13.4003 27.7122L12.4797 29.4878C13.3764 29.9527 14.4237 30.16 15.58 30.16V28.16ZM13.4003 27.7122C12.8218 27.4123 12.3602 27.0068 12.0016 26.4899L10.3584 27.6301C10.9064 28.4199 11.6182 29.0411 12.4797 29.4878L13.4003 27.7122ZM12.0069 26.4977C11.6301 25.9435 11.3494 25.2936 11.1744 24.5351L9.22561 24.9849C9.45058 25.9597 9.82328 26.8432 10.3531 27.6223L12.0069 26.4977ZM11.1751 24.5384C10.9931 23.7375 10.9 22.879 10.9 21.96H8.9C8.9 23.0144 9.00689 24.0225 9.22487 24.9816L11.1751 24.5384ZM10.9 21.96C10.9 21.0123 10.9935 20.1407 11.1751 19.3416L9.22487 18.8984C9.00647 19.8593 8.9 20.8811 8.9 21.96H10.9ZM11.1719 19.3556C11.3603 18.578 11.6489 17.9182 12.0269 17.3623L10.3731 16.2377C9.84441 17.0151 9.46632 17.902 9.22815 18.8844L11.1719 19.3556ZM12.0192 17.3735C12.3937 16.8385 12.8641 16.4266 13.4403 16.1278L12.5197 14.3522C11.6559 14.8001 10.9396 15.4282 10.3808 16.2265L12.0192 17.3735ZM13.4337 16.1312C13.996 15.8449 14.7128 15.68 15.62 15.68V13.68C14.4739 13.68 13.4307 13.8884 12.5263 14.3488L13.4337 16.1312ZM15.62 15.68C16.5703 15.68 17.29 15.8527 17.8269 16.141L18.7731 14.379C17.87 13.894 16.803 13.68 15.62 13.68V15.68ZM17.8336 16.1446C18.4143 16.4507 18.87 16.8712 19.2157 17.4158L20.9043 16.3442C20.37 15.5022 19.6524 14.8426 18.7664 14.3754L17.8336 16.1446ZM19.228 17.4347C19.6059 18.0016 19.88 18.6563 20.0424 19.4106L21.9976 18.9894C21.7867 18.0104 21.4208 17.1184 20.8921 16.3253L19.228 17.4347ZM20.0456 19.4249C20.2275 20.2132 20.32 21.0442 20.32 21.92H22.32C22.32 20.9025 22.2125 19.9201 21.9944 18.9751L20.0456 19.4249ZM20.32 21.92C20.32 22.8247 20.2271 23.6688 20.0456 24.4551L21.9944 24.9049C22.2129 23.9579 22.32 22.962 22.32 21.92H20.32ZM20.0456 24.4551C19.8692 25.2197 19.5914 25.8834 19.2204 26.4567L20.8996 27.5433C21.4086 26.7566 21.7708 25.8736 21.9944 24.9049L20.0456 24.4551ZM19.2254 26.4492C18.8817 26.9699 18.4239 27.3842 17.8336 27.6954L18.7664 29.4646C19.6427 29.0025 20.3583 28.3634 20.8946 27.5508L19.2254 26.4492ZM17.8336 27.6954C17.281 27.9868 16.5451 28.16 15.58 28.16V30.16C16.7749 30.16 17.8524 29.9465 18.7664 29.4646L17.8336 27.6954ZM15.58 27.52C16.3742 27.52 17.1325 27.342 17.7378 26.8663L16.5022 25.2937C16.3609 25.4047 16.0925 25.52 15.58 25.52V27.52ZM17.7414 26.8635C18.2733 26.4416 18.6639 25.9004 18.912 25.2624L17.048 24.5376C16.9227 24.8596 16.74 25.105 16.4986 25.2965L17.7414 26.8635ZM18.9031 25.2846C19.1409 24.7139 19.2915 24.1187 19.3548 23.502L17.3652 23.298C17.3218 23.7213 17.2191 24.1261 17.0569 24.5154L18.9031 25.2846ZM19.3523 23.524C19.4232 22.9569 19.46 22.4216 19.46 21.92H17.46C17.46 22.3251 17.4302 22.7765 17.3677 23.276L19.3523 23.524ZM19.46 21.92C19.46 21.4425 19.4228 20.9259 19.3519 20.3728L17.3681 20.6272C17.4305 21.1141 17.46 21.5442 17.46 21.92H19.46ZM19.355 20.4005C19.293 19.78 19.1522 19.1879 18.9285 18.6286L17.0715 19.3714C17.2211 19.7454 17.3203 20.1533 17.365 20.5995L19.355 20.4005ZM18.932 18.6376C18.6874 18.0085 18.3095 17.4701 17.7947 17.0473L16.5253 18.5927C16.7572 18.7832 16.9393 19.0315 17.068 19.3624L18.932 18.6376ZM17.7947 17.0473C17.1917 16.5519 16.4358 16.36 15.64 16.36V18.36C16.1242 18.36 16.3817 18.4748 16.5253 18.5927L17.7947 17.0473ZM15.64 16.36C14.842 16.36 14.0886 16.5527 13.4786 17.0365L14.7214 18.6035C14.8847 18.4739 15.158 18.36 15.64 18.36V16.36ZM13.4956 17.0233C12.9581 17.4311 12.5599 17.9643 12.2969 18.5954L14.1431 19.3646C14.2801 19.0357 14.4685 18.7956 14.7044 18.6167L13.4956 17.0233ZM12.288 18.6176C12.0714 19.1746 11.9249 19.7537 11.8481 20.3528L13.8319 20.6072C13.8884 20.1663 13.9953 19.7454 14.152 19.3424L12.288 18.6176ZM11.8481 20.3528C11.777 20.9073 11.74 21.4304 11.74 21.92H13.74C13.74 21.5296 13.7696 21.0927 13.8319 20.6072L11.8481 20.3528ZM11.74 21.92C11.74 22.3995 11.769 22.9199 11.825 23.4795L13.815 23.2805C13.7643 22.7734 13.74 22.3205 13.74 21.92H11.74ZM11.8277 23.504C11.9041 24.1155 12.0502 24.7025 12.268 25.2624L14.132 24.5376C13.9764 24.1375 13.8692 23.7112 13.8123 23.256L11.8277 23.504ZM12.268 25.2624C12.5126 25.8915 12.8905 26.4299 13.4053 26.8527L14.6747 25.3073C14.4428 25.1168 14.2607 24.8685 14.132 24.5376L12.268 25.2624ZM13.4356 26.8767C14.0444 27.3385 14.7912 27.52 15.58 27.52V25.52C15.0888 25.52 14.809 25.4082 14.6444 25.2833L13.4356 26.8767ZM23.1302 29H22.1302V30H23.1302V29ZM23.1302 26.64L22.4907 25.8711L22.1302 26.171V26.64H23.1302ZM27.0502 23.38L27.6896 24.1489L27.6953 24.1441L27.7009 24.1393L27.0502 23.38ZM28.0102 22.58L28.6418 23.3552L28.6449 23.3527L28.0102 22.58ZM29.0702 21.6L28.3631 20.8929L28.3561 20.8998L28.3493 20.9069L29.0702 21.6ZM29.9102 20.5L29.0475 19.9943L29.0409 20.0055L29.0346 20.0169L29.9102 20.5ZM29.7102 17.9L28.9898 18.5936L28.9964 18.6004L29.003 18.6071L29.7102 17.9ZM26.6502 17.8L27.2641 18.5894L27.268 18.5863L26.6502 17.8ZM25.9702 18.88V19.88H26.7803L26.9484 19.0875L25.9702 18.88ZM23.2102 18.88L22.2137 18.7958L22.1221 19.88H23.2102V18.88ZM24.0502 16.54L23.2644 15.9214L23.2627 15.9237L24.0502 16.54ZM25.9102 15.14L26.2901 16.065L25.9102 15.14ZM30.7102 15.18L31.124 14.2696L31.124 14.2696L30.7102 15.18ZM32.4502 16.64L31.6181 17.1947L31.6236 17.2028L32.4502 16.64ZM32.6302 21.16L31.7249 20.7351L31.7211 20.7433L32.6302 21.16ZM31.4102 22.96L32.1348 23.6493L32.143 23.6405L31.4102 22.96ZM29.6502 24.54L29.0373 23.7498L29.0284 23.7567L29.0196 23.7639L29.6502 24.54ZM27.4102 26.36L26.7796 25.5839L24.5936 27.36H27.4102V26.36ZM33.0702 26.36H34.0702V25.36H33.0702V26.36ZM33.0702 29V30H34.0702V29H33.0702ZM24.1302 29V26.64H22.1302V29H24.1302ZM23.7696 27.4089L27.6896 24.1489L26.4107 22.6111L22.4907 25.8711L23.7696 27.4089ZM27.7009 24.1393C27.9733 23.9058 28.2867 23.6446 28.6418 23.3552L27.3785 21.8048C27.0136 22.1021 26.687 22.3742 26.3994 22.6207L27.7009 24.1393ZM28.6449 23.3527C29.0483 23.0213 29.4304 22.6681 29.791 22.2931L28.3493 20.9069C28.0432 21.2252 27.7187 21.5253 27.3754 21.8073L28.6449 23.3527ZM29.7773 22.3071C30.1831 21.9013 30.5224 21.4604 30.7857 20.9831L29.0346 20.0169C28.8713 20.3129 28.6505 20.6054 28.3631 20.8929L29.7773 22.3071ZM30.7729 21.0057C31.0816 20.479 31.2502 19.906 31.2502 19.3H29.2502C29.2502 19.5207 29.1921 19.7476 29.0475 19.9943L30.7729 21.0057ZM31.2502 19.3C31.2502 18.498 30.9891 17.7648 30.4173 17.1929L29.003 18.6071C29.1512 18.7552 29.2502 18.9554 29.2502 19.3H31.2502ZM30.4305 17.2064C29.8351 16.5881 29.0208 16.36 28.1702 16.36V18.36C28.6795 18.36 28.8919 18.4919 28.9898 18.5936L30.4305 17.2064ZM28.1702 16.36C27.3837 16.36 26.6344 16.5406 26.0323 17.0137L27.268 18.5863C27.4125 18.4727 27.6767 18.36 28.1702 18.36V16.36ZM26.0362 17.0106C25.4928 17.4333 25.135 17.9981 24.9919 18.6725L26.9484 19.0875C26.992 18.8819 27.0875 18.7267 27.2641 18.5894L26.0362 17.0106ZM25.9702 17.88H23.2102V19.88H25.9702V17.88ZM24.2066 18.9642C24.2738 18.1685 24.5017 17.5856 24.8377 17.1563L23.2627 15.9237C22.6386 16.721 22.3065 17.6982 22.2137 18.7958L24.2066 18.9642ZM24.8359 17.1586C25.2213 16.669 25.7008 16.307 26.2901 16.065L25.5302 14.215C24.6262 14.5863 23.8657 15.1577 23.2644 15.9214L24.8359 17.1586ZM26.2901 16.065C26.9133 15.8091 27.5706 15.68 28.2702 15.68V13.68C27.3164 13.68 26.4004 13.8576 25.5302 14.215L26.2901 16.065ZM28.2702 15.68C29.0364 15.68 29.7065 15.8223 30.2964 16.0904L31.124 14.2696C30.2471 13.8711 29.2906 13.68 28.2702 13.68V15.68ZM30.2964 16.0904C30.8682 16.3503 31.3 16.7175 31.6181 17.1947L33.2822 16.0853C32.747 15.2825 32.0187 14.6764 31.124 14.2696L30.2964 16.0904ZM31.6236 17.2028C31.9135 17.6286 32.0902 18.2006 32.0902 18.98H34.0902C34.0902 17.8927 33.8402 16.9047 33.2768 16.0772L31.6236 17.2028ZM32.0902 18.98C32.0902 19.6492 31.9627 20.2285 31.7249 20.7351L33.5354 21.5849C33.911 20.7848 34.0902 19.9108 34.0902 18.98H32.0902ZM31.7211 20.7433C31.4757 21.2787 31.1311 21.7909 30.6774 22.2795L32.143 23.6405C32.7292 23.0091 33.1979 22.3213 33.5392 21.5767L31.7211 20.7433ZM30.6856 22.2708C30.2034 22.7778 29.6547 23.271 29.0373 23.7498L30.263 25.3302C30.9523 24.7956 31.577 24.2356 32.1347 23.6492L30.6856 22.2708ZM29.0196 23.7639L26.7796 25.5839L28.0407 27.1361L30.2807 25.3161L29.0196 23.7639ZM27.4102 27.36H33.0702V25.36H27.4102V27.36ZM32.0702 26.36V29H34.0702V26.36H32.0702ZM33.0702 28H23.1302V30H33.0702V28Z" fill="white" mask="url(#path-2-outside-1_579_392)"/>
</svg>
