<svg width="44" height="44" viewBox="0 0 44 44" fill="none" xmlns="http://www.w3.org/2000/svg">
<rect width="44" height="44" rx="4" fill="#090909"/>
<mask id="path-2-outside-1_579_60" maskUnits="userSpaceOnUse" x="8" y="13" width="28" height="18" fill="black">
<rect fill="white" x="8" y="13" width="28" height="18"/>
<path d="M15.58 29.16C14.54 29.16 13.66 28.9733 12.94 28.6C12.22 28.2267 11.6333 27.7133 11.18 27.06C10.7267 26.3933 10.4 25.6267 10.2 24.76C10 23.88 9.9 22.9467 9.9 21.96C9.9 20.9467 10 20 10.2 19.12C10.4133 18.24 10.7467 17.4667 11.2 16.8C11.6667 16.1333 12.26 15.6133 12.98 15.24C13.7133 14.8667 14.5933 14.68 15.62 14.68C16.6867 14.68 17.58 14.8733 18.3 15.26C19.0333 15.6467 19.62 16.1867 20.06 16.88C20.5133 17.56 20.8333 18.3333 21.02 19.2C21.22 20.0667 21.32 20.9733 21.32 21.92C21.32 22.8933 21.22 23.8133 21.02 24.68C20.82 25.5467 20.5 26.32 20.06 27C19.62 27.6667 19.0333 28.1933 18.3 28.58C17.5667 28.9667 16.66 29.16 15.58 29.16ZM15.58 26.52C16.2333 26.52 16.7467 26.3733 17.12 26.08C17.5067 25.7733 17.7933 25.38 17.98 24.9C18.18 24.42 18.3067 23.92 18.36 23.4C18.4267 22.8667 18.46 22.3733 18.46 21.92C18.46 21.4933 18.4267 21.02 18.36 20.5C18.3067 19.9667 18.1867 19.4667 18 19C17.8133 18.52 17.5333 18.1267 17.16 17.82C16.7867 17.5133 16.28 17.36 15.64 17.36C15 17.36 14.4867 17.5133 14.1 17.82C13.7133 18.1133 13.42 18.5 13.22 18.98C13.0333 19.46 12.9067 19.96 12.84 20.48C12.7733 21 12.74 21.48 12.74 21.92C12.74 22.36 12.7667 22.8467 12.82 23.38C12.8867 23.9133 13.0133 24.42 13.2 24.9C13.3867 25.38 13.6667 25.7733 14.04 26.08C14.4267 26.3733 14.94 26.52 15.58 26.52ZM29.1231 29.16C28.4565 29.16 27.8365 29.08 27.2631 28.92C26.6898 28.7467 26.1765 28.4867 25.7231 28.14C25.2831 27.7933 24.9098 27.3533 24.6031 26.82C24.3098 26.2867 24.1098 25.6533 24.0031 24.92H26.8231C26.9031 25.1867 27.0498 25.44 27.2631 25.68C27.4765 25.92 27.7431 26.1133 28.0631 26.26C28.3965 26.4067 28.7698 26.48 29.1831 26.48C29.6898 26.48 30.1165 26.3933 30.4631 26.22C30.8098 26.0333 31.0765 25.78 31.2631 25.46C31.4498 25.14 31.5431 24.76 31.5431 24.32C31.5431 23.6533 31.3298 23.12 30.9031 22.72C30.4898 22.3067 29.9031 22.1 29.1431 22.1C28.7031 22.1 28.2898 22.18 27.9031 22.34C27.5298 22.4867 27.1698 22.6933 26.8231 22.96H24.3831L24.6431 14.84H33.9631V17.46H27.3431L27.1831 20.34C27.5831 20.06 28.0431 19.8667 28.5631 19.76C29.0965 19.64 29.6231 19.5867 30.1431 19.6C31.0631 19.6267 31.8431 19.8267 32.4831 20.2C33.1231 20.5733 33.6098 21.0933 33.9431 21.76C34.2898 22.4267 34.4631 23.2067 34.4631 24.1C34.4631 25.18 34.2231 26.1 33.7431 26.86C33.2765 27.62 32.6365 28.1933 31.8231 28.58C31.0231 28.9667 30.1231 29.16 29.1231 29.16Z"/>
</mask>
<path d="M12.94 28.6L13.4003 27.7122L12.94 28.6ZM11.18 27.06L10.353 27.6223L10.3584 27.6301L11.18 27.06ZM10.2 24.76L9.22486 24.9816L9.22561 24.9849L10.2 24.76ZM10.2 19.12L9.22815 18.8844L9.22646 18.8914L9.22487 18.8984L10.2 19.12ZM11.2 16.8L10.3807 16.2265L10.3731 16.2377L11.2 16.8ZM12.98 15.24L12.5263 14.3488L12.5197 14.3522L12.98 15.24ZM18.3 15.26L17.8269 16.141L17.8336 16.1446L18.3 15.26ZM20.06 16.88L19.2157 17.4158L19.2217 17.4253L19.228 17.4347L20.06 16.88ZM21.02 19.2L20.0424 19.4106L20.044 19.4177L20.0456 19.4249L21.02 19.2ZM21.02 24.68L20.0456 24.4551L20.0456 24.4551L21.02 24.68ZM20.06 27L20.8946 27.5509L20.8996 27.5433L20.06 27ZM18.3 28.58L17.8336 27.6954L18.3 28.58ZM17.12 26.08L17.7378 26.8663L17.7414 26.8635L17.12 26.08ZM17.98 24.9L17.0569 24.5154L17.0523 24.5264L17.048 24.5376L17.98 24.9ZM18.36 23.4L17.3677 23.276L17.3663 23.287L17.3652 23.298L18.36 23.4ZM18.36 20.5L17.365 20.5995L17.3663 20.6134L17.3681 20.6272L18.36 20.5ZM18 19L17.068 19.3625L17.0715 19.3714L18 19ZM14.1 17.82L14.7044 18.6167L14.713 18.6102L14.7214 18.6035L14.1 17.82ZM13.22 18.98L12.2969 18.5954L12.2923 18.6064L12.288 18.6176L13.22 18.98ZM12.84 20.48L11.8481 20.3528V20.3528L12.84 20.48ZM12.82 23.38L11.825 23.4795L11.8262 23.4918L11.8277 23.504L12.82 23.38ZM14.04 26.08L13.4053 26.8527L13.4202 26.865L13.4356 26.8767L14.04 26.08ZM15.58 28.16C14.6563 28.16 13.9436 27.994 13.4003 27.7122L12.4797 29.4878C13.3764 29.9527 14.4237 30.16 15.58 30.16V28.16ZM13.4003 27.7122C12.8218 27.4123 12.3602 27.0068 12.0016 26.4899L10.3584 27.6301C10.9064 28.4199 11.6182 29.0411 12.4797 29.4878L13.4003 27.7122ZM12.0069 26.4977C11.6301 25.9435 11.3494 25.2936 11.1744 24.5351L9.22561 24.9849C9.45058 25.9597 9.82328 26.8432 10.3531 27.6223L12.0069 26.4977ZM11.1751 24.5384C10.9931 23.7375 10.9 22.879 10.9 21.96H8.9C8.9 23.0144 9.00689 24.0225 9.22487 24.9816L11.1751 24.5384ZM10.9 21.96C10.9 21.0123 10.9935 20.1407 11.1751 19.3416L9.22487 18.8984C9.00647 19.8593 8.9 20.8811 8.9 21.96H10.9ZM11.1719 19.3556C11.3603 18.578 11.6489 17.9182 12.0269 17.3623L10.3731 16.2377C9.84441 17.0151 9.46632 17.902 9.22815 18.8844L11.1719 19.3556ZM12.0192 17.3735C12.3937 16.8385 12.8641 16.4266 13.4403 16.1278L12.5197 14.3522C11.6559 14.8001 10.9396 15.4282 10.3808 16.2265L12.0192 17.3735ZM13.4337 16.1312C13.996 15.8449 14.7128 15.68 15.62 15.68V13.68C14.4739 13.68 13.4307 13.8884 12.5263 14.3488L13.4337 16.1312ZM15.62 15.68C16.5703 15.68 17.29 15.8527 17.8269 16.141L18.7731 14.379C17.87 13.894 16.803 13.68 15.62 13.68V15.68ZM17.8336 16.1446C18.4143 16.4507 18.87 16.8712 19.2157 17.4158L20.9043 16.3442C20.37 15.5022 19.6524 14.8426 18.7664 14.3754L17.8336 16.1446ZM19.228 17.4347C19.6059 18.0016 19.88 18.6563 20.0424 19.4106L21.9976 18.9894C21.7867 18.0104 21.4208 17.1184 20.8921 16.3253L19.228 17.4347ZM20.0456 19.4249C20.2275 20.2132 20.32 21.0442 20.32 21.92H22.32C22.32 20.9025 22.2125 19.9201 21.9944 18.9751L20.0456 19.4249ZM20.32 21.92C20.32 22.8247 20.2271 23.6688 20.0456 24.4551L21.9944 24.9049C22.2129 23.9579 22.32 22.962 22.32 21.92H20.32ZM20.0456 24.4551C19.8692 25.2197 19.5914 25.8834 19.2204 26.4567L20.8996 27.5433C21.4086 26.7566 21.7708 25.8736 21.9944 24.9049L20.0456 24.4551ZM19.2254 26.4492C18.8817 26.9699 18.4239 27.3842 17.8336 27.6954L18.7664 29.4646C19.6427 29.0025 20.3583 28.3634 20.8946 27.5508L19.2254 26.4492ZM17.8336 27.6954C17.281 27.9868 16.5451 28.16 15.58 28.16V30.16C16.7749 30.16 17.8524 29.9465 18.7664 29.4646L17.8336 27.6954ZM15.58 27.52C16.3742 27.52 17.1325 27.342 17.7378 26.8663L16.5022 25.2937C16.3609 25.4047 16.0925 25.52 15.58 25.52V27.52ZM17.7414 26.8635C18.2733 26.4416 18.6639 25.9004 18.912 25.2624L17.048 24.5376C16.9227 24.8596 16.74 25.105 16.4986 25.2965L17.7414 26.8635ZM18.9031 25.2846C19.1409 24.7139 19.2915 24.1187 19.3548 23.502L17.3652 23.298C17.3218 23.7213 17.2191 24.1261 17.0569 24.5154L18.9031 25.2846ZM19.3523 23.524C19.4232 22.9569 19.46 22.4216 19.46 21.92H17.46C17.46 22.3251 17.4302 22.7765 17.3677 23.276L19.3523 23.524ZM19.46 21.92C19.46 21.4425 19.4228 20.9259 19.3519 20.3728L17.3681 20.6272C17.4305 21.1141 17.46 21.5442 17.46 21.92H19.46ZM19.355 20.4005C19.293 19.78 19.1522 19.1879 18.9285 18.6286L17.0715 19.3714C17.2211 19.7454 17.3203 20.1533 17.365 20.5995L19.355 20.4005ZM18.932 18.6376C18.6874 18.0085 18.3095 17.4701 17.7947 17.0473L16.5253 18.5927C16.7572 18.7832 16.9393 19.0315 17.068 19.3624L18.932 18.6376ZM17.7947 17.0473C17.1917 16.5519 16.4358 16.36 15.64 16.36V18.36C16.1242 18.36 16.3817 18.4748 16.5253 18.5927L17.7947 17.0473ZM15.64 16.36C14.842 16.36 14.0886 16.5527 13.4786 17.0365L14.7214 18.6035C14.8847 18.4739 15.158 18.36 15.64 18.36V16.36ZM13.4956 17.0233C12.9581 17.4311 12.5599 17.9643 12.2969 18.5954L14.1431 19.3646C14.2801 19.0357 14.4685 18.7956 14.7044 18.6167L13.4956 17.0233ZM12.288 18.6176C12.0714 19.1746 11.9249 19.7537 11.8481 20.3528L13.8319 20.6072C13.8884 20.1663 13.9953 19.7454 14.152 19.3424L12.288 18.6176ZM11.8481 20.3528C11.777 20.9073 11.74 21.4304 11.74 21.92H13.74C13.74 21.5296 13.7696 21.0927 13.8319 20.6072L11.8481 20.3528ZM11.74 21.92C11.74 22.3995 11.769 22.9199 11.825 23.4795L13.815 23.2805C13.7643 22.7734 13.74 22.3205 13.74 21.92H11.74ZM11.8277 23.504C11.9041 24.1155 12.0502 24.7025 12.268 25.2624L14.132 24.5376C13.9764 24.1375 13.8692 23.7112 13.8123 23.256L11.8277 23.504ZM12.268 25.2624C12.5126 25.8915 12.8905 26.4299 13.4053 26.8527L14.6747 25.3073C14.4428 25.1168 14.2607 24.8685 14.132 24.5376L12.268 25.2624ZM13.4356 26.8767C14.0444 27.3385 14.7912 27.52 15.58 27.52V25.52C15.0888 25.52 14.809 25.4082 14.6444 25.2833L13.4356 26.8767ZM27.2631 28.92L26.9737 29.8772L26.984 29.8803L26.9943 29.8832L27.2631 28.92ZM25.7231 28.14L25.1043 28.9255L25.1099 28.93L25.1157 28.9344L25.7231 28.14ZM24.6031 26.82L23.7269 27.3019L23.7315 27.3102L23.7362 27.3185L24.6031 26.82ZM24.0031 24.92V23.92H22.8471L23.0135 25.0639L24.0031 24.92ZM26.8231 24.92L27.781 24.6327L27.5672 23.92H26.8231V24.92ZM28.0631 26.26L27.6465 27.1691L27.6534 27.1722L27.6604 27.1753L28.0631 26.26ZM30.4631 26.22L30.9103 27.1144L30.9239 27.1077L30.9372 27.1005L30.4631 26.22ZM31.2631 25.46L32.1269 25.9639H32.1269L31.2631 25.46ZM30.9031 22.72L30.196 23.4271L30.2074 23.4385L30.2192 23.4495L30.9031 22.72ZM27.9031 22.34L28.2688 23.2708L28.2772 23.2675L28.2855 23.264L27.9031 22.34ZM26.8231 22.96V23.96H27.1632L27.4328 23.7526L26.8231 22.96ZM24.3831 22.96L23.3836 22.928L23.3506 23.96H24.3831V22.96ZM24.6431 14.84V13.84H23.6746L23.6436 14.808L24.6431 14.84ZM33.9631 14.84H34.9631V13.84H33.9631V14.84ZM33.9631 17.46V18.46H34.9631V17.46H33.9631ZM27.3431 17.46V16.46H26.3971L26.3447 17.4045L27.3431 17.46ZM27.1831 20.34L26.1847 20.2845L26.0705 22.3395L27.7566 21.1592L27.1831 20.34ZM28.5631 19.76L28.7641 20.7396L28.7734 20.7377L28.7826 20.7356L28.5631 19.76ZM30.1431 19.6L30.1721 18.6004L30.1688 18.6003L30.1431 19.6ZM32.4831 20.2L32.987 19.3362L32.4831 20.2ZM33.9431 21.76L33.0487 22.2072L33.0522 22.2143L33.0559 22.2214L33.9431 21.76ZM33.7431 26.86L32.8976 26.326L32.891 26.3367L33.7431 26.86ZM31.8231 28.58L31.3938 27.6768L31.388 27.6797L31.8231 28.58ZM29.1231 28.16C28.5366 28.16 28.008 28.0897 27.5319 27.9568L26.9943 29.8832C27.6649 30.0703 28.3763 30.16 29.1231 30.16V28.16ZM27.5525 27.9628C27.0884 27.8225 26.6839 27.6158 26.3306 27.3456L25.1157 28.9344C25.6691 29.3575 26.2912 29.6709 26.9737 29.8772L27.5525 27.9628ZM26.342 27.3545C26.0117 27.0942 25.7194 26.7551 25.47 26.3215L23.7362 27.3185C24.1002 27.9515 24.5546 28.4924 25.1043 28.9255L26.342 27.3545ZM25.4793 26.3381C25.2548 25.9298 25.0858 25.4158 24.9927 24.7761L23.0135 25.0639C23.1338 25.8908 23.3648 26.6436 23.7269 27.3019L25.4793 26.3381ZM24.0031 25.92H26.8231V23.92H24.0031V25.92ZM25.8653 25.2073C25.9931 25.6334 26.2204 26.0122 26.5157 26.3444L28.0105 25.0156C27.8792 24.8678 27.8131 24.74 27.781 24.6327L25.8653 25.2073ZM26.5157 26.3444C26.8297 26.6976 27.2127 26.9702 27.6465 27.1691L28.4798 25.3509C28.2736 25.2564 28.1232 25.1424 28.0105 25.0156L26.5157 26.3444ZM27.6604 27.1753C28.1367 27.3849 28.6498 27.48 29.1831 27.48V25.48C28.8898 25.48 28.6562 25.4284 28.4659 25.3447L27.6604 27.1753ZM29.1831 27.48C29.7991 27.48 30.3889 27.3752 30.9103 27.1144L30.0159 25.3256C29.844 25.4115 29.5805 25.48 29.1831 25.48V27.48ZM30.9372 27.1005C31.4354 26.8322 31.8416 26.453 32.1269 25.9639L30.3993 24.9561C30.3113 25.107 30.1842 25.2344 29.989 25.3395L30.9372 27.1005ZM32.1269 25.9639C32.4182 25.4645 32.5431 24.9037 32.5431 24.32H30.5431C30.5431 24.6163 30.4814 24.8155 30.3993 24.9561L32.1269 25.9639ZM32.5431 24.32C32.5431 23.4194 32.2444 22.6067 31.5871 21.9905L30.2192 23.4495C30.4152 23.6333 30.5431 23.8873 30.5431 24.32H32.5431ZM31.6102 22.0129C30.9579 21.3605 30.0854 21.1 29.1431 21.1V23.1C29.7209 23.1 30.0217 23.2528 30.196 23.4271L31.6102 22.0129ZM29.1431 21.1C28.5788 21.1 28.0349 21.2033 27.5208 21.416L28.2855 23.264C28.5447 23.1567 28.8275 23.1 29.1431 23.1V21.1ZM27.5375 21.4092C27.0692 21.5932 26.6279 21.8486 26.2134 22.1674L27.4328 23.7526C27.7117 23.5381 27.9904 23.3801 28.2688 23.2708L27.5375 21.4092ZM26.8231 21.96H24.3831V23.96H26.8231V21.96ZM25.3826 22.992L25.6426 14.872L23.6436 14.808L23.3836 22.928L25.3826 22.992ZM24.6431 15.84H33.9631V13.84H24.6431V15.84ZM32.9631 14.84V17.46H34.9631V14.84H32.9631ZM33.9631 16.46H27.3431V18.46H33.9631V16.46ZM26.3447 17.4045L26.1847 20.2845L28.1816 20.3955L28.3416 17.5155L26.3447 17.4045ZM27.7566 21.1592C28.0352 20.9642 28.3661 20.8212 28.7641 20.7396L28.3622 18.7804C27.7201 18.9121 27.131 19.1558 26.6097 19.5208L27.7566 21.1592ZM28.7826 20.7356C29.2397 20.6328 29.684 20.5886 30.1175 20.5997L30.1688 18.6003C29.5623 18.5848 28.9533 18.6472 28.3436 18.7844L28.7826 20.7356ZM30.1142 20.5996C30.9069 20.6226 31.5147 20.7928 31.9793 21.0638L32.987 19.3362C32.1716 18.8606 31.2194 18.6308 30.1721 18.6004L30.1142 20.5996ZM31.9793 21.0638C32.4503 21.3385 32.8017 21.7133 33.0487 22.2072L34.8376 21.3128C34.4178 20.4734 33.796 19.8081 32.987 19.3362L31.9793 21.0638ZM33.0559 22.2214C33.3157 22.7209 33.4631 23.3371 33.4631 24.1H35.4631C35.4631 23.0763 35.2639 22.1324 34.8303 21.2986L33.0559 22.2214ZM33.4631 24.1C33.4631 25.0294 33.258 25.7555 32.8976 26.326L34.5886 27.394C35.1883 26.4445 35.4631 25.3306 35.4631 24.1H33.4631ZM32.891 26.3367C32.5266 26.9302 32.0342 27.3724 31.3938 27.6769L32.2525 29.4831C33.2387 29.0143 34.0264 28.3098 34.5953 27.3833L32.891 26.3367ZM31.388 27.6797C30.7398 27.9929 29.9914 28.16 29.1231 28.16V30.16C30.2548 30.16 31.3064 29.9404 32.2583 29.4803L31.388 27.6797Z" fill="white" mask="url(#path-2-outside-1_579_60)"/>
</svg>
