<svg width="64" height="64" viewBox="0 0 64 64" fill="none" xmlns="http://www.w3.org/2000/svg">
<rect width="64" height="64" rx="32" fill="#F5F5F5"/>
<rect x="8.42578" y="8.29883" width="48" height="48" rx="24" fill="#E6E6E6"/>
<g clip-path="url(#clip0_501_3659)">
<path d="M26.3541 29.4215L22.3726 32.7393L26.3541 36.0571C26.4115 36.1042 26.4591 36.1621 26.494 36.2276C26.5289 36.2932 26.5505 36.365 26.5575 36.4389C26.5646 36.5128 26.5569 36.5874 26.535 36.6583C26.513 36.7292 26.4773 36.7951 26.4298 36.8522C26.3822 36.9092 26.3239 36.9563 26.2581 36.9907C26.1923 37.0251 26.1203 37.0461 26.0464 37.0525C25.9724 37.059 25.8979 37.0507 25.8271 37.0282C25.7564 37.0057 25.6908 36.9694 25.6341 36.9215L21.1341 33.1715C21.0707 33.1187 21.0198 33.0526 20.9848 32.9779C20.9498 32.9032 20.9316 32.8218 20.9316 32.7393C20.9316 32.6568 20.9498 32.5753 20.9848 32.5006C21.0198 32.426 21.0707 32.3599 21.1341 32.3071L25.6341 28.5571C25.7489 28.463 25.8962 28.4181 26.0439 28.4322C26.1917 28.4462 26.3279 28.5181 26.4229 28.6321C26.5178 28.7462 26.5639 28.8931 26.551 29.041C26.5382 29.1888 26.4674 29.3256 26.3541 29.4215ZM42.8541 32.3071L38.3541 28.5571C38.2974 28.5091 38.2318 28.4728 38.1611 28.4503C38.0903 28.4278 38.0158 28.4196 37.9419 28.426C37.8679 28.4325 37.7959 28.4535 37.7301 28.4879C37.6643 28.5223 37.606 28.5693 37.5585 28.6264C37.5109 28.6834 37.4752 28.7493 37.4533 28.8203C37.4313 28.8912 37.4237 28.9658 37.4307 29.0397C37.4377 29.1136 37.4593 29.1854 37.4942 29.2509C37.5291 29.3164 37.5767 29.3744 37.6341 29.4215L41.6157 32.7393L37.6341 36.0571C37.5767 36.1042 37.5291 36.1621 37.4942 36.2276C37.4593 36.2932 37.4377 36.365 37.4307 36.4389C37.4237 36.5128 37.4313 36.5874 37.4533 36.6583C37.4752 36.7292 37.5109 36.7951 37.5585 36.8522C37.606 36.9092 37.6643 36.9563 37.7301 36.9907C37.7959 37.0251 37.8679 37.0461 37.9419 37.0525C38.0158 37.059 38.0903 37.0507 38.1611 37.0282C38.2318 37.0057 38.2974 36.9694 38.3541 36.9215L42.8541 33.1715C42.9175 33.1187 42.9685 33.0526 43.0035 32.9779C43.0384 32.9032 43.0566 32.8218 43.0566 32.7393C43.0566 32.6568 43.0384 32.5753 43.0035 32.5006C42.9685 32.426 42.9175 32.3599 42.8541 32.3071ZM35.1863 23.9633C35.1167 23.9381 35.0429 23.9269 34.969 23.9303C34.8951 23.9336 34.8226 23.9516 34.7556 23.983C34.6887 24.0144 34.6285 24.0588 34.5787 24.1135C34.5289 24.1682 34.4904 24.2322 34.4654 24.3018L28.4654 40.8018C28.416 40.942 28.4243 41.0961 28.4882 41.2303C28.5521 41.3645 28.6666 41.468 28.8066 41.518C28.8668 41.5396 28.9302 41.551 28.9941 41.5518C29.1096 41.5518 29.2223 41.5163 29.3169 41.45C29.4115 41.3838 29.4834 41.29 29.5229 41.1815L35.5229 24.6815C35.5481 24.612 35.5594 24.5383 35.5562 24.4645C35.5529 24.3907 35.5352 24.3182 35.5039 24.2513C35.4727 24.1843 35.4285 24.1242 35.374 24.0743C35.3195 24.0244 35.2557 23.9858 35.1863 23.9605V23.9633Z" fill="#090909"/>
</g>
<defs>
<clipPath id="clip0_501_3659">
<rect width="24" height="24" fill="white" transform="translate(19.9941 20.7393)"/>
</clipPath>
</defs>
</svg>
