<svg width="64" height="64" viewBox="0 0 64 64" fill="none" xmlns="http://www.w3.org/2000/svg">
<rect width="64" height="64" rx="8" fill="white"/>
<path d="M31.456 41.196C30.504 41.196 29.5893 41.084 28.712 40.86C27.8347 40.636 27.032 40.2813 26.304 39.796C25.576 39.3107 24.9693 38.6947 24.484 37.948C23.9987 37.1827 23.7 36.268 23.588 35.204H27.564C27.6947 35.7267 27.9467 36.1653 28.32 36.52C28.712 36.856 29.1787 37.0987 29.72 37.248C30.28 37.3973 30.868 37.472 31.484 37.472C31.8947 37.472 32.296 37.4347 32.688 37.36C33.0987 37.2853 33.4627 37.1547 33.78 36.968C34.116 36.7813 34.3773 36.5293 34.564 36.212C34.7507 35.8947 34.844 35.4933 34.844 35.008C34.844 34.56 34.76 34.1867 34.592 33.888C34.424 33.5893 34.2 33.3467 33.92 33.16C33.64 32.9733 33.304 32.8427 32.912 32.768C32.5387 32.6933 32.1373 32.656 31.708 32.656H29.412V29.24H30.952C31.4373 29.24 31.876 29.1933 32.268 29.1C32.66 28.988 32.9867 28.8387 33.248 28.652C33.528 28.4467 33.7427 28.204 33.892 27.924C34.0413 27.6253 34.116 27.2893 34.116 26.916C34.116 26.356 33.9947 25.9173 33.752 25.6C33.5093 25.264 33.1733 25.0213 32.744 24.872C32.3147 24.7227 31.82 24.648 31.26 24.648C30.7373 24.648 30.2427 24.732 29.776 24.9C29.328 25.0493 28.9547 25.2733 28.656 25.572C28.3573 25.8707 28.1613 26.2347 28.068 26.664H24.176C24.288 25.656 24.5587 24.7973 24.988 24.088C25.4173 23.36 25.968 22.7627 26.64 22.296C27.312 21.8293 28.0587 21.4933 28.88 21.288C29.72 21.064 30.588 20.952 31.484 20.952C32.3427 20.952 33.164 21.0453 33.948 21.232C34.732 21.4187 35.432 21.7267 36.048 22.156C36.6827 22.5667 37.1867 23.1173 37.56 23.808C37.9333 24.4987 38.12 25.3293 38.12 26.3C38.12 26.8973 38.0173 27.4573 37.812 27.98C37.6253 28.5027 37.3453 28.9693 36.972 29.38C36.6173 29.772 36.1973 30.0987 35.712 30.36C36.44 30.5653 37.0373 30.9013 37.504 31.368C37.9707 31.8347 38.316 32.3853 38.54 33.02C38.7827 33.6547 38.904 34.336 38.904 35.064C38.904 36.2587 38.68 37.2573 38.232 38.06C37.8027 38.844 37.224 39.4693 36.496 39.936C35.768 40.384 34.9653 40.7107 34.088 40.916C33.2107 41.1027 32.3333 41.196 31.456 41.196Z" fill="#090909"/>
</svg>
