<svg width="64" height="64" viewBox="0 0 64 64" fill="none" xmlns="http://www.w3.org/2000/svg">
<rect width="64" height="64" rx="8" fill="white"/>
<path d="M24.588 41V37.696L30.076 33.132C30.468 32.796 30.916 32.4227 31.42 32.012C31.9427 31.5827 32.4373 31.1253 32.904 30.64C33.3893 30.1547 33.7813 29.6413 34.08 29.1C34.3973 28.5587 34.556 27.9987 34.556 27.42C34.556 26.6173 34.304 25.964 33.8 25.46C33.3147 24.956 32.596 24.704 31.644 24.704C30.748 24.704 30.0387 24.9093 29.516 25.32C29.012 25.712 28.6947 26.216 28.564 26.832H24.7C24.812 25.5067 25.204 24.4147 25.876 23.556C26.5667 22.6787 27.4347 22.0253 28.48 21.596C29.5253 21.1667 30.6267 20.952 31.784 20.952C33.0347 20.952 34.1733 21.1853 35.2 21.652C36.2267 22.1187 37.0387 22.8 37.636 23.696C38.2333 24.5733 38.532 25.6653 38.532 26.972C38.532 28.092 38.3173 29.1093 37.888 30.024C37.4773 30.92 36.908 31.76 36.18 32.544C35.452 33.3093 34.6307 34.0467 33.716 34.756L30.58 37.304H38.504V41H24.588Z" fill="#090909"/>
</svg>
