<svg width="80" height="80" viewBox="0 0 80 80" fill="none" xmlns="http://www.w3.org/2000/svg">
<rect width="80" height="80" rx="5.50354" fill="#090909"/>
<path d="M31.672 51V47.224L37.944 42.008C38.392 41.624 38.904 41.1973 39.48 40.728C40.0773 40.2373 40.6427 39.7147 41.176 39.16C41.7307 38.6053 42.1787 38.0187 42.52 37.4C42.8827 36.7813 43.064 36.1413 43.064 35.48C43.064 34.5627 42.776 33.816 42.2 33.24C41.6453 32.664 40.824 32.376 39.736 32.376C38.712 32.376 37.9013 32.6107 37.304 33.08C36.728 33.528 36.3653 34.104 36.216 34.808H31.8C31.928 33.2933 32.376 32.0453 33.144 31.064C33.9333 30.0613 34.9253 29.3147 36.12 28.824C37.3147 28.3333 38.5733 28.088 39.896 28.088C41.3253 28.088 42.6267 28.3547 43.8 28.888C44.9733 29.4213 45.9013 30.2 46.584 31.224C47.2667 32.2267 47.608 33.4747 47.608 34.968C47.608 36.248 47.3627 37.4107 46.872 38.456C46.4027 39.48 45.752 40.44 44.92 41.336C44.088 42.2107 43.1493 43.0533 42.104 43.864L38.52 46.776H47.576V51H31.672Z" fill="white"/>
</svg>
