<svg width="80" height="80" viewBox="0 0 80 80" fill="none" xmlns="http://www.w3.org/2000/svg">
<rect width="80" height="80" rx="5.50354" fill="#090909"/>
<path d="M39.664 51.224C38.576 51.224 37.5307 51.096 36.528 50.84C35.5253 50.584 34.608 50.1787 33.776 49.624C32.944 49.0693 32.2507 48.3653 31.696 47.512C31.1413 46.6373 30.8 45.592 30.672 44.376H35.216C35.3653 44.9733 35.6533 45.4747 36.08 45.88C36.528 46.264 37.0613 46.5413 37.68 46.712C38.32 46.8827 38.992 46.968 39.696 46.968C40.1653 46.968 40.624 46.9253 41.072 46.84C41.5413 46.7547 41.9573 46.6053 42.32 46.392C42.704 46.1787 43.0027 45.8907 43.216 45.528C43.4293 45.1653 43.536 44.7067 43.536 44.152C43.536 43.64 43.44 43.2133 43.248 42.872C43.056 42.5307 42.8 42.2533 42.48 42.04C42.16 41.8267 41.776 41.6773 41.328 41.592C40.9013 41.5067 40.4427 41.464 39.952 41.464H37.328V37.56H39.088C39.6427 37.56 40.144 37.5067 40.592 37.4C41.04 37.272 41.4133 37.1013 41.712 36.888C42.032 36.6533 42.2773 36.376 42.448 36.056C42.6187 35.7147 42.704 35.3307 42.704 34.904C42.704 34.264 42.5653 33.7627 42.288 33.4C42.0107 33.016 41.6267 32.7387 41.136 32.568C40.6453 32.3973 40.08 32.312 39.44 32.312C38.8427 32.312 38.2773 32.408 37.744 32.6C37.232 32.7707 36.8053 33.0267 36.464 33.368C36.1227 33.7093 35.8987 34.1253 35.792 34.616H31.344C31.472 33.464 31.7813 32.4827 32.272 31.672C32.7627 30.84 33.392 30.1573 34.16 29.624C34.928 29.0907 35.7813 28.7067 36.72 28.472C37.68 28.216 38.672 28.088 39.696 28.088C40.6773 28.088 41.616 28.1947 42.512 28.408C43.408 28.6213 44.208 28.9733 44.912 29.464C45.6373 29.9333 46.2133 30.5627 46.64 31.352C47.0667 32.1413 47.28 33.0907 47.28 34.2C47.28 34.8827 47.1627 35.5227 46.928 36.12C46.7147 36.7173 46.3947 37.2507 45.968 37.72C45.5627 38.168 45.0827 38.5413 44.528 38.84C45.36 39.0747 46.0427 39.4587 46.576 39.992C47.1093 40.5253 47.504 41.1547 47.76 41.88C48.0373 42.6053 48.176 43.384 48.176 44.216C48.176 45.5813 47.92 46.7227 47.408 47.64C46.9173 48.536 46.256 49.2507 45.424 49.784C44.592 50.296 43.6747 50.6693 42.672 50.904C41.6693 51.1173 40.6667 51.224 39.664 51.224Z" fill="white"/>
</svg>
