<svg width="48" height="48" viewBox="0 0 48 48" fill="none" xmlns="http://www.w3.org/2000/svg">
<rect x="0.5" y="0.5" width="47" height="47" rx="23.5" fill="#111111"/>
<rect x="0.5" y="0.5" width="47" height="47" rx="23.5" stroke="#494949"/>
<path d="M35.02 18.5357C34.9776 18.4328 34.9056 18.3449 34.8131 18.283C34.7207 18.2211 34.6119 18.188 34.5007 18.1878H31.5382C31.1633 17.5119 30.6158 16.9474 29.9516 16.5521C29.2874 16.1569 28.5301 15.9449 27.7572 15.9378C27.1958 15.9307 26.6387 16.0358 26.1185 16.247C25.5983 16.4582 25.1256 16.7713 24.7282 17.1678C24.3185 17.5697 23.9934 18.0495 23.7719 18.5788C23.5503 19.1082 23.4369 19.6765 23.4382 20.2503V21.0622C19.5007 20.1247 16.2569 16.8885 16.2194 16.8547C16.1439 16.7797 16.0486 16.7277 15.9446 16.7046C15.8406 16.6816 15.7323 16.6886 15.6321 16.7247C15.532 16.7609 15.4441 16.8247 15.3788 16.9088C15.3135 16.9928 15.2734 17.0937 15.2632 17.1997C14.8647 21.6266 16.1463 24.5825 17.2919 26.2832C17.8841 27.174 18.6142 27.9652 19.4547 28.6269C18.0025 30.4082 15.5791 31.3353 15.5528 31.3457C15.4728 31.3753 15.4005 31.4227 15.3415 31.4844C15.2825 31.5461 15.2383 31.6205 15.2123 31.7018C15.1863 31.7831 15.1791 31.8692 15.1913 31.9537C15.2036 32.0382 15.2348 32.1188 15.2828 32.1894C15.3757 32.3282 16.2925 33.5628 19.5007 33.5628C26.0519 33.5628 31.5222 28.5003 32.0463 21.9997L34.8982 19.1488C34.9768 19.0701 35.0304 18.9698 35.0521 18.8607C35.0738 18.7516 35.0626 18.6385 35.02 18.5357ZM31.1032 21.3528C31.0063 21.4495 30.9479 21.5782 30.9391 21.7147C30.5566 27.7278 25.5316 32.4378 19.5007 32.4378C18.1882 32.4378 17.3669 32.2119 16.87 31.9878C17.9294 31.4553 19.6563 30.4053 20.7185 28.8125C20.7608 28.7488 20.7897 28.6771 20.8034 28.6018C20.8171 28.5266 20.8153 28.4493 20.7982 28.3747C20.7808 28.2997 20.7482 28.229 20.7024 28.1671C20.6566 28.1052 20.5986 28.0533 20.5319 28.0147C20.5197 28.0072 19.301 27.2778 18.1882 25.6035C16.8757 23.6253 16.2485 21.2282 16.3132 18.4578C17.7082 19.6391 20.5853 21.7475 23.9069 22.3016C23.9876 22.3152 24.0703 22.3111 24.1492 22.2895C24.2281 22.2679 24.3014 22.2293 24.3639 22.1765C24.4264 22.1236 24.4766 22.0578 24.511 21.9835C24.5454 21.9093 24.5632 21.8284 24.5632 21.7466V20.2503C24.5623 19.8255 24.6464 19.4048 24.8104 19.013C24.9745 18.6211 25.2152 18.266 25.5185 17.9685C25.8105 17.6769 26.1577 17.4466 26.5399 17.2911C26.9221 17.1356 27.3315 17.058 27.7441 17.0628C29.0032 17.0788 30.1816 17.8475 30.6728 18.9753C30.7166 19.0757 30.7887 19.161 30.8803 19.221C30.9719 19.2809 31.079 19.3129 31.1885 19.3128H33.1422L31.1032 21.3528Z" fill="white"/>
</svg>
